<svg xmlns="http://www.w3.org/2000/svg" xmlns:xlink="http://www.w3.org/1999/xlink" width="304" zoomAndPan="magnify" viewBox="0 0 228 54" height="72" preserveAspectRatio="xMidYMid meet" version="1.0"><defs><filter x="0%" y="0%" width="100%" height="100%" id="fd6656b5bb"><feColorMatrix values="0 0 0 0 1 0 0 0 0 1 0 0 0 0 1 0 0 0 1 0" color-interpolation-filters="sRGB"/></filter><g/><mask id="7c06a367ca"><g filter="url(#fd6656b5bb)"><rect x="-22.8" width="273.6" fill="#000000" y="-5.4" height="64.8" fill-opacity="0.4"/></g></mask><clipPath id="4971f6c68d"><path d="M 0.441406 1 L 3 1 L 3 4 L 0.441406 4 Z M 0.441406 1 " clip-rule="nonzero"/></clipPath><clipPath id="a7f791934a"><path d="M 7 2 L 8.6875 2 L 8.6875 4 L 7 4 Z M 7 2 " clip-rule="nonzero"/></clipPath><clipPath id="a8a6e705c4"><rect x="0" width="9" y="0" height="6"/></clipPath></defs><path fill="#ff5a19" d="M 29.449219 40.960938 L 4.886719 41.40625 C 4.378906 41.414062 3.96875 41.003906 3.984375 40.503906 L 4.820312 12.242188 C 4.832031 11.777344 5.214844 11.398438 5.6875 11.390625 L 27.535156 10.996094 C 28.007812 10.988281 28.402344 11.347656 28.433594 11.816406 L 30.316406 40.023438 C 30.351562 40.523438 29.957031 40.949219 29.449219 40.960938 Z M 29.449219 40.960938 " fill-opacity="1" fill-rule="evenodd"/><path fill="#3a003d" d="M 29.46875 40.726562 L 5.386719 40.726562 C 4.890625 40.726562 4.496094 40.3125 4.519531 39.824219 L 5.851562 12.144531 C 5.875 11.6875 6.257812 11.328125 6.71875 11.328125 L 28.136719 11.328125 C 28.597656 11.328125 28.980469 11.6875 29.003906 12.144531 L 30.335938 39.824219 C 30.359375 40.3125 29.964844 40.726562 29.46875 40.726562 Z M 29.46875 40.726562 " fill-opacity="1" fill-rule="evenodd"/><path fill="#ff5a19" d="M 17.425781 25.609375 C 13.390625 25.609375 10.054688 22.578125 9.617188 18.699219 C 9.566406 18.238281 9.925781 17.835938 10.390625 17.835938 C 10.789062 17.835938 11.121094 18.136719 11.164062 18.527344 C 11.515625 21.640625 14.191406 24.066406 17.425781 24.066406 C 20.664062 24.066406 23.339844 21.640625 23.6875 18.527344 C 23.730469 18.136719 24.0625 17.835938 24.460938 17.835938 C 24.929688 17.835938 25.289062 18.238281 25.234375 18.699219 C 24.800781 22.578125 21.464844 25.609375 17.425781 25.609375 Z M 17.425781 25.609375 " fill-opacity="1" fill-rule="nonzero"/><g fill="#3a003d" fill-opacity="1"><g transform="translate(47.595109, 24.761181)"><g><path d="M 11.859375 -1.78125 C 12.046875 -1.945312 12.210938 -2.015625 12.359375 -1.984375 C 12.515625 -1.953125 12.59375 -1.804688 12.59375 -1.546875 C 12.59375 -1.472656 12.570312 -1.394531 12.53125 -1.3125 C 12.5 -1.238281 12.457031 -1.171875 12.40625 -1.109375 C 12.363281 -1.046875 12.296875 -0.976562 12.203125 -0.90625 C 12.117188 -0.832031 12.050781 -0.773438 12 -0.734375 C 11.957031 -0.703125 11.882812 -0.648438 11.78125 -0.578125 C 11.675781 -0.515625 11.613281 -0.472656 11.59375 -0.453125 C 11.382812 -0.304688 11.164062 -0.1875 10.9375 -0.09375 C 10.90625 -0.0820312 10.828125 -0.046875 10.703125 0.015625 C 10.585938 0.0859375 10.46875 0.15625 10.34375 0.21875 C 10.226562 0.28125 10.085938 0.347656 9.921875 0.421875 C 9.765625 0.492188 9.625 0.546875 9.5 0.578125 C 9.375 0.617188 9.242188 0.648438 9.109375 0.671875 C 8.972656 0.691406 8.878906 0.675781 8.828125 0.625 C 8.484375 0.601562 8.039062 0.4375 7.5 0.125 C 6.769531 -0.300781 6.359375 -0.710938 6.265625 -1.109375 C 6.179688 -1.367188 6.09375 -1.5 6 -1.5 C 5.90625 -1.5 5.40625 -1.128906 4.5 -0.390625 C 3.738281 0.191406 3.1875 0.550781 2.84375 0.6875 C 2.5 0.832031 2.164062 0.8125 1.84375 0.625 C 1.53125 0.46875 1.238281 0.222656 0.96875 -0.109375 C 0.707031 -0.453125 0.578125 -0.742188 0.578125 -0.984375 C 0.578125 -1.265625 0.65625 -1.695312 0.8125 -2.28125 C 0.976562 -2.863281 1.109375 -3.203125 1.203125 -3.296875 C 1.316406 -3.421875 1.375 -3.628906 1.375 -3.921875 C 1.375 -4.078125 1.453125 -4.296875 1.609375 -4.578125 C 1.765625 -4.867188 1.84375 -5.101562 1.84375 -5.28125 C 1.84375 -5.507812 1.894531 -5.660156 2 -5.734375 C 2.113281 -5.804688 2.332031 -6.1875 2.65625 -6.875 C 2.976562 -7.5625 3.203125 -8.132812 3.328125 -8.59375 C 3.429688 -8.96875 3.585938 -9.3125 3.796875 -9.625 C 4.003906 -9.945312 4.15625 -10.082031 4.25 -10.03125 C 4.34375 -9.976562 4.765625 -10.257812 5.515625 -10.875 C 6.109375 -11.363281 6.597656 -11.71875 6.984375 -11.9375 C 7.367188 -12.15625 7.867188 -12.363281 8.484375 -12.5625 C 9.023438 -12.726562 9.363281 -12.804688 9.5 -12.796875 C 9.625 -12.773438 9.859375 -12.625 10.203125 -12.34375 C 10.453125 -12.144531 10.613281 -11.976562 10.6875 -11.84375 C 10.757812 -11.707031 10.796875 -11.5 10.796875 -11.21875 C 10.796875 -10.789062 10.585938 -10.070312 10.171875 -9.0625 C 10.066406 -8.84375 9.894531 -8.398438 9.65625 -7.734375 C 9.445312 -7.066406 9.238281 -6.5625 9.03125 -6.21875 C 8.851562 -5.914062 8.726562 -5.535156 8.65625 -5.078125 C 8.59375 -4.679688 8.503906 -4.363281 8.390625 -4.125 C 8.367188 -4.070312 8.210938 -3.644531 7.921875 -2.84375 C 7.753906 -2.394531 7.664062 -2.09375 7.65625 -1.9375 C 7.65625 -1.78125 7.710938 -1.59375 7.828125 -1.375 C 8.003906 -1.039062 8.210938 -0.875 8.453125 -0.875 C 8.722656 -0.84375 8.984375 -0.710938 9.234375 -0.484375 C 9.242188 -0.472656 9.253906 -0.460938 9.265625 -0.453125 C 9.273438 -0.453125 9.285156 -0.445312 9.296875 -0.4375 C 9.304688 -0.425781 9.316406 -0.421875 9.328125 -0.421875 C 9.410156 -0.460938 9.554688 -0.519531 9.765625 -0.59375 C 9.984375 -0.664062 10.128906 -0.722656 10.203125 -0.765625 C 10.898438 -1.128906 11.453125 -1.46875 11.859375 -1.78125 Z M 6.9375 -5.734375 C 7.25 -6.203125 7.476562 -6.664062 7.625 -7.125 C 7.84375 -7.769531 8.023438 -8.207031 8.171875 -8.4375 C 8.316406 -8.65625 8.390625 -8.882812 8.390625 -9.125 C 8.390625 -9.34375 8.445312 -9.492188 8.5625 -9.578125 C 8.625 -9.617188 8.773438 -9.851562 9.015625 -10.28125 C 9.265625 -10.71875 9.335938 -10.976562 9.234375 -11.0625 C 9.128906 -11.15625 8.875 -11.148438 8.46875 -11.046875 C 8.070312 -10.953125 7.722656 -10.816406 7.421875 -10.640625 C 7.140625 -10.453125 6.804688 -10.140625 6.421875 -9.703125 C 6.035156 -9.273438 5.84375 -8.992188 5.84375 -8.859375 C 5.84375 -8.765625 5.601562 -8.4375 5.125 -7.875 C 4.644531 -7.3125 4.40625 -6.960938 4.40625 -6.828125 C 4.40625 -6.691406 4.222656 -6.367188 3.859375 -5.859375 C 3.484375 -5.296875 3.242188 -4.796875 3.140625 -4.359375 C 2.992188 -3.847656 2.878906 -3.523438 2.796875 -3.390625 C 2.703125 -3.191406 2.65625 -3.023438 2.65625 -2.890625 C 2.65625 -2.734375 2.566406 -2.492188 2.390625 -2.171875 C 2.242188 -1.859375 2.203125 -1.640625 2.265625 -1.515625 C 2.328125 -1.398438 2.515625 -1.34375 2.828125 -1.34375 C 3.023438 -1.34375 3.320312 -1.472656 3.71875 -1.734375 C 4.113281 -2.003906 4.40625 -2.273438 4.59375 -2.546875 C 4.625 -2.554688 4.664062 -2.601562 4.71875 -2.6875 C 4.789062 -2.789062 4.867188 -2.894531 4.953125 -3 C 5.035156 -3.125 5.117188 -3.238281 5.203125 -3.34375 C 6.054688 -4.457031 6.632812 -5.253906 6.9375 -5.734375 Z M 6.9375 -5.734375 "/></g></g></g><g fill="#3a003d" fill-opacity="1"><g transform="translate(58.310001, 24.761181)"><g><path d="M 8.609375 -2.171875 C 8.796875 -2.347656 8.960938 -2.421875 9.109375 -2.390625 C 9.265625 -2.359375 9.34375 -2.21875 9.34375 -1.96875 C 9.34375 -1.894531 9.332031 -1.820312 9.3125 -1.75 C 9.289062 -1.6875 9.253906 -1.625 9.203125 -1.5625 C 9.160156 -1.507812 9.113281 -1.453125 9.0625 -1.390625 C 9.007812 -1.335938 8.945312 -1.285156 8.875 -1.234375 C 8.800781 -1.179688 8.738281 -1.132812 8.6875 -1.09375 C 8.644531 -1.0625 8.582031 -1.019531 8.5 -0.96875 C 8.414062 -0.925781 8.363281 -0.890625 8.34375 -0.859375 C 8.125 -0.710938 7.90625 -0.597656 7.6875 -0.515625 C 7.664062 -0.503906 7.632812 -0.488281 7.59375 -0.46875 C 7.582031 -0.425781 7.550781 -0.390625 7.5 -0.359375 C 7.4375 -0.335938 7.351562 -0.3125 7.25 -0.28125 C 7.039062 -0.164062 6.734375 -0.0820312 6.328125 -0.03125 C 5.929688 0.0078125 5.566406 0.0195312 5.234375 0 C 4.898438 -0.03125 4.6875 -0.0703125 4.59375 -0.125 C 4.507812 -0.175781 4.414062 -0.285156 4.3125 -0.453125 C 4.21875 -0.628906 4.132812 -0.800781 4.0625 -0.96875 C 3.988281 -1.132812 3.941406 -1.265625 3.921875 -1.359375 C 3.859375 -1.617188 3.835938 -1.894531 3.859375 -2.1875 C 3.890625 -2.5 3.941406 -2.976562 4.015625 -3.625 L 4.015625 -3.8125 C 4.015625 -3.851562 4 -3.882812 3.96875 -3.90625 C 3.9375 -3.925781 3.890625 -3.941406 3.828125 -3.953125 C 3.773438 -3.953125 3.707031 -3.953125 3.625 -3.953125 C 3.507812 -3.953125 3.382812 -3.96875 3.25 -4 C 3.113281 -4.039062 2.976562 -4.078125 2.84375 -4.109375 C 2.71875 -4.140625 2.609375 -4.15625 2.515625 -4.15625 C 2.523438 -4.15625 2.492188 -4.015625 2.421875 -3.734375 C 2.347656 -3.453125 2.253906 -3.15625 2.140625 -2.84375 C 2.035156 -2.53125 1.9375 -2.34375 1.84375 -2.28125 C 1.519531 -2.09375 1.179688 -1.960938 0.828125 -1.890625 C 0.359375 -1.773438 0.566406 -2.789062 1.453125 -4.9375 C 1.472656 -4.988281 1.515625 -5.097656 1.578125 -5.265625 C 1.648438 -5.441406 1.703125 -5.5625 1.734375 -5.625 C 1.765625 -5.695312 1.804688 -5.804688 1.859375 -5.953125 C 1.921875 -6.097656 1.960938 -6.21875 1.984375 -6.3125 C 2.015625 -6.40625 2.046875 -6.519531 2.078125 -6.65625 C 2.109375 -6.789062 2.128906 -6.914062 2.140625 -7.03125 C 2.160156 -7.15625 2.171875 -7.28125 2.171875 -7.40625 C 2.171875 -7.550781 2.257812 -7.804688 2.4375 -8.171875 C 2.625 -8.546875 2.769531 -8.773438 2.875 -8.859375 C 3.019531 -8.929688 3.210938 -8.957031 3.453125 -8.9375 C 3.703125 -8.914062 3.867188 -8.859375 3.953125 -8.765625 C 4.054688 -8.628906 4.054688 -8.109375 3.953125 -7.203125 C 3.867188 -6.617188 3.832031 -6.238281 3.84375 -6.0625 C 3.851562 -5.882812 3.90625 -5.742188 4 -5.640625 C 4.101562 -5.546875 4.195312 -5.5 4.28125 -5.5 C 4.363281 -5.507812 4.515625 -5.582031 4.734375 -5.71875 C 5.066406 -5.90625 5.304688 -5.992188 5.453125 -5.984375 C 5.597656 -5.972656 5.734375 -5.867188 5.859375 -5.671875 C 5.960938 -5.535156 6.007812 -5.40625 6 -5.28125 C 5.988281 -5.164062 5.921875 -4.941406 5.796875 -4.609375 C 5.617188 -4.140625 5.457031 -3.597656 5.3125 -2.984375 C 5.207031 -2.503906 5.175781 -2.144531 5.21875 -1.90625 C 5.257812 -1.675781 5.40625 -1.40625 5.65625 -1.09375 C 5.757812 -0.9375 5.84375 -0.847656 5.90625 -0.828125 C 5.9375 -0.828125 5.984375 -0.835938 6.046875 -0.859375 C 6.109375 -0.878906 6.175781 -0.90625 6.25 -0.9375 C 6.332031 -0.96875 6.390625 -0.988281 6.421875 -1 C 6.691406 -1.070312 6.875 -1.128906 6.96875 -1.171875 C 7.65625 -1.523438 8.203125 -1.859375 8.609375 -2.171875 Z M 8.609375 -2.171875 "/></g></g></g><g fill="#3a003d" fill-opacity="1"><g transform="translate(65.755881, 24.761181)"><g><path d="M 6.828125 -1.625 C 7.023438 -1.769531 7.195312 -1.816406 7.34375 -1.765625 C 7.488281 -1.710938 7.550781 -1.5625 7.53125 -1.3125 C 7.519531 -1.25 7.5 -1.179688 7.46875 -1.109375 C 7.4375 -1.046875 7.394531 -0.988281 7.34375 -0.9375 C 7.289062 -0.882812 7.238281 -0.832031 7.1875 -0.78125 C 7.132812 -0.738281 7.066406 -0.691406 6.984375 -0.640625 C 6.910156 -0.597656 6.847656 -0.5625 6.796875 -0.53125 C 6.742188 -0.507812 6.671875 -0.472656 6.578125 -0.421875 C 6.492188 -0.378906 6.441406 -0.351562 6.421875 -0.34375 C 6.191406 -0.21875 5.957031 -0.117188 5.71875 -0.046875 C 5.707031 -0.046875 5.597656 0.015625 5.390625 0.140625 C 5.179688 0.273438 4.941406 0.421875 4.671875 0.578125 C 4.398438 0.742188 4.179688 0.851562 4.015625 0.90625 C 3.773438 0.976562 3.53125 1.035156 3.28125 1.078125 C 3.03125 1.128906 2.765625 1.160156 2.484375 1.171875 C 2.210938 1.191406 1.945312 1.164062 1.6875 1.09375 C 1.4375 1.019531 1.222656 0.910156 1.046875 0.765625 C 0.835938 0.578125 0.664062 0.320312 0.53125 0 C 0.40625 -0.332031 0.320312 -0.6875 0.28125 -1.0625 C 0.25 -1.445312 0.234375 -1.804688 0.234375 -2.140625 C 0.234375 -2.472656 0.242188 -2.789062 0.265625 -3.09375 C 0.273438 -3.132812 0.328125 -3.515625 0.421875 -4.234375 C 0.515625 -4.960938 0.601562 -5.675781 0.6875 -6.375 L 0.828125 -7.40625 C 0.710938 -7.46875 0.507812 -7.515625 0.21875 -7.546875 C 0.0390625 -7.554688 -0.144531 -7.554688 -0.34375 -7.546875 C -0.78125 -7.546875 -1.085938 -7.5625 -1.265625 -7.59375 C -1.296875 -7.59375 -1.34375 -7.59375 -1.40625 -7.59375 C -1.476562 -7.59375 -1.546875 -7.59375 -1.609375 -7.59375 C -1.679688 -7.59375 -1.75 -7.59375 -1.8125 -7.59375 C -1.882812 -7.59375 -1.941406 -7.597656 -1.984375 -7.609375 C -2.023438 -7.628906 -2.050781 -7.65625 -2.0625 -7.6875 C -2.070312 -7.820312 -2.015625 -7.921875 -1.890625 -7.984375 C -1.878906 -7.992188 -1.816406 -8.03125 -1.703125 -8.09375 C -1.585938 -8.164062 -1.46875 -8.234375 -1.34375 -8.296875 C -1.226562 -8.359375 -1.066406 -8.414062 -0.859375 -8.46875 C -0.648438 -8.519531 -0.441406 -8.539062 -0.234375 -8.53125 C 0.441406 -8.46875 0.863281 -8.445312 1.03125 -8.46875 C 1.195312 -8.488281 1.359375 -8.585938 1.515625 -8.765625 C 1.765625 -8.984375 2.085938 -9.566406 2.484375 -10.515625 C 2.503906 -10.554688 2.53125 -10.613281 2.5625 -10.6875 C 2.71875 -11.039062 2.84375 -11.320312 2.9375 -11.53125 C 3.039062 -11.738281 3.179688 -12 3.359375 -12.3125 C 3.535156 -12.632812 3.734375 -12.898438 3.953125 -13.109375 C 4.171875 -13.328125 4.394531 -13.492188 4.625 -13.609375 C 5.382812 -13.972656 5.765625 -13.953125 5.765625 -13.546875 C 5.765625 -13.316406 5.585938 -12.789062 5.234375 -11.96875 C 5.128906 -11.75 5.054688 -11.578125 5.015625 -11.453125 C 4.960938 -11.285156 4.914062 -11.085938 4.875 -10.859375 C 4.84375 -10.640625 4.757812 -10.421875 4.625 -10.203125 C 4.414062 -9.816406 4.238281 -9.5 4.09375 -9.25 C 3.914062 -8.9375 3.851562 -8.753906 3.90625 -8.703125 C 3.945312 -8.628906 4.398438 -8.550781 5.265625 -8.46875 C 5.859375 -8.40625 6.21875 -8.347656 6.34375 -8.296875 C 6.476562 -8.253906 6.539062 -8.171875 6.53125 -8.046875 C 6.507812 -7.878906 6.410156 -7.804688 6.234375 -7.828125 C 6.160156 -7.835938 6.015625 -7.84375 5.796875 -7.84375 C 5.578125 -7.832031 5.335938 -7.816406 5.078125 -7.796875 C 4.804688 -7.785156 4.523438 -7.757812 4.234375 -7.71875 C 3.960938 -7.6875 3.726562 -7.660156 3.53125 -7.640625 C 3.4375 -7.617188 3.304688 -7.332031 3.140625 -6.78125 C 2.984375 -6.226562 2.804688 -5.550781 2.609375 -4.75 C 2.421875 -3.957031 2.28125 -3.425781 2.1875 -3.15625 C 1.726562 -1.789062 1.789062 -0.851562 2.375 -0.34375 C 2.632812 -0.101562 2.875 0.0078125 3.09375 0 C 3.226562 0 3.375 -0.046875 3.53125 -0.140625 C 3.5625 -0.179688 3.65625 -0.238281 3.8125 -0.3125 C 3.96875 -0.382812 4.128906 -0.445312 4.296875 -0.5 C 4.460938 -0.5625 4.632812 -0.625 4.8125 -0.6875 C 4.988281 -0.75 5.078125 -0.78125 5.078125 -0.78125 C 5.796875 -1.0625 6.378906 -1.34375 6.828125 -1.625 Z M 6.828125 -1.625 "/></g></g></g><g fill="#3a003d" fill-opacity="1"><g transform="translate(71.466363, 24.761181)"><g><path d="M 3.21875 -8.171875 C 2.96875 -8.109375 2.71875 -8.195312 2.46875 -8.4375 C 2.300781 -8.601562 2.210938 -8.710938 2.203125 -8.765625 C 2.191406 -8.828125 2.253906 -8.910156 2.390625 -9.015625 C 2.578125 -9.148438 2.816406 -9.21875 3.109375 -9.21875 C 3.398438 -9.21875 3.601562 -9.148438 3.71875 -9.015625 C 3.832031 -8.859375 3.835938 -8.691406 3.734375 -8.515625 C 3.628906 -8.335938 3.457031 -8.222656 3.21875 -8.171875 Z M 5.609375 -1.71875 C 5.671875 -1.613281 5.671875 -1.507812 5.609375 -1.40625 C 5.554688 -1.3125 5.394531 -1.148438 5.125 -0.921875 C 4.707031 -0.566406 4.207031 -0.242188 3.625 0.046875 C 3.195312 0.265625 2.75 0.351562 2.28125 0.3125 C 1.820312 0.269531 1.390625 0.140625 0.984375 -0.078125 C 0.578125 -0.304688 0.226562 -0.597656 -0.0625 -0.953125 C -0.488281 -1.453125 -0.613281 -2.117188 -0.4375 -2.953125 C -0.425781 -3.015625 -0.390625 -3.226562 -0.328125 -3.59375 C -0.273438 -3.96875 -0.21875 -4.296875 -0.15625 -4.578125 C -0.101562 -4.859375 -0.0390625 -5.046875 0.03125 -5.140625 C 0.101562 -5.234375 0.234375 -5.296875 0.421875 -5.328125 C 0.609375 -5.367188 0.800781 -5.375 1 -5.34375 C 1.195312 -5.3125 1.382812 -5.253906 1.5625 -5.171875 C 1.738281 -5.085938 1.859375 -4.972656 1.921875 -4.828125 C 1.992188 -4.679688 1.992188 -4.519531 1.921875 -4.34375 C 1.710938 -3.914062 1.609375 -3.613281 1.609375 -3.4375 C 1.609375 -3.28125 1.519531 -3.082031 1.34375 -2.84375 C 1.1875 -2.65625 1.09375 -2.429688 1.0625 -2.171875 C 1.03125 -1.921875 1.078125 -1.757812 1.203125 -1.6875 C 1.296875 -1.644531 1.34375 -1.53125 1.34375 -1.34375 C 1.34375 -1.1875 1.457031 -1.003906 1.6875 -0.796875 C 1.851562 -0.640625 1.984375 -0.550781 2.078125 -0.53125 C 2.171875 -0.519531 2.34375 -0.546875 2.59375 -0.609375 C 2.957031 -0.742188 3.429688 -1.015625 4.015625 -1.421875 C 4.460938 -1.753906 4.804688 -1.941406 5.046875 -1.984375 C 5.285156 -2.035156 5.472656 -1.945312 5.609375 -1.71875 Z M 5.609375 -1.71875 "/></g></g></g><g fill="#3a003d" fill-opacity="1"><g transform="translate(75.024414, 24.761181)"><g><path d="M 6.921875 -2.546875 C 7.117188 -2.710938 7.289062 -2.78125 7.4375 -2.75 C 7.59375 -2.71875 7.671875 -2.570312 7.671875 -2.3125 C 7.671875 -2.257812 7.660156 -2.203125 7.640625 -2.140625 C 7.617188 -2.078125 7.59375 -2.019531 7.5625 -1.96875 C 7.53125 -1.914062 7.488281 -1.863281 7.4375 -1.8125 C 7.394531 -1.757812 7.347656 -1.710938 7.296875 -1.671875 C 7.242188 -1.628906 7.1875 -1.585938 7.125 -1.546875 C 7.0625 -1.503906 7.007812 -1.46875 6.96875 -1.4375 C 6.925781 -1.40625 6.875 -1.363281 6.8125 -1.3125 C 6.75 -1.269531 6.703125 -1.238281 6.671875 -1.21875 C 6.453125 -1.082031 6.226562 -0.960938 6 -0.859375 C 5.976562 -0.847656 5.929688 -0.828125 5.859375 -0.796875 C 5.617188 -0.546875 5.40625 -0.375 5.21875 -0.28125 C 5.039062 -0.207031 4.800781 -0.160156 4.5 -0.140625 C 4.195312 -0.0546875 3.988281 -0.0664062 3.875 -0.171875 C 3.84375 -0.171875 3.738281 -0.179688 3.5625 -0.203125 C 3.382812 -0.222656 3.265625 -0.234375 3.203125 -0.234375 C 3.140625 -0.234375 3.039062 -0.234375 2.90625 -0.234375 C 2.78125 -0.234375 2.671875 -0.21875 2.578125 -0.1875 C 2.484375 -0.164062 2.390625 -0.132812 2.296875 -0.09375 C 2.179688 -0.0195312 2.035156 0.0078125 1.859375 0 C 1.679688 -0.0078125 1.367188 -0.046875 0.921875 -0.109375 C 0.609375 -0.148438 0.347656 -0.179688 0.140625 -0.203125 C 0.0859375 -0.203125 0.0351562 -0.203125 -0.015625 -0.203125 C -0.0664062 -0.203125 -0.125 -0.203125 -0.1875 -0.203125 C -0.25 -0.210938 -0.300781 -0.226562 -0.34375 -0.25 C -0.4375 -0.3125 -0.554688 -0.554688 -0.703125 -0.984375 C -0.785156 -1.222656 -0.832031 -1.472656 -0.84375 -1.734375 C -0.863281 -1.835938 -0.863281 -1.921875 -0.84375 -1.984375 C -0.800781 -2.210938 -0.726562 -2.351562 -0.625 -2.40625 C -0.59375 -2.425781 -0.523438 -2.441406 -0.421875 -2.453125 C -0.328125 -2.472656 -0.257812 -2.507812 -0.21875 -2.5625 C -0.132812 -2.625 -0.0664062 -2.722656 -0.015625 -2.859375 C 0.0351562 -3.015625 0.0664062 -3.175781 0.078125 -3.34375 C 0.0859375 -3.476562 0.101562 -3.570312 0.125 -3.625 C 0.15625 -3.675781 0.222656 -3.734375 0.328125 -3.796875 C 0.429688 -3.859375 0.488281 -3.894531 0.5 -3.90625 C 0.601562 -3.988281 0.695312 -4.109375 0.78125 -4.265625 C 0.8125 -4.347656 0.882812 -4.597656 1 -5.015625 C 1.09375 -5.347656 1.171875 -5.691406 1.234375 -6.046875 C 1.296875 -6.378906 1.34375 -6.671875 1.375 -6.921875 C 1.414062 -7.472656 1.472656 -7.796875 1.546875 -7.890625 C 1.628906 -7.992188 1.773438 -8.039062 1.984375 -8.03125 C 2.191406 -8.03125 2.375 -7.972656 2.53125 -7.859375 C 2.601562 -7.816406 2.664062 -7.742188 2.71875 -7.640625 C 2.78125 -7.535156 2.820312 -7.441406 2.84375 -7.359375 C 2.875 -7.273438 2.910156 -7.160156 2.953125 -7.015625 C 2.992188 -6.878906 3.023438 -6.785156 3.046875 -6.734375 C 3.203125 -6.253906 3.316406 -5.804688 3.390625 -5.390625 C 3.421875 -5.234375 3.453125 -5 3.484375 -4.6875 C 3.515625 -4.375 3.550781 -4.09375 3.59375 -3.84375 C 3.644531 -3.59375 3.710938 -3.359375 3.796875 -3.140625 C 3.941406 -2.753906 3.988281 -2.398438 3.9375 -2.078125 C 3.914062 -1.890625 3.90625 -1.707031 3.90625 -1.53125 C 3.90625 -1.363281 3.957031 -1.222656 4.0625 -1.109375 C 4.175781 -1.003906 4.351562 -0.960938 4.59375 -0.984375 C 4.6875 -0.992188 4.78125 -1.015625 4.875 -1.046875 C 4.976562 -1.085938 5.0625 -1.125 5.125 -1.15625 C 5.195312 -1.1875 5.285156 -1.242188 5.390625 -1.328125 C 5.492188 -1.410156 5.5625 -1.46875 5.59375 -1.5 C 5.632812 -1.53125 5.710938 -1.597656 5.828125 -1.703125 C 5.960938 -1.828125 6.171875 -1.988281 6.453125 -2.1875 C 6.734375 -2.394531 6.890625 -2.515625 6.921875 -2.546875 Z M 2.015625 -1.625 C 2.421875 -1.71875 2.660156 -1.914062 2.734375 -2.21875 C 2.804688 -2.53125 2.726562 -3.03125 2.5 -3.71875 C 2.28125 -4.375 2.140625 -4.703125 2.078125 -4.703125 C 2.015625 -4.703125 1.960938 -4.578125 1.921875 -4.328125 C 1.867188 -4.097656 1.800781 -3.929688 1.71875 -3.828125 C 1.613281 -3.671875 1.441406 -3.34375 1.203125 -2.84375 C 0.972656 -2.34375 0.878906 -2.066406 0.921875 -2.015625 C 0.960938 -1.953125 1.050781 -1.882812 1.1875 -1.8125 C 1.320312 -1.738281 1.46875 -1.679688 1.625 -1.640625 C 1.78125 -1.609375 1.910156 -1.601562 2.015625 -1.625 Z M 2.015625 -1.625 "/></g></g></g><g fill="#3a003d" fill-opacity="1"><g transform="translate(80.896334, 24.761181)"><g><path d="M 8.609375 -1.640625 C 8.773438 -1.773438 8.921875 -1.832031 9.046875 -1.8125 C 9.171875 -1.789062 9.234375 -1.671875 9.234375 -1.453125 C 9.234375 -1.410156 9.222656 -1.363281 9.203125 -1.3125 C 9.179688 -1.257812 9.160156 -1.210938 9.140625 -1.171875 C 9.117188 -1.128906 9.082031 -1.085938 9.03125 -1.046875 C 8.988281 -1.003906 8.945312 -0.960938 8.90625 -0.921875 C 8.875 -0.890625 8.832031 -0.851562 8.78125 -0.8125 C 8.726562 -0.769531 8.679688 -0.738281 8.640625 -0.71875 C 8.609375 -0.695312 8.566406 -0.664062 8.515625 -0.625 C 8.460938 -0.59375 8.421875 -0.566406 8.390625 -0.546875 C 8.222656 -0.429688 8.046875 -0.332031 7.859375 -0.25 C 7.835938 -0.238281 7.726562 -0.1875 7.53125 -0.09375 L 7.46875 -0.015625 C 7.226562 0.222656 6.878906 0.367188 6.421875 0.421875 C 6.128906 0.453125 5.90625 0.453125 5.75 0.421875 C 5.59375 0.390625 5.375 0.3125 5.09375 0.1875 C 4.6875 -0.0078125 4.414062 -0.171875 4.28125 -0.296875 C 4.1875 -0.367188 4.109375 -0.398438 4.046875 -0.390625 C 3.984375 -0.378906 3.867188 -0.304688 3.703125 -0.171875 C 3.148438 0.222656 2.492188 0.441406 1.734375 0.484375 C 0.984375 0.535156 0.488281 0.390625 0.25 0.046875 C 0.113281 -0.179688 0.0507812 -0.617188 0.0625 -1.265625 C 0.0703125 -1.910156 0.15625 -2.375 0.3125 -2.65625 C 0.445312 -2.894531 0.550781 -3.070312 0.625 -3.1875 C 0.695312 -3.300781 0.769531 -3.410156 0.84375 -3.515625 C 0.914062 -3.617188 1.035156 -3.773438 1.203125 -3.984375 C 1.773438 -4.679688 2.222656 -5.160156 2.546875 -5.421875 C 2.796875 -5.617188 3.085938 -5.785156 3.421875 -5.921875 C 3.765625 -6.066406 4.125 -6.160156 4.5 -6.203125 C 4.875 -6.242188 5.203125 -6.191406 5.484375 -6.046875 C 5.835938 -5.867188 6.050781 -5.5625 6.125 -5.125 C 6.207031 -4.695312 6.195312 -4.273438 6.09375 -3.859375 C 6 -3.453125 5.863281 -3.070312 5.6875 -2.71875 C 5.539062 -2.375 5.425781 -2 5.34375 -1.59375 C 5.269531 -1.195312 5.273438 -0.9375 5.359375 -0.8125 C 5.523438 -0.46875 6.082031 -0.441406 7.03125 -0.734375 C 7.070312 -0.742188 7.109375 -0.75 7.140625 -0.75 C 7.191406 -0.769531 7.234375 -0.789062 7.265625 -0.8125 C 7.835938 -1.101562 8.285156 -1.378906 8.609375 -1.640625 Z M 4.546875 -4.171875 C 4.640625 -4.222656 4.691406 -4.265625 4.703125 -4.296875 C 4.710938 -4.335938 4.691406 -4.382812 4.640625 -4.4375 C 4.535156 -4.550781 4.382812 -4.625 4.1875 -4.65625 C 3.988281 -4.695312 3.796875 -4.691406 3.609375 -4.640625 C 3.421875 -4.597656 3.132812 -4.414062 2.75 -4.09375 C 2.363281 -3.78125 2.109375 -3.515625 1.984375 -3.296875 C 1.796875 -3.035156 1.640625 -2.800781 1.515625 -2.59375 C 1.367188 -2.382812 1.265625 -2.070312 1.203125 -1.65625 C 1.148438 -1.238281 1.175781 -0.96875 1.28125 -0.84375 C 1.363281 -0.738281 1.554688 -0.6875 1.859375 -0.6875 C 2.171875 -0.6875 2.460938 -0.734375 2.734375 -0.828125 C 2.992188 -0.953125 3.1875 -1.144531 3.3125 -1.40625 C 3.519531 -1.820312 3.691406 -2.160156 3.828125 -2.421875 C 4.066406 -2.828125 4.1875 -3.097656 4.1875 -3.234375 C 4.1875 -3.328125 4.222656 -3.421875 4.296875 -3.515625 C 4.367188 -3.609375 4.390625 -3.710938 4.359375 -3.828125 C 4.316406 -3.960938 4.378906 -4.078125 4.546875 -4.171875 Z M 4.546875 -4.171875 "/></g></g></g><g fill="#3a003d" fill-opacity="1"><g transform="translate(88.375847, 24.761181)"><g><path d="M -0.546875 -1.859375 C -0.410156 -2.097656 -0.132812 -2.648438 0.28125 -3.515625 C 0.695312 -4.378906 1.050781 -4.988281 1.34375 -5.34375 C 1.382812 -5.40625 1.4375 -5.460938 1.5 -5.515625 C 1.601562 -5.628906 1.75 -5.710938 1.9375 -5.765625 C 2.125 -5.828125 2.296875 -5.828125 2.453125 -5.765625 C 2.503906 -5.722656 2.539062 -5.625 2.5625 -5.46875 C 2.582031 -5.320312 2.613281 -5.242188 2.65625 -5.234375 C 2.726562 -5.222656 2.882812 -5.300781 3.125 -5.46875 C 3.53125 -5.757812 4.179688 -6 5.078125 -6.1875 C 5.429688 -6.28125 5.660156 -6.316406 5.765625 -6.296875 C 5.878906 -6.273438 6.015625 -6.191406 6.171875 -6.046875 C 6.378906 -5.847656 6.488281 -5.597656 6.5 -5.296875 C 6.507812 -5.003906 6.410156 -4.726562 6.203125 -4.46875 C 6.046875 -4.238281 5.847656 -3.789062 5.609375 -3.125 C 5.367188 -2.46875 5.25 -2.015625 5.25 -1.765625 C 5.25 -1.585938 5.304688 -1.390625 5.421875 -1.171875 C 5.546875 -0.960938 5.695312 -0.785156 5.875 -0.640625 C 6.050781 -0.503906 6.207031 -0.4375 6.34375 -0.4375 C 6.5625 -0.4375 7.015625 -0.613281 7.703125 -0.96875 C 8.398438 -1.332031 8.945312 -1.675781 9.34375 -2 C 9.632812 -2.226562 9.84375 -2.332031 9.96875 -2.3125 C 10.09375 -2.300781 10.15625 -2.171875 10.15625 -1.921875 C 10.15625 -1.816406 10.109375 -1.691406 10.015625 -1.546875 C 9.921875 -1.410156 9.796875 -1.265625 9.640625 -1.109375 C 9.484375 -0.972656 9.296875 -0.828125 9.078125 -0.671875 C 8.867188 -0.523438 8.648438 -0.410156 8.421875 -0.328125 C 7.828125 -0.046875 7.398438 0.15625 7.140625 0.28125 C 6.691406 0.488281 6.296875 0.546875 5.953125 0.453125 C 5.609375 0.367188 5.203125 0.09375 4.734375 -0.375 C 4.359375 -0.75 4.132812 -1.003906 4.0625 -1.140625 C 4 -1.285156 3.96875 -1.554688 3.96875 -1.953125 C 3.96875 -2.523438 4.070312 -3.117188 4.28125 -3.734375 C 4.457031 -4.359375 4.53125 -4.695312 4.5 -4.75 C 4.4375 -4.800781 4.066406 -4.507812 3.390625 -3.875 C 2.722656 -3.25 2.066406 -2.582031 1.421875 -1.875 C 0.773438 -1.175781 0.453125 -0.769531 0.453125 -0.65625 C 0.453125 -0.570312 0.394531 -0.472656 0.28125 -0.359375 C 0.175781 -0.253906 0.046875 -0.164062 -0.109375 -0.09375 C -0.273438 -0.03125 -0.421875 -0.015625 -0.546875 -0.046875 C -0.753906 -0.0664062 -0.898438 -0.226562 -0.984375 -0.53125 C -1.046875 -0.726562 -1.050781 -0.898438 -1 -1.046875 C -0.957031 -1.203125 -0.804688 -1.472656 -0.546875 -1.859375 Z M -0.546875 -1.859375 "/></g></g></g><g fill="#3a003d" fill-opacity="1"><g transform="translate(96.897945, 24.761181)"><g><path d="M 6.921875 -2.546875 C 7.117188 -2.710938 7.289062 -2.78125 7.4375 -2.75 C 7.59375 -2.71875 7.671875 -2.570312 7.671875 -2.3125 C 7.671875 -2.257812 7.660156 -2.203125 7.640625 -2.140625 C 7.617188 -2.078125 7.59375 -2.019531 7.5625 -1.96875 C 7.53125 -1.914062 7.488281 -1.863281 7.4375 -1.8125 C 7.394531 -1.757812 7.347656 -1.710938 7.296875 -1.671875 C 7.242188 -1.628906 7.1875 -1.585938 7.125 -1.546875 C 7.0625 -1.503906 7.007812 -1.46875 6.96875 -1.4375 C 6.925781 -1.40625 6.875 -1.363281 6.8125 -1.3125 C 6.75 -1.269531 6.703125 -1.238281 6.671875 -1.21875 C 6.453125 -1.082031 6.226562 -0.960938 6 -0.859375 C 5.976562 -0.847656 5.929688 -0.828125 5.859375 -0.796875 C 5.617188 -0.546875 5.40625 -0.375 5.21875 -0.28125 C 5.039062 -0.207031 4.800781 -0.160156 4.5 -0.140625 C 4.195312 -0.0546875 3.988281 -0.0664062 3.875 -0.171875 C 3.84375 -0.171875 3.738281 -0.179688 3.5625 -0.203125 C 3.382812 -0.222656 3.265625 -0.234375 3.203125 -0.234375 C 3.140625 -0.234375 3.039062 -0.234375 2.90625 -0.234375 C 2.78125 -0.234375 2.671875 -0.21875 2.578125 -0.1875 C 2.484375 -0.164062 2.390625 -0.132812 2.296875 -0.09375 C 2.179688 -0.0195312 2.035156 0.0078125 1.859375 0 C 1.679688 -0.0078125 1.367188 -0.046875 0.921875 -0.109375 C 0.609375 -0.148438 0.347656 -0.179688 0.140625 -0.203125 C 0.0859375 -0.203125 0.0351562 -0.203125 -0.015625 -0.203125 C -0.0664062 -0.203125 -0.125 -0.203125 -0.1875 -0.203125 C -0.25 -0.210938 -0.300781 -0.226562 -0.34375 -0.25 C -0.4375 -0.3125 -0.554688 -0.554688 -0.703125 -0.984375 C -0.785156 -1.222656 -0.832031 -1.472656 -0.84375 -1.734375 C -0.863281 -1.835938 -0.863281 -1.921875 -0.84375 -1.984375 C -0.800781 -2.210938 -0.726562 -2.351562 -0.625 -2.40625 C -0.59375 -2.425781 -0.523438 -2.441406 -0.421875 -2.453125 C -0.328125 -2.472656 -0.257812 -2.507812 -0.21875 -2.5625 C -0.132812 -2.625 -0.0664062 -2.722656 -0.015625 -2.859375 C 0.0351562 -3.015625 0.0664062 -3.175781 0.078125 -3.34375 C 0.0859375 -3.476562 0.101562 -3.570312 0.125 -3.625 C 0.15625 -3.675781 0.222656 -3.734375 0.328125 -3.796875 C 0.429688 -3.859375 0.488281 -3.894531 0.5 -3.90625 C 0.601562 -3.988281 0.695312 -4.109375 0.78125 -4.265625 C 0.8125 -4.347656 0.882812 -4.597656 1 -5.015625 C 1.09375 -5.347656 1.171875 -5.691406 1.234375 -6.046875 C 1.296875 -6.378906 1.34375 -6.671875 1.375 -6.921875 C 1.414062 -7.472656 1.472656 -7.796875 1.546875 -7.890625 C 1.628906 -7.992188 1.773438 -8.039062 1.984375 -8.03125 C 2.191406 -8.03125 2.375 -7.972656 2.53125 -7.859375 C 2.601562 -7.816406 2.664062 -7.742188 2.71875 -7.640625 C 2.78125 -7.535156 2.820312 -7.441406 2.84375 -7.359375 C 2.875 -7.273438 2.910156 -7.160156 2.953125 -7.015625 C 2.992188 -6.878906 3.023438 -6.785156 3.046875 -6.734375 C 3.203125 -6.253906 3.316406 -5.804688 3.390625 -5.390625 C 3.421875 -5.234375 3.453125 -5 3.484375 -4.6875 C 3.515625 -4.375 3.550781 -4.09375 3.59375 -3.84375 C 3.644531 -3.59375 3.710938 -3.359375 3.796875 -3.140625 C 3.941406 -2.753906 3.988281 -2.398438 3.9375 -2.078125 C 3.914062 -1.890625 3.90625 -1.707031 3.90625 -1.53125 C 3.90625 -1.363281 3.957031 -1.222656 4.0625 -1.109375 C 4.175781 -1.003906 4.351562 -0.960938 4.59375 -0.984375 C 4.6875 -0.992188 4.78125 -1.015625 4.875 -1.046875 C 4.976562 -1.085938 5.0625 -1.125 5.125 -1.15625 C 5.195312 -1.1875 5.285156 -1.242188 5.390625 -1.328125 C 5.492188 -1.410156 5.5625 -1.46875 5.59375 -1.5 C 5.632812 -1.53125 5.710938 -1.597656 5.828125 -1.703125 C 5.960938 -1.828125 6.171875 -1.988281 6.453125 -2.1875 C 6.734375 -2.394531 6.890625 -2.515625 6.921875 -2.546875 Z M 2.015625 -1.625 C 2.421875 -1.71875 2.660156 -1.914062 2.734375 -2.21875 C 2.804688 -2.53125 2.726562 -3.03125 2.5 -3.71875 C 2.28125 -4.375 2.140625 -4.703125 2.078125 -4.703125 C 2.015625 -4.703125 1.960938 -4.578125 1.921875 -4.328125 C 1.867188 -4.097656 1.800781 -3.929688 1.71875 -3.828125 C 1.613281 -3.671875 1.441406 -3.34375 1.203125 -2.84375 C 0.972656 -2.34375 0.878906 -2.066406 0.921875 -2.015625 C 0.960938 -1.953125 1.050781 -1.882812 1.1875 -1.8125 C 1.320312 -1.738281 1.46875 -1.679688 1.625 -1.640625 C 1.78125 -1.609375 1.910156 -1.601562 2.015625 -1.625 Z M 2.015625 -1.625 "/></g></g></g><g fill="#ff5a19" fill-opacity="1"><g transform="translate(48.27951, 38.905034)"><g><path d="M 9.375 -4.234375 C 9.375 -4.097656 9.363281 -3.898438 9.34375 -3.640625 L 2.609375 -3.640625 C 2.734375 -3.015625 3.039062 -2.515625 3.53125 -2.140625 C 4.03125 -1.773438 4.648438 -1.59375 5.390625 -1.59375 C 6.328125 -1.59375 7.101562 -1.898438 7.71875 -2.515625 L 8.796875 -1.28125 C 8.410156 -0.820312 7.921875 -0.472656 7.328125 -0.234375 C 6.742188 -0.00390625 6.082031 0.109375 5.34375 0.109375 C 4.40625 0.109375 3.578125 -0.078125 2.859375 -0.453125 C 2.140625 -0.828125 1.582031 -1.347656 1.1875 -2.015625 C 0.800781 -2.679688 0.609375 -3.4375 0.609375 -4.28125 C 0.609375 -5.113281 0.796875 -5.863281 1.171875 -6.53125 C 1.554688 -7.207031 2.082031 -7.734375 2.75 -8.109375 C 3.425781 -8.484375 4.1875 -8.671875 5.03125 -8.671875 C 5.875 -8.671875 6.625 -8.484375 7.28125 -8.109375 C 7.9375 -7.742188 8.445312 -7.222656 8.8125 -6.546875 C 9.1875 -5.878906 9.375 -5.109375 9.375 -4.234375 Z M 5.03125 -7.0625 C 4.394531 -7.0625 3.851562 -6.867188 3.40625 -6.484375 C 2.96875 -6.109375 2.695312 -5.601562 2.59375 -4.96875 L 7.46875 -4.96875 C 7.375 -5.59375 7.109375 -6.097656 6.671875 -6.484375 C 6.234375 -6.867188 5.6875 -7.0625 5.03125 -7.0625 Z M 5.03125 -7.0625 "/></g></g></g><g fill="#ff5a19" fill-opacity="1"><g transform="translate(57.150288, 38.905034)"><g><path d="M 0.875 -5.296875 L 5.296875 -5.296875 L 5.296875 -3.625 L 0.875 -3.625 Z M 0.875 -5.296875 "/></g></g></g><g fill="#ff5a19" fill-opacity="1"><g transform="translate(62.219207, 38.905034)"><g><path d="M 4.984375 0.15625 C 4.117188 0.15625 3.28125 0.0351562 2.46875 -0.203125 C 1.664062 -0.453125 1.03125 -0.78125 0.5625 -1.1875 L 1.28125 -2.8125 C 1.738281 -2.445312 2.300781 -2.148438 2.96875 -1.921875 C 3.644531 -1.691406 4.316406 -1.578125 4.984375 -1.578125 C 5.828125 -1.578125 6.453125 -1.707031 6.859375 -1.96875 C 7.273438 -2.238281 7.484375 -2.59375 7.484375 -3.03125 C 7.484375 -3.351562 7.363281 -3.617188 7.125 -3.828125 C 6.894531 -4.035156 6.601562 -4.195312 6.25 -4.3125 C 5.90625 -4.4375 5.425781 -4.570312 4.8125 -4.71875 C 3.957031 -4.914062 3.265625 -5.113281 2.734375 -5.3125 C 2.203125 -5.519531 1.742188 -5.84375 1.359375 -6.28125 C 0.984375 -6.71875 0.796875 -7.304688 0.796875 -8.046875 C 0.796875 -8.660156 0.960938 -9.222656 1.296875 -9.734375 C 1.640625 -10.242188 2.148438 -10.644531 2.828125 -10.9375 C 3.503906 -11.238281 4.335938 -11.390625 5.328125 -11.390625 C 6.015625 -11.390625 6.6875 -11.300781 7.34375 -11.125 C 8.007812 -10.957031 8.582031 -10.710938 9.0625 -10.390625 L 8.40625 -8.78125 C 7.914062 -9.0625 7.398438 -9.273438 6.859375 -9.421875 C 6.328125 -9.578125 5.8125 -9.65625 5.3125 -9.65625 C 4.488281 -9.65625 3.875 -9.515625 3.46875 -9.234375 C 3.070312 -8.960938 2.875 -8.597656 2.875 -8.140625 C 2.875 -7.816406 2.988281 -7.550781 3.21875 -7.34375 C 3.445312 -7.144531 3.738281 -6.984375 4.09375 -6.859375 C 4.445312 -6.742188 4.925781 -6.613281 5.53125 -6.46875 C 6.363281 -6.269531 7.046875 -6.066406 7.578125 -5.859375 C 8.117188 -5.648438 8.578125 -5.332031 8.953125 -4.90625 C 9.335938 -4.476562 9.53125 -3.898438 9.53125 -3.171875 C 9.53125 -2.554688 9.359375 -1.992188 9.015625 -1.484375 C 8.679688 -0.984375 8.171875 -0.582031 7.484375 -0.28125 C 6.804688 0.0078125 5.972656 0.15625 4.984375 0.15625 Z M 4.984375 0.15625 "/></g></g></g><g fill="#ff5a19" fill-opacity="1"><g transform="translate(71.202278, 38.905034)"><g><path d="M 6.171875 -8.671875 C 7.253906 -8.671875 8.117188 -8.351562 8.765625 -7.71875 C 9.421875 -7.082031 9.75 -6.144531 9.75 -4.90625 L 9.75 0 L 7.75 0 L 7.75 -4.65625 C 7.75 -5.40625 7.570312 -5.96875 7.21875 -6.34375 C 6.863281 -6.726562 6.363281 -6.921875 5.71875 -6.921875 C 4.976562 -6.921875 4.394531 -6.695312 3.96875 -6.25 C 3.539062 -5.800781 3.328125 -5.160156 3.328125 -4.328125 L 3.328125 0 L 1.3125 0 L 1.3125 -11.90625 L 3.328125 -11.90625 L 3.328125 -7.578125 C 3.648438 -7.929688 4.054688 -8.203125 4.546875 -8.390625 C 5.035156 -8.578125 5.578125 -8.671875 6.171875 -8.671875 Z M 6.171875 -8.671875 "/></g></g></g><g fill="#ff5a19" fill-opacity="1"><g transform="translate(81.083679, 38.905034)"><g><path d="M 5.171875 0.109375 C 4.304688 0.109375 3.523438 -0.078125 2.828125 -0.453125 C 2.128906 -0.828125 1.582031 -1.347656 1.1875 -2.015625 C 0.800781 -2.679688 0.609375 -3.4375 0.609375 -4.28125 C 0.609375 -5.125 0.800781 -5.878906 1.1875 -6.546875 C 1.582031 -7.210938 2.128906 -7.734375 2.828125 -8.109375 C 3.523438 -8.484375 4.304688 -8.671875 5.171875 -8.671875 C 6.046875 -8.671875 6.828125 -8.484375 7.515625 -8.109375 C 8.210938 -7.734375 8.753906 -7.210938 9.140625 -6.546875 C 9.535156 -5.878906 9.734375 -5.125 9.734375 -4.28125 C 9.734375 -3.4375 9.535156 -2.679688 9.140625 -2.015625 C 8.753906 -1.347656 8.210938 -0.828125 7.515625 -0.453125 C 6.828125 -0.078125 6.046875 0.109375 5.171875 0.109375 Z M 5.171875 -1.609375 C 5.910156 -1.609375 6.519531 -1.851562 7 -2.34375 C 7.476562 -2.832031 7.71875 -3.476562 7.71875 -4.28125 C 7.71875 -5.082031 7.476562 -5.726562 7 -6.21875 C 6.519531 -6.71875 5.910156 -6.96875 5.171875 -6.96875 C 4.429688 -6.96875 3.820312 -6.71875 3.34375 -6.21875 C 2.863281 -5.726562 2.625 -5.082031 2.625 -4.28125 C 2.625 -3.476562 2.863281 -2.832031 3.34375 -2.34375 C 3.820312 -1.851562 4.429688 -1.609375 5.171875 -1.609375 Z M 5.171875 -1.609375 "/></g></g></g><g fill="#ff5a19" fill-opacity="1"><g transform="translate(90.323415, 38.905034)"><g><path d="M 6.0625 -8.671875 C 6.894531 -8.671875 7.640625 -8.488281 8.296875 -8.125 C 8.960938 -7.757812 9.484375 -7.242188 9.859375 -6.578125 C 10.234375 -5.910156 10.421875 -5.144531 10.421875 -4.28125 C 10.421875 -3.414062 10.234375 -2.648438 9.859375 -1.984375 C 9.484375 -1.316406 8.960938 -0.800781 8.296875 -0.4375 C 7.640625 -0.0703125 6.894531 0.109375 6.0625 0.109375 C 4.90625 0.109375 3.992188 -0.273438 3.328125 -1.046875 L 3.328125 3.109375 L 1.3125 3.109375 L 1.3125 -8.5625 L 3.21875 -8.5625 L 3.21875 -7.453125 C 3.550781 -7.859375 3.960938 -8.160156 4.453125 -8.359375 C 4.941406 -8.566406 5.476562 -8.671875 6.0625 -8.671875 Z M 5.84375 -1.609375 C 6.582031 -1.609375 7.1875 -1.851562 7.65625 -2.34375 C 8.132812 -2.832031 8.375 -3.476562 8.375 -4.28125 C 8.375 -5.082031 8.132812 -5.726562 7.65625 -6.21875 C 7.1875 -6.71875 6.582031 -6.96875 5.84375 -6.96875 C 5.363281 -6.96875 4.929688 -6.859375 4.546875 -6.640625 C 4.160156 -6.421875 3.851562 -6.109375 3.625 -5.703125 C 3.40625 -5.296875 3.296875 -4.820312 3.296875 -4.28125 C 3.296875 -3.75 3.40625 -3.28125 3.625 -2.875 C 3.851562 -2.46875 4.160156 -2.15625 4.546875 -1.9375 C 4.929688 -1.71875 5.363281 -1.609375 5.84375 -1.609375 Z M 5.84375 -1.609375 "/></g></g></g><g mask="url(#7c06a367ca)"><g transform="matrix(1, 0, 0, 1, 12, 35)"><g clip-path="url(#a8a6e705c4)"><g clip-path="url(#4971f6c68d)"><g fill="#ffffff" fill-opacity="1"><g transform="translate(0.495151, 3.740391)"><g><path d="M 1.6875 -0.25 C 1.71875 -0.28125 1.742188 -0.289062 1.765625 -0.28125 C 1.785156 -0.28125 1.796875 -0.257812 1.796875 -0.21875 C 1.796875 -0.207031 1.789062 -0.195312 1.78125 -0.1875 C 1.78125 -0.175781 1.773438 -0.164062 1.765625 -0.15625 C 1.765625 -0.144531 1.753906 -0.132812 1.734375 -0.125 C 1.722656 -0.113281 1.710938 -0.101562 1.703125 -0.09375 C 1.703125 -0.09375 1.691406 -0.0859375 1.671875 -0.078125 C 1.660156 -0.0664062 1.65625 -0.0625 1.65625 -0.0625 C 1.625 -0.0390625 1.59375 -0.0234375 1.5625 -0.015625 C 1.550781 -0.015625 1.535156 -0.0078125 1.515625 0 C 1.503906 0.0078125 1.488281 0.0195312 1.46875 0.03125 C 1.457031 0.0390625 1.441406 0.0507812 1.421875 0.0625 C 1.398438 0.0703125 1.378906 0.078125 1.359375 0.078125 C 1.335938 0.0859375 1.316406 0.09375 1.296875 0.09375 C 1.273438 0.09375 1.265625 0.09375 1.265625 0.09375 C 1.210938 0.0820312 1.148438 0.0546875 1.078125 0.015625 C 0.972656 -0.046875 0.910156 -0.101562 0.890625 -0.15625 C 0.878906 -0.195312 0.867188 -0.21875 0.859375 -0.21875 C 0.847656 -0.21875 0.773438 -0.164062 0.640625 -0.0625 C 0.535156 0.0195312 0.457031 0.0703125 0.40625 0.09375 C 0.351562 0.113281 0.304688 0.113281 0.265625 0.09375 C 0.222656 0.0703125 0.179688 0.0351562 0.140625 -0.015625 C 0.0976562 -0.0664062 0.078125 -0.109375 0.078125 -0.140625 C 0.078125 -0.179688 0.0859375 -0.242188 0.109375 -0.328125 C 0.140625 -0.410156 0.160156 -0.457031 0.171875 -0.46875 C 0.191406 -0.488281 0.203125 -0.519531 0.203125 -0.5625 C 0.203125 -0.582031 0.210938 -0.613281 0.234375 -0.65625 C 0.253906 -0.695312 0.265625 -0.726562 0.265625 -0.75 C 0.265625 -0.78125 0.269531 -0.800781 0.28125 -0.8125 C 0.300781 -0.820312 0.332031 -0.878906 0.375 -0.984375 C 0.425781 -1.078125 0.457031 -1.160156 0.46875 -1.234375 C 0.488281 -1.285156 0.515625 -1.332031 0.546875 -1.375 C 0.578125 -1.414062 0.597656 -1.429688 0.609375 -1.421875 C 0.617188 -1.421875 0.675781 -1.460938 0.78125 -1.546875 C 0.875 -1.617188 0.945312 -1.671875 1 -1.703125 C 1.050781 -1.734375 1.125 -1.765625 1.21875 -1.796875 C 1.289062 -1.816406 1.335938 -1.828125 1.359375 -1.828125 C 1.378906 -1.828125 1.410156 -1.804688 1.453125 -1.765625 C 1.492188 -1.734375 1.519531 -1.707031 1.53125 -1.6875 C 1.539062 -1.664062 1.546875 -1.640625 1.546875 -1.609375 C 1.546875 -1.546875 1.515625 -1.441406 1.453125 -1.296875 C 1.441406 -1.265625 1.414062 -1.203125 1.375 -1.109375 C 1.34375 -1.015625 1.316406 -0.941406 1.296875 -0.890625 C 1.265625 -0.847656 1.242188 -0.789062 1.234375 -0.71875 C 1.222656 -0.664062 1.210938 -0.625 1.203125 -0.59375 C 1.191406 -0.582031 1.164062 -0.519531 1.125 -0.40625 C 1.101562 -0.34375 1.09375 -0.300781 1.09375 -0.28125 C 1.09375 -0.257812 1.101562 -0.234375 1.125 -0.203125 C 1.144531 -0.148438 1.171875 -0.125 1.203125 -0.125 C 1.242188 -0.125 1.28125 -0.101562 1.3125 -0.0625 C 1.320312 -0.0625 1.328125 -0.0625 1.328125 -0.0625 C 1.335938 -0.0625 1.359375 -0.0664062 1.390625 -0.078125 C 1.421875 -0.0859375 1.441406 -0.0976562 1.453125 -0.109375 C 1.554688 -0.160156 1.632812 -0.207031 1.6875 -0.25 Z M 0.984375 -0.8125 C 1.035156 -0.882812 1.070312 -0.953125 1.09375 -1.015625 C 1.125 -1.109375 1.148438 -1.171875 1.171875 -1.203125 C 1.191406 -1.234375 1.203125 -1.265625 1.203125 -1.296875 C 1.203125 -1.328125 1.207031 -1.351562 1.21875 -1.375 C 1.226562 -1.375 1.25 -1.40625 1.28125 -1.46875 C 1.320312 -1.53125 1.332031 -1.566406 1.3125 -1.578125 C 1.300781 -1.585938 1.265625 -1.585938 1.203125 -1.578125 C 1.148438 -1.566406 1.101562 -1.546875 1.0625 -1.515625 C 1.019531 -1.492188 0.96875 -1.453125 0.90625 -1.390625 C 0.851562 -1.328125 0.828125 -1.285156 0.828125 -1.265625 C 0.828125 -1.253906 0.789062 -1.207031 0.71875 -1.125 C 0.65625 -1.039062 0.625 -0.988281 0.625 -0.96875 C 0.625 -0.957031 0.597656 -0.910156 0.546875 -0.828125 C 0.492188 -0.753906 0.460938 -0.6875 0.453125 -0.625 C 0.429688 -0.550781 0.414062 -0.503906 0.40625 -0.484375 C 0.382812 -0.453125 0.375 -0.425781 0.375 -0.40625 C 0.375 -0.382812 0.363281 -0.351562 0.34375 -0.3125 C 0.320312 -0.269531 0.316406 -0.238281 0.328125 -0.21875 C 0.335938 -0.195312 0.363281 -0.1875 0.40625 -0.1875 C 0.4375 -0.1875 0.476562 -0.207031 0.53125 -0.25 C 0.582031 -0.289062 0.625 -0.328125 0.65625 -0.359375 C 0.65625 -0.359375 0.660156 -0.367188 0.671875 -0.390625 C 0.679688 -0.398438 0.691406 -0.410156 0.703125 -0.421875 C 0.710938 -0.441406 0.726562 -0.460938 0.75 -0.484375 C 0.863281 -0.640625 0.941406 -0.75 0.984375 -0.8125 Z M 0.984375 -0.8125 "/></g></g></g></g><g fill="#ffffff" fill-opacity="1"><g transform="translate(2.022737, 3.740391)"><g><path d="M 1.234375 -0.3125 C 1.253906 -0.332031 1.273438 -0.335938 1.296875 -0.328125 C 1.316406 -0.328125 1.328125 -0.3125 1.328125 -0.28125 C 1.328125 -0.269531 1.328125 -0.257812 1.328125 -0.25 C 1.328125 -0.238281 1.320312 -0.226562 1.3125 -0.21875 C 1.3125 -0.21875 1.304688 -0.210938 1.296875 -0.203125 C 1.285156 -0.191406 1.273438 -0.179688 1.265625 -0.171875 C 1.253906 -0.171875 1.242188 -0.164062 1.234375 -0.15625 C 1.234375 -0.15625 1.226562 -0.148438 1.21875 -0.140625 C 1.207031 -0.128906 1.195312 -0.125 1.1875 -0.125 C 1.15625 -0.101562 1.125 -0.0859375 1.09375 -0.078125 C 1.09375 -0.078125 1.085938 -0.0703125 1.078125 -0.0625 C 1.078125 -0.0625 1.078125 -0.0546875 1.078125 -0.046875 C 1.066406 -0.046875 1.050781 -0.046875 1.03125 -0.046875 C 1 -0.0234375 0.953125 -0.0078125 0.890625 0 C 0.835938 0 0.785156 0 0.734375 0 C 0.691406 0 0.664062 -0.00390625 0.65625 -0.015625 C 0.644531 -0.0234375 0.628906 -0.0390625 0.609375 -0.0625 C 0.597656 -0.09375 0.585938 -0.117188 0.578125 -0.140625 C 0.566406 -0.160156 0.5625 -0.175781 0.5625 -0.1875 C 0.550781 -0.226562 0.546875 -0.269531 0.546875 -0.3125 C 0.554688 -0.351562 0.566406 -0.421875 0.578125 -0.515625 L 0.578125 -0.546875 C 0.578125 -0.546875 0.570312 -0.546875 0.5625 -0.546875 C 0.5625 -0.554688 0.554688 -0.5625 0.546875 -0.5625 C 0.535156 -0.5625 0.523438 -0.5625 0.515625 -0.5625 C 0.503906 -0.5625 0.488281 -0.5625 0.46875 -0.5625 C 0.445312 -0.570312 0.425781 -0.578125 0.40625 -0.578125 C 0.382812 -0.585938 0.367188 -0.59375 0.359375 -0.59375 C 0.359375 -0.59375 0.351562 -0.570312 0.34375 -0.53125 C 0.332031 -0.488281 0.316406 -0.445312 0.296875 -0.40625 C 0.285156 -0.363281 0.273438 -0.335938 0.265625 -0.328125 C 0.210938 -0.296875 0.164062 -0.273438 0.125 -0.265625 C 0.0507812 -0.253906 0.078125 -0.398438 0.203125 -0.703125 C 0.210938 -0.710938 0.21875 -0.726562 0.21875 -0.75 C 0.226562 -0.78125 0.234375 -0.796875 0.234375 -0.796875 C 0.242188 -0.804688 0.253906 -0.820312 0.265625 -0.84375 C 0.273438 -0.863281 0.28125 -0.878906 0.28125 -0.890625 C 0.289062 -0.910156 0.296875 -0.929688 0.296875 -0.953125 C 0.296875 -0.972656 0.296875 -0.988281 0.296875 -1 C 0.304688 -1.019531 0.3125 -1.039062 0.3125 -1.0625 C 0.3125 -1.082031 0.320312 -1.117188 0.34375 -1.171875 C 0.375 -1.222656 0.394531 -1.253906 0.40625 -1.265625 C 0.425781 -1.273438 0.453125 -1.273438 0.484375 -1.265625 C 0.523438 -1.265625 0.550781 -1.257812 0.5625 -1.25 C 0.582031 -1.226562 0.582031 -1.15625 0.5625 -1.03125 C 0.550781 -0.945312 0.546875 -0.890625 0.546875 -0.859375 C 0.546875 -0.835938 0.554688 -0.820312 0.578125 -0.8125 C 0.585938 -0.789062 0.597656 -0.78125 0.609375 -0.78125 C 0.617188 -0.78125 0.640625 -0.789062 0.671875 -0.8125 C 0.722656 -0.84375 0.757812 -0.859375 0.78125 -0.859375 C 0.800781 -0.859375 0.820312 -0.84375 0.84375 -0.8125 C 0.851562 -0.789062 0.859375 -0.769531 0.859375 -0.75 C 0.859375 -0.738281 0.847656 -0.707031 0.828125 -0.65625 C 0.804688 -0.59375 0.785156 -0.515625 0.765625 -0.421875 C 0.742188 -0.359375 0.734375 -0.304688 0.734375 -0.265625 C 0.742188 -0.234375 0.769531 -0.195312 0.8125 -0.15625 C 0.820312 -0.132812 0.832031 -0.125 0.84375 -0.125 C 0.84375 -0.125 0.847656 -0.125 0.859375 -0.125 C 0.867188 -0.125 0.878906 -0.125 0.890625 -0.125 C 0.898438 -0.132812 0.910156 -0.140625 0.921875 -0.140625 C 0.953125 -0.148438 0.976562 -0.160156 1 -0.171875 C 1.09375 -0.222656 1.171875 -0.269531 1.234375 -0.3125 Z M 1.234375 -0.3125 "/></g></g></g><g fill="#ffffff" fill-opacity="1"><g transform="translate(3.084279, 3.740391)"><g><path d="M 0.96875 -0.234375 C 1 -0.253906 1.023438 -0.257812 1.046875 -0.25 C 1.066406 -0.238281 1.078125 -0.21875 1.078125 -0.1875 C 1.078125 -0.175781 1.070312 -0.164062 1.0625 -0.15625 C 1.0625 -0.144531 1.054688 -0.132812 1.046875 -0.125 C 1.035156 -0.125 1.023438 -0.117188 1.015625 -0.109375 C 1.015625 -0.109375 1.007812 -0.101562 1 -0.09375 C 0.988281 -0.0820312 0.976562 -0.078125 0.96875 -0.078125 C 0.957031 -0.078125 0.945312 -0.0703125 0.9375 -0.0625 C 0.925781 -0.0507812 0.921875 -0.046875 0.921875 -0.046875 C 0.890625 -0.0234375 0.851562 -0.0078125 0.8125 0 C 0.8125 0 0.796875 0.00390625 0.765625 0.015625 C 0.734375 0.0351562 0.695312 0.0546875 0.65625 0.078125 C 0.625 0.109375 0.597656 0.125 0.578125 0.125 C 0.535156 0.132812 0.5 0.144531 0.46875 0.15625 C 0.4375 0.164062 0.398438 0.171875 0.359375 0.171875 C 0.316406 0.171875 0.273438 0.164062 0.234375 0.15625 C 0.203125 0.144531 0.175781 0.128906 0.15625 0.109375 C 0.125 0.078125 0.0976562 0.0390625 0.078125 0 C 0.0546875 -0.0507812 0.0390625 -0.101562 0.03125 -0.15625 C 0.03125 -0.207031 0.03125 -0.253906 0.03125 -0.296875 C 0.03125 -0.347656 0.03125 -0.394531 0.03125 -0.4375 C 0.0390625 -0.445312 0.0507812 -0.503906 0.0625 -0.609375 C 0.0703125 -0.710938 0.0820312 -0.8125 0.09375 -0.90625 L 0.125 -1.0625 C 0.101562 -1.070312 0.0703125 -1.078125 0.03125 -1.078125 C 0.0078125 -1.078125 -0.015625 -1.078125 -0.046875 -1.078125 C -0.109375 -1.078125 -0.15625 -1.078125 -0.1875 -1.078125 C -0.1875 -1.078125 -0.191406 -1.078125 -0.203125 -1.078125 C -0.210938 -1.078125 -0.222656 -1.078125 -0.234375 -1.078125 C -0.242188 -1.078125 -0.253906 -1.078125 -0.265625 -1.078125 C -0.273438 -1.078125 -0.28125 -1.078125 -0.28125 -1.078125 C -0.289062 -1.085938 -0.296875 -1.09375 -0.296875 -1.09375 C -0.296875 -1.113281 -0.285156 -1.128906 -0.265625 -1.140625 C -0.265625 -1.140625 -0.253906 -1.144531 -0.234375 -1.15625 C -0.222656 -1.164062 -0.207031 -1.175781 -0.1875 -1.1875 C -0.175781 -1.195312 -0.15625 -1.203125 -0.125 -1.203125 C -0.09375 -1.210938 -0.0625 -1.21875 -0.03125 -1.21875 C 0.0625 -1.207031 0.117188 -1.203125 0.140625 -1.203125 C 0.171875 -1.210938 0.195312 -1.226562 0.21875 -1.25 C 0.25 -1.28125 0.296875 -1.363281 0.359375 -1.5 C 0.359375 -1.507812 0.359375 -1.519531 0.359375 -1.53125 C 0.390625 -1.582031 0.410156 -1.617188 0.421875 -1.640625 C 0.429688 -1.671875 0.445312 -1.707031 0.46875 -1.75 C 0.5 -1.800781 0.53125 -1.84375 0.5625 -1.875 C 0.59375 -1.90625 0.625 -1.925781 0.65625 -1.9375 C 0.769531 -1.988281 0.828125 -1.988281 0.828125 -1.9375 C 0.828125 -1.90625 0.800781 -1.828125 0.75 -1.703125 C 0.726562 -1.671875 0.71875 -1.648438 0.71875 -1.640625 C 0.707031 -1.609375 0.695312 -1.578125 0.6875 -1.546875 C 0.6875 -1.515625 0.675781 -1.484375 0.65625 -1.453125 C 0.625 -1.398438 0.597656 -1.351562 0.578125 -1.3125 C 0.554688 -1.269531 0.550781 -1.25 0.5625 -1.25 C 0.5625 -1.238281 0.625 -1.222656 0.75 -1.203125 C 0.832031 -1.191406 0.882812 -1.179688 0.90625 -1.171875 C 0.925781 -1.171875 0.9375 -1.164062 0.9375 -1.15625 C 0.925781 -1.125 0.910156 -1.113281 0.890625 -1.125 C 0.878906 -1.125 0.859375 -1.125 0.828125 -1.125 C 0.796875 -1.125 0.757812 -1.117188 0.71875 -1.109375 C 0.6875 -1.109375 0.648438 -1.109375 0.609375 -1.109375 C 0.566406 -1.097656 0.53125 -1.09375 0.5 -1.09375 C 0.488281 -1.09375 0.472656 -1.050781 0.453125 -0.96875 C 0.429688 -0.882812 0.40625 -0.785156 0.375 -0.671875 C 0.34375 -0.566406 0.320312 -0.492188 0.3125 -0.453125 C 0.25 -0.253906 0.257812 -0.117188 0.34375 -0.046875 C 0.375 -0.015625 0.40625 0 0.4375 0 C 0.457031 0 0.476562 -0.00390625 0.5 -0.015625 C 0.507812 -0.0234375 0.523438 -0.0351562 0.546875 -0.046875 C 0.566406 -0.0546875 0.585938 -0.0625 0.609375 -0.0625 C 0.640625 -0.0703125 0.664062 -0.0820312 0.6875 -0.09375 C 0.707031 -0.101562 0.71875 -0.109375 0.71875 -0.109375 C 0.820312 -0.148438 0.90625 -0.191406 0.96875 -0.234375 Z M 0.96875 -0.234375 "/></g></g></g><g fill="#ffffff" fill-opacity="1"><g transform="translate(3.898416, 3.740391)"><g><path d="M 0.453125 -1.171875 C 0.421875 -1.160156 0.390625 -1.171875 0.359375 -1.203125 C 0.328125 -1.222656 0.3125 -1.238281 0.3125 -1.25 C 0.3125 -1.257812 0.320312 -1.269531 0.34375 -1.28125 C 0.363281 -1.300781 0.394531 -1.3125 0.4375 -1.3125 C 0.476562 -1.3125 0.507812 -1.300781 0.53125 -1.28125 C 0.550781 -1.257812 0.550781 -1.234375 0.53125 -1.203125 C 0.519531 -1.179688 0.492188 -1.171875 0.453125 -1.171875 Z M 0.796875 -0.25 C 0.804688 -0.226562 0.804688 -0.210938 0.796875 -0.203125 C 0.796875 -0.191406 0.773438 -0.164062 0.734375 -0.125 C 0.671875 -0.0820312 0.597656 -0.0390625 0.515625 0 C 0.453125 0.03125 0.390625 0.0390625 0.328125 0.03125 C 0.265625 0.03125 0.203125 0.015625 0.140625 -0.015625 C 0.078125 -0.046875 0.0234375 -0.0859375 -0.015625 -0.140625 C -0.0664062 -0.210938 -0.0820312 -0.304688 -0.0625 -0.421875 C -0.0625 -0.429688 -0.0546875 -0.460938 -0.046875 -0.515625 C -0.0351562 -0.566406 -0.0234375 -0.613281 -0.015625 -0.65625 C -0.015625 -0.695312 -0.0078125 -0.722656 0 -0.734375 C 0.0078125 -0.742188 0.0234375 -0.75 0.046875 -0.75 C 0.078125 -0.757812 0.109375 -0.757812 0.140625 -0.75 C 0.171875 -0.75 0.195312 -0.742188 0.21875 -0.734375 C 0.25 -0.722656 0.269531 -0.707031 0.28125 -0.6875 C 0.289062 -0.664062 0.289062 -0.644531 0.28125 -0.625 C 0.25 -0.5625 0.234375 -0.515625 0.234375 -0.484375 C 0.234375 -0.460938 0.21875 -0.4375 0.1875 -0.40625 C 0.164062 -0.375 0.148438 -0.335938 0.140625 -0.296875 C 0.140625 -0.265625 0.148438 -0.242188 0.171875 -0.234375 C 0.179688 -0.234375 0.1875 -0.21875 0.1875 -0.1875 C 0.1875 -0.164062 0.203125 -0.140625 0.234375 -0.109375 C 0.265625 -0.0859375 0.285156 -0.078125 0.296875 -0.078125 C 0.304688 -0.078125 0.332031 -0.0820312 0.375 -0.09375 C 0.425781 -0.101562 0.492188 -0.140625 0.578125 -0.203125 C 0.640625 -0.253906 0.6875 -0.28125 0.71875 -0.28125 C 0.75 -0.289062 0.773438 -0.28125 0.796875 -0.25 Z M 0.796875 -0.25 "/></g></g></g><g fill="#ffffff" fill-opacity="1"><g transform="translate(4.405694, 3.740391)"><g><path d="M 0.984375 -0.359375 C 1.015625 -0.390625 1.039062 -0.398438 1.0625 -0.390625 C 1.082031 -0.390625 1.09375 -0.367188 1.09375 -0.328125 C 1.09375 -0.316406 1.09375 -0.304688 1.09375 -0.296875 C 1.09375 -0.296875 1.085938 -0.289062 1.078125 -0.28125 C 1.078125 -0.269531 1.070312 -0.257812 1.0625 -0.25 C 1.050781 -0.25 1.039062 -0.242188 1.03125 -0.234375 C 1.03125 -0.234375 1.023438 -0.226562 1.015625 -0.21875 C 1.003906 -0.21875 0.992188 -0.210938 0.984375 -0.203125 C 0.984375 -0.203125 0.976562 -0.195312 0.96875 -0.1875 C 0.957031 -0.175781 0.953125 -0.171875 0.953125 -0.171875 C 0.921875 -0.148438 0.890625 -0.132812 0.859375 -0.125 C 0.859375 -0.125 0.851562 -0.117188 0.84375 -0.109375 C 0.800781 -0.078125 0.769531 -0.0546875 0.75 -0.046875 C 0.71875 -0.0351562 0.679688 -0.0234375 0.640625 -0.015625 C 0.597656 -0.00390625 0.566406 -0.0078125 0.546875 -0.03125 C 0.546875 -0.03125 0.53125 -0.03125 0.5 -0.03125 C 0.476562 -0.03125 0.460938 -0.03125 0.453125 -0.03125 C 0.441406 -0.03125 0.425781 -0.03125 0.40625 -0.03125 C 0.394531 -0.03125 0.378906 -0.0234375 0.359375 -0.015625 C 0.347656 -0.015625 0.335938 -0.015625 0.328125 -0.015625 C 0.304688 -0.00390625 0.285156 0 0.265625 0 C 0.242188 0 0.195312 -0.00390625 0.125 -0.015625 C 0.0820312 -0.0234375 0.046875 -0.03125 0.015625 -0.03125 C 0.015625 -0.03125 0.0078125 -0.03125 0 -0.03125 C -0.0078125 -0.03125 -0.0195312 -0.03125 -0.03125 -0.03125 C -0.0390625 -0.03125 -0.046875 -0.03125 -0.046875 -0.03125 C -0.0546875 -0.0390625 -0.0703125 -0.078125 -0.09375 -0.140625 C -0.113281 -0.171875 -0.125 -0.207031 -0.125 -0.25 C -0.125 -0.257812 -0.125 -0.269531 -0.125 -0.28125 C -0.113281 -0.3125 -0.101562 -0.332031 -0.09375 -0.34375 C -0.0820312 -0.34375 -0.0703125 -0.34375 -0.0625 -0.34375 C -0.0507812 -0.351562 -0.0390625 -0.359375 -0.03125 -0.359375 C -0.0195312 -0.367188 -0.0078125 -0.382812 0 -0.40625 C 0.0078125 -0.425781 0.015625 -0.453125 0.015625 -0.484375 C 0.015625 -0.492188 0.015625 -0.503906 0.015625 -0.515625 C 0.0234375 -0.523438 0.0351562 -0.535156 0.046875 -0.546875 C 0.0546875 -0.554688 0.0664062 -0.5625 0.078125 -0.5625 C 0.0859375 -0.570312 0.0976562 -0.585938 0.109375 -0.609375 C 0.117188 -0.617188 0.128906 -0.65625 0.140625 -0.71875 C 0.148438 -0.757812 0.160156 -0.804688 0.171875 -0.859375 C 0.179688 -0.910156 0.191406 -0.953125 0.203125 -0.984375 C 0.203125 -1.066406 0.207031 -1.113281 0.21875 -1.125 C 0.226562 -1.144531 0.25 -1.148438 0.28125 -1.140625 C 0.3125 -1.140625 0.335938 -1.132812 0.359375 -1.125 C 0.367188 -1.113281 0.378906 -1.097656 0.390625 -1.078125 C 0.398438 -1.066406 0.40625 -1.054688 0.40625 -1.046875 C 0.40625 -1.035156 0.410156 -1.019531 0.421875 -1 C 0.429688 -0.976562 0.4375 -0.96875 0.4375 -0.96875 C 0.457031 -0.894531 0.472656 -0.828125 0.484375 -0.765625 C 0.484375 -0.742188 0.484375 -0.710938 0.484375 -0.671875 C 0.492188 -0.628906 0.503906 -0.585938 0.515625 -0.546875 C 0.523438 -0.515625 0.535156 -0.484375 0.546875 -0.453125 C 0.566406 -0.390625 0.570312 -0.335938 0.5625 -0.296875 C 0.5625 -0.265625 0.5625 -0.238281 0.5625 -0.21875 C 0.5625 -0.195312 0.566406 -0.175781 0.578125 -0.15625 C 0.597656 -0.144531 0.625 -0.140625 0.65625 -0.140625 C 0.664062 -0.140625 0.675781 -0.140625 0.6875 -0.140625 C 0.707031 -0.148438 0.722656 -0.15625 0.734375 -0.15625 C 0.742188 -0.164062 0.753906 -0.175781 0.765625 -0.1875 C 0.785156 -0.195312 0.796875 -0.203125 0.796875 -0.203125 C 0.804688 -0.210938 0.816406 -0.226562 0.828125 -0.25 C 0.847656 -0.257812 0.878906 -0.28125 0.921875 -0.3125 C 0.960938 -0.34375 0.984375 -0.359375 0.984375 -0.359375 Z M 0.28125 -0.234375 C 0.34375 -0.242188 0.378906 -0.269531 0.390625 -0.3125 C 0.398438 -0.363281 0.390625 -0.4375 0.359375 -0.53125 C 0.328125 -0.625 0.304688 -0.671875 0.296875 -0.671875 C 0.285156 -0.671875 0.28125 -0.65625 0.28125 -0.625 C 0.269531 -0.582031 0.257812 -0.554688 0.25 -0.546875 C 0.226562 -0.523438 0.203125 -0.476562 0.171875 -0.40625 C 0.140625 -0.332031 0.125 -0.289062 0.125 -0.28125 C 0.132812 -0.28125 0.148438 -0.273438 0.171875 -0.265625 C 0.191406 -0.253906 0.210938 -0.242188 0.234375 -0.234375 C 0.253906 -0.234375 0.269531 -0.234375 0.28125 -0.234375 Z M 0.28125 -0.234375 "/></g></g></g><g fill="#ffffff" fill-opacity="1"><g transform="translate(5.242846, 3.740391)"><g><path d="M 1.234375 -0.234375 C 1.253906 -0.253906 1.269531 -0.257812 1.28125 -0.25 C 1.300781 -0.25 1.3125 -0.234375 1.3125 -0.203125 C 1.3125 -0.203125 1.3125 -0.195312 1.3125 -0.1875 C 1.3125 -0.175781 1.304688 -0.164062 1.296875 -0.15625 C 1.296875 -0.15625 1.289062 -0.148438 1.28125 -0.140625 C 1.28125 -0.140625 1.273438 -0.132812 1.265625 -0.125 C 1.265625 -0.125 1.257812 -0.117188 1.25 -0.109375 C 1.25 -0.109375 1.242188 -0.101562 1.234375 -0.09375 C 1.234375 -0.09375 1.226562 -0.0859375 1.21875 -0.078125 C 1.207031 -0.078125 1.203125 -0.078125 1.203125 -0.078125 C 1.171875 -0.0546875 1.144531 -0.0390625 1.125 -0.03125 C 1.125 -0.03125 1.109375 -0.0234375 1.078125 -0.015625 L 1.0625 0 C 1.03125 0.03125 0.984375 0.0507812 0.921875 0.0625 C 0.878906 0.0625 0.84375 0.0546875 0.8125 0.046875 C 0.789062 0.046875 0.765625 0.0390625 0.734375 0.03125 C 0.671875 0 0.628906 -0.0234375 0.609375 -0.046875 C 0.597656 -0.0546875 0.585938 -0.0546875 0.578125 -0.046875 C 0.566406 -0.046875 0.550781 -0.0390625 0.53125 -0.03125 C 0.445312 0.03125 0.351562 0.0625 0.25 0.0625 C 0.144531 0.0703125 0.0703125 0.0507812 0.03125 0 C 0.0078125 -0.03125 0 -0.0859375 0 -0.171875 C 0.0078125 -0.265625 0.0234375 -0.332031 0.046875 -0.375 C 0.0664062 -0.414062 0.0820312 -0.441406 0.09375 -0.453125 C 0.101562 -0.472656 0.113281 -0.488281 0.125 -0.5 C 0.132812 -0.519531 0.148438 -0.539062 0.171875 -0.5625 C 0.253906 -0.664062 0.316406 -0.738281 0.359375 -0.78125 C 0.398438 -0.800781 0.441406 -0.820312 0.484375 -0.84375 C 0.535156 -0.863281 0.585938 -0.875 0.640625 -0.875 C 0.691406 -0.882812 0.738281 -0.878906 0.78125 -0.859375 C 0.832031 -0.835938 0.863281 -0.796875 0.875 -0.734375 C 0.882812 -0.671875 0.878906 -0.609375 0.859375 -0.546875 C 0.847656 -0.492188 0.832031 -0.441406 0.8125 -0.390625 C 0.789062 -0.335938 0.773438 -0.28125 0.765625 -0.21875 C 0.753906 -0.164062 0.753906 -0.128906 0.765625 -0.109375 C 0.785156 -0.0664062 0.863281 -0.0664062 1 -0.109375 C 1.007812 -0.109375 1.015625 -0.109375 1.015625 -0.109375 C 1.023438 -0.109375 1.03125 -0.109375 1.03125 -0.109375 C 1.113281 -0.148438 1.179688 -0.191406 1.234375 -0.234375 Z M 0.65625 -0.59375 C 0.664062 -0.601562 0.671875 -0.609375 0.671875 -0.609375 C 0.671875 -0.617188 0.664062 -0.628906 0.65625 -0.640625 C 0.644531 -0.648438 0.625 -0.65625 0.59375 -0.65625 C 0.570312 -0.664062 0.546875 -0.664062 0.515625 -0.65625 C 0.484375 -0.65625 0.441406 -0.628906 0.390625 -0.578125 C 0.335938 -0.535156 0.300781 -0.5 0.28125 -0.46875 C 0.257812 -0.4375 0.238281 -0.40625 0.21875 -0.375 C 0.195312 -0.34375 0.179688 -0.296875 0.171875 -0.234375 C 0.160156 -0.171875 0.164062 -0.132812 0.1875 -0.125 C 0.195312 -0.101562 0.222656 -0.09375 0.265625 -0.09375 C 0.304688 -0.09375 0.347656 -0.101562 0.390625 -0.125 C 0.429688 -0.132812 0.457031 -0.160156 0.46875 -0.203125 C 0.5 -0.265625 0.523438 -0.3125 0.546875 -0.34375 C 0.578125 -0.40625 0.59375 -0.445312 0.59375 -0.46875 C 0.59375 -0.476562 0.597656 -0.488281 0.609375 -0.5 C 0.617188 -0.507812 0.625 -0.523438 0.625 -0.546875 C 0.613281 -0.566406 0.625 -0.582031 0.65625 -0.59375 Z M 0.65625 -0.59375 "/></g></g></g><g fill="#ffffff" fill-opacity="1"><g transform="translate(6.309182, 3.740391)"><g><path d="M -0.078125 -0.265625 C -0.0546875 -0.296875 -0.0195312 -0.375 0.03125 -0.5 C 0.09375 -0.625 0.144531 -0.710938 0.1875 -0.765625 C 0.195312 -0.773438 0.207031 -0.78125 0.21875 -0.78125 C 0.226562 -0.800781 0.242188 -0.816406 0.265625 -0.828125 C 0.296875 -0.835938 0.320312 -0.835938 0.34375 -0.828125 C 0.351562 -0.816406 0.359375 -0.800781 0.359375 -0.78125 C 0.367188 -0.757812 0.375 -0.75 0.375 -0.75 C 0.382812 -0.75 0.410156 -0.757812 0.453125 -0.78125 C 0.503906 -0.820312 0.59375 -0.859375 0.71875 -0.890625 C 0.769531 -0.898438 0.800781 -0.898438 0.8125 -0.890625 C 0.832031 -0.890625 0.851562 -0.878906 0.875 -0.859375 C 0.90625 -0.835938 0.921875 -0.800781 0.921875 -0.75 C 0.929688 -0.707031 0.921875 -0.671875 0.890625 -0.640625 C 0.867188 -0.609375 0.835938 -0.546875 0.796875 -0.453125 C 0.765625 -0.359375 0.75 -0.289062 0.75 -0.25 C 0.75 -0.226562 0.753906 -0.203125 0.765625 -0.171875 C 0.785156 -0.140625 0.804688 -0.113281 0.828125 -0.09375 C 0.859375 -0.0703125 0.882812 -0.0625 0.90625 -0.0625 C 0.9375 -0.0625 1 -0.0859375 1.09375 -0.140625 C 1.195312 -0.191406 1.273438 -0.238281 1.328125 -0.28125 C 1.367188 -0.3125 1.398438 -0.328125 1.421875 -0.328125 C 1.441406 -0.328125 1.453125 -0.3125 1.453125 -0.28125 C 1.453125 -0.257812 1.441406 -0.238281 1.421875 -0.21875 C 1.410156 -0.195312 1.394531 -0.175781 1.375 -0.15625 C 1.351562 -0.132812 1.328125 -0.113281 1.296875 -0.09375 C 1.265625 -0.0703125 1.234375 -0.0546875 1.203125 -0.046875 C 1.117188 -0.00390625 1.054688 0.0234375 1.015625 0.046875 C 0.953125 0.0664062 0.894531 0.0703125 0.84375 0.0625 C 0.800781 0.0507812 0.742188 0.015625 0.671875 -0.046875 C 0.617188 -0.109375 0.585938 -0.144531 0.578125 -0.15625 C 0.566406 -0.175781 0.5625 -0.21875 0.5625 -0.28125 C 0.5625 -0.363281 0.578125 -0.445312 0.609375 -0.53125 C 0.640625 -0.625 0.648438 -0.671875 0.640625 -0.671875 C 0.628906 -0.679688 0.578125 -0.640625 0.484375 -0.546875 C 0.390625 -0.460938 0.296875 -0.367188 0.203125 -0.265625 C 0.109375 -0.171875 0.0625 -0.113281 0.0625 -0.09375 C 0.0625 -0.0820312 0.0507812 -0.0664062 0.03125 -0.046875 C 0.0195312 -0.0351562 0.00390625 -0.0234375 -0.015625 -0.015625 C -0.0351562 -0.00390625 -0.0546875 0 -0.078125 0 C -0.109375 -0.0078125 -0.128906 -0.0351562 -0.140625 -0.078125 C -0.148438 -0.109375 -0.148438 -0.132812 -0.140625 -0.15625 C -0.140625 -0.175781 -0.117188 -0.210938 -0.078125 -0.265625 Z M -0.078125 -0.265625 "/></g></g></g><g clip-path="url(#a7f791934a)"><g fill="#ffffff" fill-opacity="1"><g transform="translate(7.524154, 3.740391)"><g><path d="M 0.984375 -0.359375 C 1.015625 -0.390625 1.039062 -0.398438 1.0625 -0.390625 C 1.082031 -0.390625 1.09375 -0.367188 1.09375 -0.328125 C 1.09375 -0.316406 1.09375 -0.304688 1.09375 -0.296875 C 1.09375 -0.296875 1.085938 -0.289062 1.078125 -0.28125 C 1.078125 -0.269531 1.070312 -0.257812 1.0625 -0.25 C 1.050781 -0.25 1.039062 -0.242188 1.03125 -0.234375 C 1.03125 -0.234375 1.023438 -0.226562 1.015625 -0.21875 C 1.003906 -0.21875 0.992188 -0.210938 0.984375 -0.203125 C 0.984375 -0.203125 0.976562 -0.195312 0.96875 -0.1875 C 0.957031 -0.175781 0.953125 -0.171875 0.953125 -0.171875 C 0.921875 -0.148438 0.890625 -0.132812 0.859375 -0.125 C 0.859375 -0.125 0.851562 -0.117188 0.84375 -0.109375 C 0.800781 -0.078125 0.769531 -0.0546875 0.75 -0.046875 C 0.71875 -0.0351562 0.679688 -0.0234375 0.640625 -0.015625 C 0.597656 -0.00390625 0.566406 -0.0078125 0.546875 -0.03125 C 0.546875 -0.03125 0.53125 -0.03125 0.5 -0.03125 C 0.476562 -0.03125 0.460938 -0.03125 0.453125 -0.03125 C 0.441406 -0.03125 0.425781 -0.03125 0.40625 -0.03125 C 0.394531 -0.03125 0.378906 -0.0234375 0.359375 -0.015625 C 0.347656 -0.015625 0.335938 -0.015625 0.328125 -0.015625 C 0.304688 -0.00390625 0.285156 0 0.265625 0 C 0.242188 0 0.195312 -0.00390625 0.125 -0.015625 C 0.0820312 -0.0234375 0.046875 -0.03125 0.015625 -0.03125 C 0.015625 -0.03125 0.0078125 -0.03125 0 -0.03125 C -0.0078125 -0.03125 -0.0195312 -0.03125 -0.03125 -0.03125 C -0.0390625 -0.03125 -0.046875 -0.03125 -0.046875 -0.03125 C -0.0546875 -0.0390625 -0.0703125 -0.078125 -0.09375 -0.140625 C -0.113281 -0.171875 -0.125 -0.207031 -0.125 -0.25 C -0.125 -0.257812 -0.125 -0.269531 -0.125 -0.28125 C -0.113281 -0.3125 -0.101562 -0.332031 -0.09375 -0.34375 C -0.0820312 -0.34375 -0.0703125 -0.34375 -0.0625 -0.34375 C -0.0507812 -0.351562 -0.0390625 -0.359375 -0.03125 -0.359375 C -0.0195312 -0.367188 -0.0078125 -0.382812 0 -0.40625 C 0.0078125 -0.425781 0.015625 -0.453125 0.015625 -0.484375 C 0.015625 -0.492188 0.015625 -0.503906 0.015625 -0.515625 C 0.0234375 -0.523438 0.0351562 -0.535156 0.046875 -0.546875 C 0.0546875 -0.554688 0.0664062 -0.5625 0.078125 -0.5625 C 0.0859375 -0.570312 0.0976562 -0.585938 0.109375 -0.609375 C 0.117188 -0.617188 0.128906 -0.65625 0.140625 -0.71875 C 0.148438 -0.757812 0.160156 -0.804688 0.171875 -0.859375 C 0.179688 -0.910156 0.191406 -0.953125 0.203125 -0.984375 C 0.203125 -1.066406 0.207031 -1.113281 0.21875 -1.125 C 0.226562 -1.144531 0.25 -1.148438 0.28125 -1.140625 C 0.3125 -1.140625 0.335938 -1.132812 0.359375 -1.125 C 0.367188 -1.113281 0.378906 -1.097656 0.390625 -1.078125 C 0.398438 -1.066406 0.40625 -1.054688 0.40625 -1.046875 C 0.40625 -1.035156 0.410156 -1.019531 0.421875 -1 C 0.429688 -0.976562 0.4375 -0.96875 0.4375 -0.96875 C 0.457031 -0.894531 0.472656 -0.828125 0.484375 -0.765625 C 0.484375 -0.742188 0.484375 -0.710938 0.484375 -0.671875 C 0.492188 -0.628906 0.503906 -0.585938 0.515625 -0.546875 C 0.523438 -0.515625 0.535156 -0.484375 0.546875 -0.453125 C 0.566406 -0.390625 0.570312 -0.335938 0.5625 -0.296875 C 0.5625 -0.265625 0.5625 -0.238281 0.5625 -0.21875 C 0.5625 -0.195312 0.566406 -0.175781 0.578125 -0.15625 C 0.597656 -0.144531 0.625 -0.140625 0.65625 -0.140625 C 0.664062 -0.140625 0.675781 -0.140625 0.6875 -0.140625 C 0.707031 -0.148438 0.722656 -0.15625 0.734375 -0.15625 C 0.742188 -0.164062 0.753906 -0.175781 0.765625 -0.1875 C 0.785156 -0.195312 0.796875 -0.203125 0.796875 -0.203125 C 0.804688 -0.210938 0.816406 -0.226562 0.828125 -0.25 C 0.847656 -0.257812 0.878906 -0.28125 0.921875 -0.3125 C 0.960938 -0.34375 0.984375 -0.359375 0.984375 -0.359375 Z M 0.28125 -0.234375 C 0.34375 -0.242188 0.378906 -0.269531 0.390625 -0.3125 C 0.398438 -0.363281 0.390625 -0.4375 0.359375 -0.53125 C 0.328125 -0.625 0.304688 -0.671875 0.296875 -0.671875 C 0.285156 -0.671875 0.28125 -0.65625 0.28125 -0.625 C 0.269531 -0.582031 0.257812 -0.554688 0.25 -0.546875 C 0.226562 -0.523438 0.203125 -0.476562 0.171875 -0.40625 C 0.140625 -0.332031 0.125 -0.289062 0.125 -0.28125 C 0.132812 -0.28125 0.148438 -0.273438 0.171875 -0.265625 C 0.191406 -0.253906 0.210938 -0.242188 0.234375 -0.234375 C 0.253906 -0.234375 0.269531 -0.234375 0.28125 -0.234375 Z M 0.28125 -0.234375 "/></g></g></g></g></g></g></g></svg>