<svg xmlns="http://www.w3.org/2000/svg" xmlns:xlink="http://www.w3.org/1999/xlink" width="304" zoomAndPan="magnify" viewBox="0 0 228 54" height="72" preserveAspectRatio="xMidYMid meet" version="1.0"><defs><filter x="0%" y="0%" width="100%" height="100%" id="2928bd0e3e"><feColorMatrix values="0 0 0 0 1 0 0 0 0 1 0 0 0 0 1 0 0 0 1 0" color-interpolation-filters="sRGB"/></filter><g/><mask id="19347d12f4"><g filter="url(#2928bd0e3e)"><rect x="-22.8" width="273.6" fill="#000000" y="-5.4" height="64.8" fill-opacity="0.4"/></g></mask><clipPath id="add6a0e77e"><path d="M 0.632812 1 L 3 1 L 3 5 L 0.632812 5 Z M 0.632812 1 " clip-rule="nonzero"/></clipPath><clipPath id="a433336ca5"><path d="M 8 2 L 10.292969 2 L 10.292969 5 L 8 5 Z M 8 2 " clip-rule="nonzero"/></clipPath><clipPath id="da457a8e0b"><rect x="0" width="11" y="0" height="6"/></clipPath></defs><path fill="#ff5a19" d="M 83.21875 43.613281 L 53.738281 44.136719 C 53.128906 44.148438 52.636719 43.664062 52.65625 43.074219 L 53.660156 9.796875 C 53.675781 9.246094 54.136719 8.800781 54.703125 8.792969 L 80.917969 8.324219 C 81.484375 8.316406 81.960938 8.738281 81.996094 9.289062 L 84.257812 42.507812 C 84.300781 43.101562 83.824219 43.601562 83.21875 43.613281 Z M 83.21875 43.613281 " fill-opacity="1" fill-rule="evenodd"/><path fill="#3a003d" d="M 83.242188 43.335938 L 54.339844 43.335938 C 53.742188 43.335938 53.269531 42.851562 53.296875 42.277344 L 54.898438 9.679688 C 54.925781 9.140625 55.382812 8.714844 55.941406 8.714844 L 81.640625 8.714844 C 82.195312 8.714844 82.65625 9.140625 82.679688 9.679688 L 84.28125 42.277344 C 84.308594 42.851562 83.835938 43.335938 83.242188 43.335938 Z M 83.242188 43.335938 " fill-opacity="1" fill-rule="evenodd"/><path fill="#ff5a19" d="M 68.789062 25.53125 C 63.945312 25.53125 59.941406 21.96875 59.417969 17.398438 C 59.355469 16.855469 59.785156 16.382812 60.347656 16.382812 C 60.824219 16.382812 61.222656 16.734375 61.273438 17.199219 C 61.695312 20.859375 64.90625 23.71875 68.789062 23.71875 C 72.671875 23.71875 75.882812 20.859375 76.300781 17.199219 C 76.355469 16.734375 76.75 16.382812 77.230469 16.382812 C 77.789062 16.382812 78.222656 16.855469 78.160156 17.398438 C 77.640625 21.964844 73.636719 25.53125 68.789062 25.53125 Z M 68.789062 25.53125 " fill-opacity="1" fill-rule="nonzero"/><g fill="#3a003d" fill-opacity="1"><g transform="translate(88.539626, 24.642859)"><g><path d="M 13.984375 -2.09375 C 14.210938 -2.289062 14.414062 -2.367188 14.59375 -2.328125 C 14.769531 -2.296875 14.859375 -2.128906 14.859375 -1.828125 C 14.859375 -1.742188 14.835938 -1.648438 14.796875 -1.546875 C 14.753906 -1.453125 14.707031 -1.367188 14.65625 -1.296875 C 14.601562 -1.234375 14.519531 -1.15625 14.40625 -1.0625 C 14.300781 -0.976562 14.21875 -0.914062 14.15625 -0.875 C 14.101562 -0.832031 14.015625 -0.769531 13.890625 -0.6875 C 13.773438 -0.613281 13.707031 -0.566406 13.6875 -0.546875 C 13.425781 -0.367188 13.164062 -0.222656 12.90625 -0.109375 C 12.863281 -0.0976562 12.773438 -0.0546875 12.640625 0.015625 C 12.503906 0.0976562 12.363281 0.175781 12.21875 0.25 C 12.070312 0.320312 11.90625 0.40625 11.71875 0.5 C 11.53125 0.59375 11.359375 0.660156 11.203125 0.703125 C 11.054688 0.742188 10.90625 0.773438 10.75 0.796875 C 10.59375 0.816406 10.476562 0.796875 10.40625 0.734375 C 10.007812 0.710938 9.492188 0.515625 8.859375 0.140625 C 7.992188 -0.359375 7.503906 -0.835938 7.390625 -1.296875 C 7.296875 -1.617188 7.191406 -1.78125 7.078125 -1.78125 C 6.972656 -1.78125 6.382812 -1.335938 5.3125 -0.453125 C 4.414062 0.234375 3.765625 0.65625 3.359375 0.8125 C 2.953125 0.976562 2.554688 0.953125 2.171875 0.734375 C 1.804688 0.546875 1.46875 0.253906 1.15625 -0.140625 C 0.84375 -0.535156 0.6875 -0.875 0.6875 -1.15625 C 0.6875 -1.5 0.78125 -2.015625 0.96875 -2.703125 C 1.15625 -3.390625 1.300781 -3.785156 1.40625 -3.890625 C 1.550781 -4.035156 1.625 -4.28125 1.625 -4.625 C 1.625 -4.8125 1.710938 -5.070312 1.890625 -5.40625 C 2.078125 -5.75 2.171875 -6.019531 2.171875 -6.21875 C 2.171875 -6.5 2.234375 -6.679688 2.359375 -6.765625 C 2.492188 -6.847656 2.75 -7.296875 3.125 -8.109375 C 3.507812 -8.921875 3.773438 -9.597656 3.921875 -10.140625 C 4.046875 -10.585938 4.234375 -11 4.484375 -11.375 C 4.734375 -11.75 4.910156 -11.90625 5.015625 -11.84375 C 5.117188 -11.78125 5.617188 -12.109375 6.515625 -12.828125 C 7.210938 -13.410156 7.785156 -13.832031 8.234375 -14.09375 C 8.691406 -14.351562 9.285156 -14.597656 10.015625 -14.828125 C 10.648438 -15.015625 11.046875 -15.101562 11.203125 -15.09375 C 11.359375 -15.070312 11.640625 -14.894531 12.046875 -14.5625 C 12.335938 -14.320312 12.523438 -14.125 12.609375 -13.96875 C 12.703125 -13.8125 12.75 -13.566406 12.75 -13.234375 C 12.75 -12.734375 12.5 -11.890625 12 -10.703125 C 11.875 -10.429688 11.671875 -9.90625 11.390625 -9.125 C 11.148438 -8.34375 10.90625 -7.742188 10.65625 -7.328125 C 10.4375 -6.984375 10.285156 -6.539062 10.203125 -6 C 10.128906 -5.519531 10.03125 -5.144531 9.90625 -4.875 C 9.875 -4.8125 9.6875 -4.300781 9.34375 -3.34375 C 9.144531 -2.820312 9.039062 -2.46875 9.03125 -2.28125 C 9.03125 -2.101562 9.097656 -1.882812 9.234375 -1.625 C 9.453125 -1.226562 9.695312 -1.03125 9.96875 -1.03125 C 10.289062 -0.988281 10.597656 -0.835938 10.890625 -0.578125 C 10.910156 -0.566406 10.925781 -0.554688 10.9375 -0.546875 C 10.945312 -0.546875 10.957031 -0.535156 10.96875 -0.515625 C 10.976562 -0.492188 10.988281 -0.484375 11 -0.484375 C 11.101562 -0.546875 11.28125 -0.617188 11.53125 -0.703125 C 11.78125 -0.785156 11.953125 -0.851562 12.046875 -0.90625 C 12.859375 -1.332031 13.503906 -1.726562 13.984375 -2.09375 Z M 8.1875 -6.765625 C 8.550781 -7.328125 8.820312 -7.875 9 -8.40625 C 9.25 -9.175781 9.460938 -9.691406 9.640625 -9.953125 C 9.816406 -10.203125 9.90625 -10.472656 9.90625 -10.765625 C 9.90625 -11.023438 9.96875 -11.203125 10.09375 -11.296875 C 10.175781 -11.347656 10.359375 -11.628906 10.640625 -12.140625 C 10.929688 -12.648438 11.015625 -12.957031 10.890625 -13.0625 C 10.773438 -13.164062 10.476562 -13.160156 10 -13.046875 C 9.519531 -12.929688 9.109375 -12.769531 8.765625 -12.5625 C 8.421875 -12.332031 8.019531 -11.960938 7.5625 -11.453125 C 7.113281 -10.953125 6.890625 -10.625 6.890625 -10.46875 C 6.890625 -10.34375 6.609375 -9.945312 6.046875 -9.28125 C 5.484375 -8.625 5.203125 -8.21875 5.203125 -8.0625 C 5.203125 -7.90625 4.988281 -7.519531 4.5625 -6.90625 C 4.113281 -6.25 3.828125 -5.660156 3.703125 -5.140625 C 3.523438 -4.535156 3.390625 -4.15625 3.296875 -4 C 3.191406 -3.769531 3.140625 -3.570312 3.140625 -3.40625 C 3.140625 -3.226562 3.035156 -2.945312 2.828125 -2.5625 C 2.648438 -2.195312 2.597656 -1.941406 2.671875 -1.796875 C 2.742188 -1.660156 2.960938 -1.59375 3.328125 -1.59375 C 3.566406 -1.59375 3.921875 -1.75 4.390625 -2.0625 C 4.859375 -2.375 5.195312 -2.6875 5.40625 -3 C 5.457031 -3.019531 5.515625 -3.078125 5.578125 -3.171875 C 5.660156 -3.285156 5.75 -3.410156 5.84375 -3.546875 C 5.945312 -3.691406 6.046875 -3.820312 6.140625 -3.9375 C 7.148438 -5.257812 7.832031 -6.203125 8.1875 -6.765625 Z M 8.1875 -6.765625 "/></g></g></g><g fill="#3a003d" fill-opacity="1"><g transform="translate(101.183299, 24.642859)"><g><path d="M 10.15625 -2.578125 C 10.382812 -2.773438 10.582031 -2.851562 10.75 -2.8125 C 10.925781 -2.78125 11.019531 -2.613281 11.03125 -2.3125 C 11.03125 -2.226562 11.015625 -2.144531 10.984375 -2.0625 C 10.960938 -1.988281 10.921875 -1.914062 10.859375 -1.84375 C 10.804688 -1.78125 10.75 -1.71875 10.6875 -1.65625 C 10.632812 -1.59375 10.5625 -1.523438 10.46875 -1.453125 C 10.382812 -1.390625 10.3125 -1.335938 10.25 -1.296875 C 10.195312 -1.253906 10.125 -1.203125 10.03125 -1.140625 C 9.9375 -1.085938 9.875 -1.046875 9.84375 -1.015625 C 9.59375 -0.847656 9.332031 -0.710938 9.0625 -0.609375 C 9.039062 -0.597656 9.007812 -0.582031 8.96875 -0.5625 C 8.945312 -0.5 8.90625 -0.453125 8.84375 -0.421875 C 8.78125 -0.390625 8.6875 -0.359375 8.5625 -0.328125 C 8.3125 -0.191406 7.945312 -0.0976562 7.46875 -0.046875 C 7 0.00390625 6.566406 0.0195312 6.171875 0 C 5.785156 -0.03125 5.53125 -0.078125 5.40625 -0.140625 C 5.3125 -0.203125 5.207031 -0.332031 5.09375 -0.53125 C 4.976562 -0.738281 4.878906 -0.941406 4.796875 -1.140625 C 4.710938 -1.335938 4.660156 -1.492188 4.640625 -1.609375 C 4.566406 -1.910156 4.539062 -2.238281 4.5625 -2.59375 C 4.59375 -2.945312 4.648438 -3.503906 4.734375 -4.265625 L 4.734375 -4.5 C 4.734375 -4.550781 4.710938 -4.585938 4.671875 -4.609375 C 4.640625 -4.640625 4.59375 -4.660156 4.53125 -4.671875 C 4.457031 -4.671875 4.367188 -4.671875 4.265625 -4.671875 C 4.140625 -4.671875 4 -4.691406 3.84375 -4.734375 C 3.6875 -4.773438 3.53125 -4.8125 3.375 -4.84375 C 3.21875 -4.882812 3.082031 -4.90625 2.96875 -4.90625 C 2.976562 -4.90625 2.941406 -4.738281 2.859375 -4.40625 C 2.773438 -4.070312 2.664062 -3.71875 2.53125 -3.34375 C 2.394531 -2.976562 2.273438 -2.765625 2.171875 -2.703125 C 1.796875 -2.472656 1.394531 -2.3125 0.96875 -2.21875 C 0.414062 -2.09375 0.664062 -3.296875 1.71875 -5.828125 C 1.738281 -5.890625 1.789062 -6.019531 1.875 -6.21875 C 1.957031 -6.425781 2.015625 -6.566406 2.046875 -6.640625 C 2.078125 -6.722656 2.125 -6.847656 2.1875 -7.015625 C 2.257812 -7.191406 2.3125 -7.335938 2.34375 -7.453125 C 2.375 -7.566406 2.410156 -7.703125 2.453125 -7.859375 C 2.492188 -8.015625 2.519531 -8.164062 2.53125 -8.3125 C 2.550781 -8.457031 2.5625 -8.601562 2.5625 -8.75 C 2.5625 -8.914062 2.664062 -9.210938 2.875 -9.640625 C 3.09375 -10.078125 3.265625 -10.347656 3.390625 -10.453125 C 3.566406 -10.546875 3.800781 -10.578125 4.09375 -10.546875 C 4.382812 -10.523438 4.578125 -10.457031 4.671875 -10.34375 C 4.796875 -10.1875 4.796875 -9.578125 4.671875 -8.515625 C 4.578125 -7.816406 4.535156 -7.363281 4.546875 -7.15625 C 4.554688 -6.945312 4.613281 -6.78125 4.71875 -6.65625 C 4.84375 -6.550781 4.953125 -6.5 5.046875 -6.5 C 5.140625 -6.507812 5.320312 -6.59375 5.59375 -6.75 C 5.976562 -6.96875 6.257812 -7.070312 6.4375 -7.0625 C 6.613281 -7.050781 6.773438 -6.929688 6.921875 -6.703125 C 7.035156 -6.523438 7.085938 -6.367188 7.078125 -6.234375 C 7.066406 -6.097656 6.988281 -5.832031 6.84375 -5.4375 C 6.632812 -4.882812 6.441406 -4.25 6.265625 -3.53125 C 6.140625 -2.957031 6.097656 -2.53125 6.140625 -2.25 C 6.191406 -1.976562 6.367188 -1.65625 6.671875 -1.28125 C 6.796875 -1.101562 6.894531 -1.003906 6.96875 -0.984375 C 7 -0.972656 7.050781 -0.976562 7.125 -1 C 7.207031 -1.03125 7.296875 -1.0625 7.390625 -1.09375 C 7.484375 -1.132812 7.546875 -1.160156 7.578125 -1.171875 C 7.898438 -1.253906 8.113281 -1.320312 8.21875 -1.375 C 9.039062 -1.800781 9.6875 -2.203125 10.15625 -2.578125 Z M 10.15625 -2.578125 "/></g></g></g><g fill="#3a003d" fill-opacity="1"><g transform="translate(109.969507, 24.642859)"><g><path d="M 8.046875 -1.921875 C 8.285156 -2.085938 8.488281 -2.140625 8.65625 -2.078125 C 8.832031 -2.023438 8.910156 -1.851562 8.890625 -1.5625 C 8.878906 -1.476562 8.851562 -1.394531 8.8125 -1.3125 C 8.78125 -1.238281 8.734375 -1.171875 8.671875 -1.109375 C 8.609375 -1.046875 8.546875 -0.988281 8.484375 -0.9375 C 8.421875 -0.882812 8.34375 -0.828125 8.25 -0.765625 C 8.15625 -0.710938 8.078125 -0.671875 8.015625 -0.640625 C 7.953125 -0.609375 7.867188 -0.5625 7.765625 -0.5 C 7.671875 -0.445312 7.609375 -0.410156 7.578125 -0.390625 C 7.304688 -0.253906 7.03125 -0.144531 6.75 -0.0625 C 6.738281 -0.0507812 6.609375 0.0234375 6.359375 0.171875 C 6.109375 0.328125 5.820312 0.5 5.5 0.6875 C 5.1875 0.875 4.929688 1 4.734375 1.0625 C 4.453125 1.15625 4.160156 1.226562 3.859375 1.28125 C 3.566406 1.332031 3.253906 1.363281 2.921875 1.375 C 2.597656 1.394531 2.285156 1.363281 1.984375 1.28125 C 1.691406 1.195312 1.441406 1.070312 1.234375 0.90625 C 0.992188 0.6875 0.796875 0.382812 0.640625 0 C 0.484375 -0.394531 0.378906 -0.816406 0.328125 -1.265625 C 0.285156 -1.710938 0.265625 -2.128906 0.265625 -2.515625 C 0.265625 -2.910156 0.28125 -3.289062 0.3125 -3.65625 C 0.320312 -3.707031 0.382812 -4.15625 0.5 -5 C 0.613281 -5.851562 0.71875 -6.691406 0.8125 -7.515625 L 0.96875 -8.75 C 0.84375 -8.820312 0.601562 -8.875 0.25 -8.90625 C 0.0390625 -8.914062 -0.171875 -8.914062 -0.390625 -8.90625 C -0.910156 -8.90625 -1.28125 -8.921875 -1.5 -8.953125 C -1.539062 -8.960938 -1.597656 -8.96875 -1.671875 -8.96875 C -1.753906 -8.96875 -1.832031 -8.96875 -1.90625 -8.96875 C -1.988281 -8.96875 -2.066406 -8.96875 -2.140625 -8.96875 C -2.222656 -8.96875 -2.285156 -8.972656 -2.328125 -8.984375 C -2.378906 -9.003906 -2.410156 -9.03125 -2.421875 -9.0625 C -2.441406 -9.226562 -2.375 -9.347656 -2.21875 -9.421875 C -2.207031 -9.441406 -2.132812 -9.488281 -2 -9.5625 C -1.875 -9.644531 -1.738281 -9.722656 -1.59375 -9.796875 C -1.445312 -9.867188 -1.253906 -9.929688 -1.015625 -9.984375 C -0.773438 -10.046875 -0.523438 -10.070312 -0.265625 -10.0625 C 0.523438 -9.988281 1.019531 -9.960938 1.21875 -9.984375 C 1.414062 -10.015625 1.609375 -10.128906 1.796875 -10.328125 C 2.078125 -10.597656 2.457031 -11.296875 2.9375 -12.421875 C 2.957031 -12.460938 2.988281 -12.523438 3.03125 -12.609375 C 3.207031 -13.023438 3.351562 -13.351562 3.46875 -13.59375 C 3.59375 -13.84375 3.757812 -14.15625 3.96875 -14.53125 C 4.175781 -14.90625 4.40625 -15.21875 4.65625 -15.46875 C 4.914062 -15.726562 5.1875 -15.925781 5.46875 -16.0625 C 6.351562 -16.488281 6.796875 -16.460938 6.796875 -15.984375 C 6.796875 -15.710938 6.585938 -15.09375 6.171875 -14.125 C 6.054688 -13.863281 5.972656 -13.660156 5.921875 -13.515625 C 5.859375 -13.316406 5.804688 -13.085938 5.765625 -12.828125 C 5.722656 -12.566406 5.625 -12.300781 5.46875 -12.03125 C 5.207031 -11.582031 4.992188 -11.207031 4.828125 -10.90625 C 4.628906 -10.539062 4.554688 -10.328125 4.609375 -10.265625 C 4.660156 -10.179688 5.191406 -10.085938 6.203125 -9.984375 C 6.910156 -9.910156 7.34375 -9.847656 7.5 -9.796875 C 7.65625 -9.742188 7.722656 -9.644531 7.703125 -9.5 C 7.679688 -9.289062 7.5625 -9.203125 7.34375 -9.234375 C 7.257812 -9.242188 7.09375 -9.25 6.84375 -9.25 C 6.59375 -9.238281 6.304688 -9.222656 5.984375 -9.203125 C 5.671875 -9.179688 5.34375 -9.148438 5 -9.109375 C 4.675781 -9.066406 4.398438 -9.035156 4.171875 -9.015625 C 4.054688 -8.992188 3.898438 -8.65625 3.703125 -8 C 3.515625 -7.34375 3.304688 -6.546875 3.078125 -5.609375 C 2.859375 -4.671875 2.695312 -4.046875 2.59375 -3.734375 C 2.050781 -2.109375 2.117188 -0.992188 2.796875 -0.390625 C 3.097656 -0.117188 3.382812 0.0078125 3.65625 0 C 3.8125 0 3.984375 -0.0546875 4.171875 -0.171875 C 4.203125 -0.210938 4.3125 -0.273438 4.5 -0.359375 C 4.6875 -0.441406 4.875 -0.519531 5.0625 -0.59375 C 5.257812 -0.664062 5.460938 -0.738281 5.671875 -0.8125 C 5.878906 -0.882812 5.988281 -0.921875 6 -0.921875 C 6.84375 -1.253906 7.523438 -1.585938 8.046875 -1.921875 Z M 8.046875 -1.921875 "/></g></g></g><g fill="#3a003d" fill-opacity="1"><g transform="translate(116.707928, 24.642859)"><g><path d="M 3.796875 -9.640625 C 3.492188 -9.566406 3.203125 -9.671875 2.921875 -9.953125 C 2.722656 -10.148438 2.617188 -10.28125 2.609375 -10.34375 C 2.597656 -10.414062 2.671875 -10.515625 2.828125 -10.640625 C 3.046875 -10.796875 3.328125 -10.875 3.671875 -10.875 C 4.015625 -10.875 4.25 -10.796875 4.375 -10.640625 C 4.519531 -10.453125 4.53125 -10.253906 4.40625 -10.046875 C 4.28125 -9.835938 4.078125 -9.703125 3.796875 -9.640625 Z M 6.625 -2.03125 C 6.695312 -1.90625 6.695312 -1.785156 6.625 -1.671875 C 6.5625 -1.554688 6.367188 -1.363281 6.046875 -1.09375 C 5.546875 -0.664062 4.957031 -0.28125 4.28125 0.0625 C 3.78125 0.3125 3.253906 0.410156 2.703125 0.359375 C 2.160156 0.316406 1.644531 0.164062 1.15625 -0.09375 C 0.675781 -0.351562 0.265625 -0.695312 -0.078125 -1.125 C -0.578125 -1.71875 -0.726562 -2.507812 -0.53125 -3.5 C -0.5 -3.570312 -0.453125 -3.820312 -0.390625 -4.25 C -0.328125 -4.6875 -0.257812 -5.070312 -0.1875 -5.40625 C -0.125 -5.738281 -0.0507812 -5.957031 0.03125 -6.0625 C 0.125 -6.175781 0.28125 -6.253906 0.5 -6.296875 C 0.71875 -6.335938 0.941406 -6.335938 1.171875 -6.296875 C 1.410156 -6.265625 1.632812 -6.195312 1.84375 -6.09375 C 2.050781 -6 2.191406 -5.863281 2.265625 -5.6875 C 2.347656 -5.519531 2.347656 -5.332031 2.265625 -5.125 C 2.023438 -4.613281 1.90625 -4.257812 1.90625 -4.0625 C 1.90625 -3.875 1.800781 -3.632812 1.59375 -3.34375 C 1.40625 -3.132812 1.289062 -2.878906 1.25 -2.578125 C 1.21875 -2.273438 1.269531 -2.078125 1.40625 -1.984375 C 1.53125 -1.941406 1.59375 -1.8125 1.59375 -1.59375 C 1.59375 -1.394531 1.726562 -1.175781 2 -0.9375 C 2.1875 -0.757812 2.335938 -0.660156 2.453125 -0.640625 C 2.566406 -0.617188 2.769531 -0.644531 3.0625 -0.71875 C 3.5 -0.875 4.054688 -1.195312 4.734375 -1.6875 C 5.273438 -2.070312 5.679688 -2.289062 5.953125 -2.34375 C 6.234375 -2.394531 6.457031 -2.289062 6.625 -2.03125 Z M 6.625 -2.03125 "/></g></g></g><g fill="#3a003d" fill-opacity="1"><g transform="translate(120.906462, 24.642859)"><g><path d="M 8.171875 -3 C 8.410156 -3.195312 8.613281 -3.273438 8.78125 -3.234375 C 8.957031 -3.203125 9.046875 -3.035156 9.046875 -2.734375 C 9.046875 -2.671875 9.035156 -2.597656 9.015625 -2.515625 C 8.992188 -2.441406 8.960938 -2.375 8.921875 -2.3125 C 8.890625 -2.257812 8.84375 -2.203125 8.78125 -2.140625 C 8.726562 -2.078125 8.671875 -2.019531 8.609375 -1.96875 C 8.554688 -1.925781 8.488281 -1.878906 8.40625 -1.828125 C 8.332031 -1.773438 8.269531 -1.726562 8.21875 -1.6875 C 8.164062 -1.65625 8.101562 -1.609375 8.03125 -1.546875 C 7.957031 -1.492188 7.90625 -1.457031 7.875 -1.4375 C 7.625 -1.269531 7.359375 -1.128906 7.078125 -1.015625 C 7.054688 -1.003906 7.003906 -0.976562 6.921875 -0.9375 C 6.640625 -0.632812 6.382812 -0.429688 6.15625 -0.328125 C 5.945312 -0.242188 5.664062 -0.191406 5.3125 -0.171875 C 4.957031 -0.0664062 4.710938 -0.078125 4.578125 -0.203125 C 4.535156 -0.203125 4.410156 -0.210938 4.203125 -0.234375 C 3.992188 -0.253906 3.851562 -0.265625 3.78125 -0.265625 C 3.707031 -0.273438 3.59375 -0.28125 3.4375 -0.28125 C 3.28125 -0.28125 3.144531 -0.265625 3.03125 -0.234375 C 2.925781 -0.203125 2.820312 -0.160156 2.71875 -0.109375 C 2.582031 -0.0234375 2.40625 0.0078125 2.1875 0 C 1.976562 -0.0078125 1.613281 -0.0507812 1.09375 -0.125 C 0.726562 -0.175781 0.414062 -0.210938 0.15625 -0.234375 C 0.101562 -0.234375 0.046875 -0.234375 -0.015625 -0.234375 C -0.078125 -0.234375 -0.144531 -0.234375 -0.21875 -0.234375 C -0.289062 -0.242188 -0.347656 -0.265625 -0.390625 -0.296875 C -0.515625 -0.367188 -0.660156 -0.65625 -0.828125 -1.15625 C -0.921875 -1.445312 -0.976562 -1.742188 -1 -2.046875 C -1.019531 -2.171875 -1.019531 -2.269531 -1 -2.34375 C -0.945312 -2.613281 -0.863281 -2.78125 -0.75 -2.84375 C -0.707031 -2.863281 -0.625 -2.882812 -0.5 -2.90625 C -0.382812 -2.925781 -0.300781 -2.960938 -0.25 -3.015625 C -0.15625 -3.085938 -0.078125 -3.207031 -0.015625 -3.375 C 0.046875 -3.5625 0.0820312 -3.75 0.09375 -3.9375 C 0.101562 -4.101562 0.117188 -4.210938 0.140625 -4.265625 C 0.179688 -4.328125 0.265625 -4.394531 0.390625 -4.46875 C 0.515625 -4.550781 0.582031 -4.597656 0.59375 -4.609375 C 0.71875 -4.710938 0.828125 -4.851562 0.921875 -5.03125 C 0.960938 -5.125 1.046875 -5.421875 1.171875 -5.921875 C 1.285156 -6.316406 1.378906 -6.71875 1.453125 -7.125 C 1.535156 -7.53125 1.59375 -7.875 1.625 -8.15625 C 1.675781 -8.8125 1.742188 -9.195312 1.828125 -9.3125 C 1.921875 -9.4375 2.09375 -9.492188 2.34375 -9.484375 C 2.59375 -9.484375 2.804688 -9.410156 2.984375 -9.265625 C 3.066406 -9.210938 3.140625 -9.125 3.203125 -9 C 3.273438 -8.882812 3.328125 -8.78125 3.359375 -8.6875 C 3.390625 -8.59375 3.429688 -8.457031 3.484375 -8.28125 C 3.535156 -8.113281 3.570312 -8.003906 3.59375 -7.953125 C 3.78125 -7.378906 3.914062 -6.847656 4 -6.359375 C 4.03125 -6.171875 4.066406 -5.894531 4.109375 -5.53125 C 4.148438 -5.164062 4.195312 -4.832031 4.25 -4.53125 C 4.300781 -4.238281 4.378906 -3.96875 4.484375 -3.71875 C 4.648438 -3.25 4.707031 -2.828125 4.65625 -2.453125 C 4.625 -2.222656 4.609375 -2.007812 4.609375 -1.8125 C 4.609375 -1.613281 4.671875 -1.445312 4.796875 -1.3125 C 4.929688 -1.1875 5.132812 -1.132812 5.40625 -1.15625 C 5.53125 -1.164062 5.648438 -1.191406 5.765625 -1.234375 C 5.878906 -1.273438 5.972656 -1.316406 6.046875 -1.359375 C 6.128906 -1.398438 6.234375 -1.46875 6.359375 -1.5625 C 6.484375 -1.664062 6.566406 -1.734375 6.609375 -1.765625 C 6.648438 -1.804688 6.738281 -1.890625 6.875 -2.015625 C 7.03125 -2.160156 7.273438 -2.351562 7.609375 -2.59375 C 7.941406 -2.832031 8.128906 -2.96875 8.171875 -3 Z M 2.375 -1.921875 C 2.851562 -2.023438 3.132812 -2.257812 3.21875 -2.625 C 3.300781 -2.988281 3.210938 -3.578125 2.953125 -4.390625 C 2.691406 -5.171875 2.523438 -5.5625 2.453125 -5.5625 C 2.378906 -5.5625 2.316406 -5.410156 2.265625 -5.109375 C 2.203125 -4.835938 2.125 -4.640625 2.03125 -4.515625 C 1.90625 -4.328125 1.703125 -3.9375 1.421875 -3.34375 C 1.148438 -2.757812 1.035156 -2.4375 1.078125 -2.375 C 1.128906 -2.300781 1.234375 -2.222656 1.390625 -2.140625 C 1.554688 -2.054688 1.726562 -1.992188 1.90625 -1.953125 C 2.09375 -1.910156 2.25 -1.898438 2.375 -1.921875 Z M 2.375 -1.921875 "/></g></g></g><g fill="#3a003d" fill-opacity="1"><g transform="translate(127.835382, 24.642859)"><g><path d="M 10.15625 -1.9375 C 10.363281 -2.09375 10.535156 -2.15625 10.671875 -2.125 C 10.816406 -2.101562 10.890625 -1.96875 10.890625 -1.71875 C 10.890625 -1.664062 10.878906 -1.609375 10.859375 -1.546875 C 10.835938 -1.484375 10.8125 -1.425781 10.78125 -1.375 C 10.757812 -1.332031 10.722656 -1.285156 10.671875 -1.234375 C 10.617188 -1.179688 10.570312 -1.132812 10.53125 -1.09375 C 10.488281 -1.050781 10.429688 -1.003906 10.359375 -0.953125 C 10.296875 -0.910156 10.242188 -0.875 10.203125 -0.84375 C 10.160156 -0.820312 10.109375 -0.789062 10.046875 -0.75 C 9.984375 -0.707031 9.9375 -0.675781 9.90625 -0.65625 C 9.707031 -0.507812 9.492188 -0.390625 9.265625 -0.296875 C 9.242188 -0.285156 9.117188 -0.222656 8.890625 -0.109375 L 8.8125 -0.015625 C 8.519531 0.253906 8.109375 0.421875 7.578125 0.484375 C 7.234375 0.535156 6.96875 0.539062 6.78125 0.5 C 6.601562 0.457031 6.347656 0.363281 6.015625 0.21875 C 5.523438 -0.0078125 5.203125 -0.195312 5.046875 -0.34375 C 4.941406 -0.425781 4.851562 -0.460938 4.78125 -0.453125 C 4.707031 -0.441406 4.566406 -0.359375 4.359375 -0.203125 C 3.710938 0.253906 2.941406 0.515625 2.046875 0.578125 C 1.160156 0.640625 0.578125 0.460938 0.296875 0.046875 C 0.128906 -0.210938 0.0507812 -0.722656 0.0625 -1.484375 C 0.0820312 -2.253906 0.179688 -2.800781 0.359375 -3.125 C 0.523438 -3.414062 0.648438 -3.628906 0.734375 -3.765625 C 0.828125 -3.898438 0.914062 -4.023438 1 -4.140625 C 1.082031 -4.265625 1.222656 -4.453125 1.421875 -4.703125 C 2.085938 -5.523438 2.613281 -6.085938 3 -6.390625 C 3.289062 -6.628906 3.640625 -6.828125 4.046875 -6.984375 C 4.453125 -7.148438 4.875 -7.257812 5.3125 -7.3125 C 5.75 -7.363281 6.140625 -7.304688 6.484375 -7.140625 C 6.890625 -6.929688 7.140625 -6.566406 7.234375 -6.046875 C 7.328125 -5.535156 7.316406 -5.039062 7.203125 -4.5625 C 7.085938 -4.082031 6.925781 -3.628906 6.71875 -3.203125 C 6.53125 -2.804688 6.390625 -2.367188 6.296875 -1.890625 C 6.210938 -1.410156 6.21875 -1.097656 6.3125 -0.953125 C 6.519531 -0.546875 7.179688 -0.519531 8.296875 -0.875 C 8.335938 -0.882812 8.378906 -0.890625 8.421875 -0.890625 C 8.492188 -0.910156 8.546875 -0.929688 8.578125 -0.953125 C 9.253906 -1.296875 9.78125 -1.625 10.15625 -1.9375 Z M 5.359375 -4.921875 C 5.484375 -4.984375 5.550781 -5.035156 5.5625 -5.078125 C 5.570312 -5.117188 5.546875 -5.171875 5.484375 -5.234375 C 5.347656 -5.367188 5.164062 -5.457031 4.9375 -5.5 C 4.707031 -5.550781 4.476562 -5.546875 4.25 -5.484375 C 4.03125 -5.421875 3.695312 -5.203125 3.25 -4.828125 C 2.800781 -4.460938 2.492188 -4.148438 2.328125 -3.890625 C 2.117188 -3.578125 1.941406 -3.300781 1.796875 -3.0625 C 1.617188 -2.8125 1.492188 -2.441406 1.421875 -1.953125 C 1.359375 -1.460938 1.390625 -1.144531 1.515625 -1 C 1.617188 -0.875 1.847656 -0.8125 2.203125 -0.8125 C 2.566406 -0.8125 2.90625 -0.867188 3.21875 -0.984375 C 3.53125 -1.128906 3.757812 -1.351562 3.90625 -1.65625 C 4.15625 -2.144531 4.363281 -2.546875 4.53125 -2.859375 C 4.800781 -3.335938 4.9375 -3.660156 4.9375 -3.828125 C 4.9375 -3.929688 4.976562 -4.035156 5.0625 -4.140625 C 5.15625 -4.253906 5.179688 -4.378906 5.140625 -4.515625 C 5.085938 -4.679688 5.160156 -4.816406 5.359375 -4.921875 Z M 5.359375 -4.921875 "/></g></g></g><g fill="#3a003d" fill-opacity="1"><g transform="translate(136.661278, 24.642859)"><g><path d="M -0.65625 -2.1875 C -0.476562 -2.476562 -0.148438 -3.132812 0.328125 -4.15625 C 0.816406 -5.175781 1.238281 -5.890625 1.59375 -6.296875 C 1.644531 -6.367188 1.703125 -6.441406 1.765625 -6.515625 C 1.890625 -6.648438 2.0625 -6.75 2.28125 -6.8125 C 2.507812 -6.882812 2.710938 -6.878906 2.890625 -6.796875 C 2.953125 -6.753906 2.992188 -6.640625 3.015625 -6.453125 C 3.046875 -6.273438 3.085938 -6.179688 3.140625 -6.171875 C 3.210938 -6.160156 3.394531 -6.257812 3.6875 -6.46875 C 4.164062 -6.800781 4.929688 -7.078125 5.984375 -7.296875 C 6.410156 -7.410156 6.6875 -7.453125 6.8125 -7.421875 C 6.9375 -7.398438 7.09375 -7.304688 7.28125 -7.140625 C 7.53125 -6.898438 7.660156 -6.601562 7.671875 -6.25 C 7.679688 -5.90625 7.5625 -5.578125 7.3125 -5.265625 C 7.132812 -5.003906 6.898438 -4.484375 6.609375 -3.703125 C 6.328125 -2.921875 6.1875 -2.378906 6.1875 -2.078125 C 6.1875 -1.867188 6.257812 -1.640625 6.40625 -1.390625 C 6.550781 -1.140625 6.722656 -0.929688 6.921875 -0.765625 C 7.128906 -0.609375 7.320312 -0.53125 7.5 -0.53125 C 7.75 -0.53125 8.28125 -0.738281 9.09375 -1.15625 C 9.90625 -1.582031 10.546875 -1.984375 11.015625 -2.359375 C 11.367188 -2.628906 11.617188 -2.753906 11.765625 -2.734375 C 11.910156 -2.722656 11.984375 -2.566406 11.984375 -2.265625 C 11.984375 -2.140625 11.925781 -1.992188 11.8125 -1.828125 C 11.707031 -1.671875 11.5625 -1.5 11.375 -1.3125 C 11.1875 -1.144531 10.960938 -0.972656 10.703125 -0.796875 C 10.453125 -0.628906 10.195312 -0.488281 9.9375 -0.375 C 9.238281 -0.0507812 8.734375 0.179688 8.421875 0.328125 C 7.898438 0.578125 7.429688 0.644531 7.015625 0.53125 C 6.609375 0.425781 6.132812 0.101562 5.59375 -0.4375 C 5.144531 -0.882812 4.878906 -1.191406 4.796875 -1.359375 C 4.722656 -1.523438 4.6875 -1.835938 4.6875 -2.296875 C 4.6875 -2.972656 4.804688 -3.675781 5.046875 -4.40625 C 5.253906 -5.144531 5.335938 -5.546875 5.296875 -5.609375 C 5.234375 -5.671875 4.804688 -5.328125 4.015625 -4.578125 C 3.222656 -3.828125 2.445312 -3.035156 1.6875 -2.203125 C 0.925781 -1.378906 0.546875 -0.90625 0.546875 -0.78125 C 0.546875 -0.675781 0.476562 -0.554688 0.34375 -0.421875 C 0.207031 -0.296875 0.046875 -0.191406 -0.140625 -0.109375 C -0.328125 -0.0351562 -0.5 -0.015625 -0.65625 -0.046875 C -0.894531 -0.078125 -1.0625 -0.269531 -1.15625 -0.625 C -1.226562 -0.851562 -1.238281 -1.054688 -1.1875 -1.234375 C -1.132812 -1.421875 -0.957031 -1.738281 -0.65625 -2.1875 Z M -0.65625 -2.1875 "/></g></g></g><g fill="#3a003d" fill-opacity="1"><g transform="translate(146.717433, 24.642859)"><g><path d="M 8.171875 -3 C 8.410156 -3.195312 8.613281 -3.273438 8.78125 -3.234375 C 8.957031 -3.203125 9.046875 -3.035156 9.046875 -2.734375 C 9.046875 -2.671875 9.035156 -2.597656 9.015625 -2.515625 C 8.992188 -2.441406 8.960938 -2.375 8.921875 -2.3125 C 8.890625 -2.257812 8.84375 -2.203125 8.78125 -2.140625 C 8.726562 -2.078125 8.671875 -2.019531 8.609375 -1.96875 C 8.554688 -1.925781 8.488281 -1.878906 8.40625 -1.828125 C 8.332031 -1.773438 8.269531 -1.726562 8.21875 -1.6875 C 8.164062 -1.65625 8.101562 -1.609375 8.03125 -1.546875 C 7.957031 -1.492188 7.90625 -1.457031 7.875 -1.4375 C 7.625 -1.269531 7.359375 -1.128906 7.078125 -1.015625 C 7.054688 -1.003906 7.003906 -0.976562 6.921875 -0.9375 C 6.640625 -0.632812 6.382812 -0.429688 6.15625 -0.328125 C 5.945312 -0.242188 5.664062 -0.191406 5.3125 -0.171875 C 4.957031 -0.0664062 4.710938 -0.078125 4.578125 -0.203125 C 4.535156 -0.203125 4.410156 -0.210938 4.203125 -0.234375 C 3.992188 -0.253906 3.851562 -0.265625 3.78125 -0.265625 C 3.707031 -0.273438 3.59375 -0.28125 3.4375 -0.28125 C 3.28125 -0.28125 3.144531 -0.265625 3.03125 -0.234375 C 2.925781 -0.203125 2.820312 -0.160156 2.71875 -0.109375 C 2.582031 -0.0234375 2.40625 0.0078125 2.1875 0 C 1.976562 -0.0078125 1.613281 -0.0507812 1.09375 -0.125 C 0.726562 -0.175781 0.414062 -0.210938 0.15625 -0.234375 C 0.101562 -0.234375 0.046875 -0.234375 -0.015625 -0.234375 C -0.078125 -0.234375 -0.144531 -0.234375 -0.21875 -0.234375 C -0.289062 -0.242188 -0.347656 -0.265625 -0.390625 -0.296875 C -0.515625 -0.367188 -0.660156 -0.65625 -0.828125 -1.15625 C -0.921875 -1.445312 -0.976562 -1.742188 -1 -2.046875 C -1.019531 -2.171875 -1.019531 -2.269531 -1 -2.34375 C -0.945312 -2.613281 -0.863281 -2.78125 -0.75 -2.84375 C -0.707031 -2.863281 -0.625 -2.882812 -0.5 -2.90625 C -0.382812 -2.925781 -0.300781 -2.960938 -0.25 -3.015625 C -0.15625 -3.085938 -0.078125 -3.207031 -0.015625 -3.375 C 0.046875 -3.5625 0.0820312 -3.75 0.09375 -3.9375 C 0.101562 -4.101562 0.117188 -4.210938 0.140625 -4.265625 C 0.179688 -4.328125 0.265625 -4.394531 0.390625 -4.46875 C 0.515625 -4.550781 0.582031 -4.597656 0.59375 -4.609375 C 0.71875 -4.710938 0.828125 -4.851562 0.921875 -5.03125 C 0.960938 -5.125 1.046875 -5.421875 1.171875 -5.921875 C 1.285156 -6.316406 1.378906 -6.71875 1.453125 -7.125 C 1.535156 -7.53125 1.59375 -7.875 1.625 -8.15625 C 1.675781 -8.8125 1.742188 -9.195312 1.828125 -9.3125 C 1.921875 -9.4375 2.09375 -9.492188 2.34375 -9.484375 C 2.59375 -9.484375 2.804688 -9.410156 2.984375 -9.265625 C 3.066406 -9.210938 3.140625 -9.125 3.203125 -9 C 3.273438 -8.882812 3.328125 -8.78125 3.359375 -8.6875 C 3.390625 -8.59375 3.429688 -8.457031 3.484375 -8.28125 C 3.535156 -8.113281 3.570312 -8.003906 3.59375 -7.953125 C 3.78125 -7.378906 3.914062 -6.847656 4 -6.359375 C 4.03125 -6.171875 4.066406 -5.894531 4.109375 -5.53125 C 4.148438 -5.164062 4.195312 -4.832031 4.25 -4.53125 C 4.300781 -4.238281 4.378906 -3.96875 4.484375 -3.71875 C 4.648438 -3.25 4.707031 -2.828125 4.65625 -2.453125 C 4.625 -2.222656 4.609375 -2.007812 4.609375 -1.8125 C 4.609375 -1.613281 4.671875 -1.445312 4.796875 -1.3125 C 4.929688 -1.1875 5.132812 -1.132812 5.40625 -1.15625 C 5.53125 -1.164062 5.648438 -1.191406 5.765625 -1.234375 C 5.878906 -1.273438 5.972656 -1.316406 6.046875 -1.359375 C 6.128906 -1.398438 6.234375 -1.46875 6.359375 -1.5625 C 6.484375 -1.664062 6.566406 -1.734375 6.609375 -1.765625 C 6.648438 -1.804688 6.738281 -1.890625 6.875 -2.015625 C 7.03125 -2.160156 7.273438 -2.351562 7.609375 -2.59375 C 7.941406 -2.832031 8.128906 -2.96875 8.171875 -3 Z M 2.375 -1.921875 C 2.851562 -2.023438 3.132812 -2.257812 3.21875 -2.625 C 3.300781 -2.988281 3.210938 -3.578125 2.953125 -4.390625 C 2.691406 -5.171875 2.523438 -5.5625 2.453125 -5.5625 C 2.378906 -5.5625 2.316406 -5.410156 2.265625 -5.109375 C 2.203125 -4.835938 2.125 -4.640625 2.03125 -4.515625 C 1.90625 -4.328125 1.703125 -3.9375 1.421875 -3.34375 C 1.148438 -2.757812 1.035156 -2.4375 1.078125 -2.375 C 1.128906 -2.300781 1.234375 -2.222656 1.390625 -2.140625 C 1.554688 -2.054688 1.726562 -1.992188 1.90625 -1.953125 C 2.09375 -1.910156 2.25 -1.898438 2.375 -1.921875 Z M 2.375 -1.921875 "/></g></g></g><g fill="#ff5a19" fill-opacity="1"><g transform="translate(89.347225, 41.332737)"><g><path d="M 11.0625 -5 C 11.0625 -4.832031 11.046875 -4.597656 11.015625 -4.296875 L 3.09375 -4.296875 C 3.226562 -3.554688 3.585938 -2.96875 4.171875 -2.53125 C 4.765625 -2.09375 5.492188 -1.875 6.359375 -1.875 C 7.472656 -1.875 8.390625 -2.238281 9.109375 -2.96875 L 10.375 -1.515625 C 9.925781 -0.972656 9.351562 -0.5625 8.65625 -0.28125 C 7.957031 -0.0078125 7.175781 0.125 6.3125 0.125 C 5.195312 0.125 4.21875 -0.09375 3.375 -0.53125 C 2.53125 -0.96875 1.875 -1.582031 1.40625 -2.375 C 0.945312 -3.164062 0.71875 -4.0625 0.71875 -5.0625 C 0.71875 -6.039062 0.941406 -6.925781 1.390625 -7.71875 C 1.835938 -8.507812 2.457031 -9.125 3.25 -9.5625 C 4.050781 -10 4.953125 -10.21875 5.953125 -10.21875 C 6.929688 -10.21875 7.804688 -10 8.578125 -9.5625 C 9.359375 -9.132812 9.96875 -8.523438 10.40625 -7.734375 C 10.84375 -6.941406 11.0625 -6.03125 11.0625 -5 Z M 5.953125 -8.328125 C 5.191406 -8.328125 4.546875 -8.101562 4.015625 -7.65625 C 3.492188 -7.207031 3.175781 -6.613281 3.0625 -5.875 L 8.8125 -5.875 C 8.707031 -6.601562 8.394531 -7.191406 7.875 -7.640625 C 7.363281 -8.097656 6.722656 -8.328125 5.953125 -8.328125 Z M 5.953125 -8.328125 "/></g></g></g><g fill="#ff5a19" fill-opacity="1"><g transform="translate(99.814826, 41.332737)"><g><path d="M 1.046875 -6.25 L 6.25 -6.25 L 6.25 -4.28125 L 1.046875 -4.28125 Z M 1.046875 -6.25 "/></g></g></g><g fill="#ff5a19" fill-opacity="1"><g transform="translate(105.796199, 41.332737)"><g><path d="M 5.890625 0.1875 C 4.867188 0.1875 3.878906 0.0390625 2.921875 -0.25 C 1.972656 -0.539062 1.21875 -0.925781 0.65625 -1.40625 L 1.515625 -3.3125 C 2.054688 -2.882812 2.722656 -2.535156 3.515625 -2.265625 C 4.304688 -1.992188 5.097656 -1.859375 5.890625 -1.859375 C 6.867188 -1.859375 7.601562 -2.015625 8.09375 -2.328125 C 8.582031 -2.640625 8.828125 -3.054688 8.828125 -3.578125 C 8.828125 -3.953125 8.691406 -4.265625 8.421875 -4.515625 C 8.148438 -4.765625 7.804688 -4.957031 7.390625 -5.09375 C 6.972656 -5.226562 6.40625 -5.382812 5.6875 -5.5625 C 4.675781 -5.800781 3.859375 -6.039062 3.234375 -6.28125 C 2.609375 -6.519531 2.070312 -6.894531 1.625 -7.40625 C 1.175781 -7.925781 0.953125 -8.617188 0.953125 -9.484375 C 0.953125 -10.222656 1.148438 -10.890625 1.546875 -11.484375 C 1.941406 -12.085938 2.539062 -12.566406 3.34375 -12.921875 C 4.144531 -13.273438 5.125 -13.453125 6.28125 -13.453125 C 7.09375 -13.453125 7.890625 -13.347656 8.671875 -13.140625 C 9.453125 -12.941406 10.128906 -12.648438 10.703125 -12.265625 L 9.921875 -10.359375 C 9.335938 -10.703125 8.726562 -10.960938 8.09375 -11.140625 C 7.46875 -11.316406 6.859375 -11.40625 6.265625 -11.40625 C 5.296875 -11.40625 4.570312 -11.238281 4.09375 -10.90625 C 3.625 -10.582031 3.390625 -10.144531 3.390625 -9.59375 C 3.390625 -9.21875 3.523438 -8.910156 3.796875 -8.671875 C 4.066406 -8.429688 4.410156 -8.238281 4.828125 -8.09375 C 5.242188 -7.957031 5.8125 -7.800781 6.53125 -7.625 C 7.519531 -7.40625 8.328125 -7.171875 8.953125 -6.921875 C 9.585938 -6.671875 10.128906 -6.289062 10.578125 -5.78125 C 11.023438 -5.28125 11.25 -4.601562 11.25 -3.75 C 11.25 -3.019531 11.050781 -2.359375 10.65625 -1.765625 C 10.257812 -1.171875 9.65625 -0.695312 8.84375 -0.34375 C 8.03125 0.0078125 7.046875 0.1875 5.890625 0.1875 Z M 5.890625 0.1875 "/></g></g></g><g fill="#ff5a19" fill-opacity="1"><g transform="translate(116.396307, 41.332737)"><g><path d="M 7.296875 -10.21875 C 8.566406 -10.21875 9.585938 -9.84375 10.359375 -9.09375 C 11.128906 -8.351562 11.515625 -7.253906 11.515625 -5.796875 L 11.515625 0 L 9.140625 0 L 9.140625 -5.484375 C 9.140625 -6.367188 8.929688 -7.035156 8.515625 -7.484375 C 8.097656 -7.929688 7.503906 -8.15625 6.734375 -8.15625 C 5.867188 -8.15625 5.179688 -7.894531 4.671875 -7.375 C 4.171875 -6.851562 3.921875 -6.097656 3.921875 -5.109375 L 3.921875 0 L 1.546875 0 L 1.546875 -14.046875 L 3.921875 -14.046875 L 3.921875 -8.9375 C 4.304688 -9.351562 4.785156 -9.671875 5.359375 -9.890625 C 5.941406 -10.109375 6.585938 -10.21875 7.296875 -10.21875 Z M 7.296875 -10.21875 "/></g></g></g><g fill="#ff5a19" fill-opacity="1"><g transform="translate(128.056452, 41.332737)"><g><path d="M 6.09375 0.125 C 5.070312 0.125 4.148438 -0.09375 3.328125 -0.53125 C 2.515625 -0.96875 1.875 -1.582031 1.40625 -2.375 C 0.945312 -3.164062 0.71875 -4.0625 0.71875 -5.0625 C 0.71875 -6.050781 0.945312 -6.9375 1.40625 -7.71875 C 1.875 -8.507812 2.515625 -9.125 3.328125 -9.5625 C 4.148438 -10 5.070312 -10.21875 6.09375 -10.21875 C 7.132812 -10.21875 8.0625 -10 8.875 -9.5625 C 9.695312 -9.125 10.335938 -8.507812 10.796875 -7.71875 C 11.265625 -6.9375 11.5 -6.050781 11.5 -5.0625 C 11.5 -4.0625 11.265625 -3.164062 10.796875 -2.375 C 10.335938 -1.582031 9.695312 -0.96875 8.875 -0.53125 C 8.0625 -0.09375 7.132812 0.125 6.09375 0.125 Z M 6.09375 -1.890625 C 6.96875 -1.890625 7.6875 -2.179688 8.25 -2.765625 C 8.820312 -3.347656 9.109375 -4.113281 9.109375 -5.0625 C 9.109375 -6.007812 8.820312 -6.769531 8.25 -7.34375 C 7.6875 -7.925781 6.96875 -8.21875 6.09375 -8.21875 C 5.226562 -8.21875 4.515625 -7.925781 3.953125 -7.34375 C 3.390625 -6.769531 3.109375 -6.007812 3.109375 -5.0625 C 3.109375 -4.113281 3.390625 -3.347656 3.953125 -2.765625 C 4.515625 -2.179688 5.226562 -1.890625 6.09375 -1.890625 Z M 6.09375 -1.890625 "/></g></g></g><g fill="#ff5a19" fill-opacity="1"><g transform="translate(138.959428, 41.332737)"><g><path d="M 7.15625 -10.21875 C 8.144531 -10.21875 9.023438 -10.003906 9.796875 -9.578125 C 10.578125 -9.148438 11.1875 -8.546875 11.625 -7.765625 C 12.070312 -6.984375 12.296875 -6.082031 12.296875 -5.0625 C 12.296875 -4.03125 12.070312 -3.117188 11.625 -2.328125 C 11.1875 -1.546875 10.578125 -0.941406 9.796875 -0.515625 C 9.023438 -0.0859375 8.144531 0.125 7.15625 0.125 C 5.789062 0.125 4.710938 -0.328125 3.921875 -1.234375 L 3.921875 3.671875 L 1.546875 3.671875 L 1.546875 -10.109375 L 3.8125 -10.109375 L 3.8125 -8.78125 C 4.195312 -9.257812 4.675781 -9.617188 5.25 -9.859375 C 5.820312 -10.097656 6.457031 -10.21875 7.15625 -10.21875 Z M 6.890625 -1.890625 C 7.765625 -1.890625 8.484375 -2.179688 9.046875 -2.765625 C 9.609375 -3.347656 9.890625 -4.113281 9.890625 -5.0625 C 9.890625 -6.007812 9.609375 -6.769531 9.046875 -7.34375 C 8.484375 -7.925781 7.765625 -8.21875 6.890625 -8.21875 C 6.328125 -8.21875 5.816406 -8.085938 5.359375 -7.828125 C 4.898438 -7.566406 4.535156 -7.195312 4.265625 -6.71875 C 4.003906 -6.238281 3.875 -5.6875 3.875 -5.0625 C 3.875 -4.425781 4.003906 -3.867188 4.265625 -3.390625 C 4.535156 -2.910156 4.898438 -2.539062 5.359375 -2.28125 C 5.816406 -2.019531 6.328125 -1.890625 6.890625 -1.890625 Z M 6.890625 -1.890625 "/></g></g></g><g mask="url(#19347d12f4)"><g transform="matrix(1, 0, 0, 1, 62, 37)"><g clip-path="url(#da457a8e0b)"><g clip-path="url(#add6a0e77e)"><g fill="#ffffff" fill-opacity="1"><g transform="translate(0.662486, 4.065267)"><g><path d="M 2 -0.296875 C 2.03125 -0.328125 2.054688 -0.335938 2.078125 -0.328125 C 2.109375 -0.328125 2.125 -0.304688 2.125 -0.265625 C 2.125 -0.253906 2.117188 -0.238281 2.109375 -0.21875 C 2.109375 -0.207031 2.101562 -0.195312 2.09375 -0.1875 C 2.082031 -0.175781 2.066406 -0.164062 2.046875 -0.15625 C 2.035156 -0.144531 2.023438 -0.132812 2.015625 -0.125 C 2.015625 -0.113281 2.003906 -0.101562 1.984375 -0.09375 C 1.960938 -0.0820312 1.953125 -0.078125 1.953125 -0.078125 C 1.921875 -0.0546875 1.882812 -0.0351562 1.84375 -0.015625 C 1.832031 -0.015625 1.816406 -0.0078125 1.796875 0 C 1.785156 0.0078125 1.769531 0.0195312 1.75 0.03125 C 1.726562 0.0390625 1.703125 0.0507812 1.671875 0.0625 C 1.640625 0.0820312 1.613281 0.09375 1.59375 0.09375 C 1.570312 0.101562 1.550781 0.109375 1.53125 0.109375 C 1.507812 0.117188 1.492188 0.117188 1.484375 0.109375 C 1.429688 0.0976562 1.359375 0.0664062 1.265625 0.015625 C 1.140625 -0.0546875 1.070312 -0.125 1.0625 -0.1875 C 1.039062 -0.226562 1.023438 -0.25 1.015625 -0.25 C 0.992188 -0.25 0.910156 -0.1875 0.765625 -0.0625 C 0.628906 0.03125 0.53125 0.0859375 0.46875 0.109375 C 0.414062 0.140625 0.363281 0.140625 0.3125 0.109375 C 0.257812 0.078125 0.207031 0.0351562 0.15625 -0.015625 C 0.113281 -0.078125 0.09375 -0.128906 0.09375 -0.171875 C 0.09375 -0.210938 0.101562 -0.28125 0.125 -0.375 C 0.15625 -0.476562 0.179688 -0.539062 0.203125 -0.5625 C 0.222656 -0.582031 0.234375 -0.613281 0.234375 -0.65625 C 0.234375 -0.6875 0.242188 -0.722656 0.265625 -0.765625 C 0.296875 -0.816406 0.3125 -0.859375 0.3125 -0.890625 C 0.3125 -0.929688 0.316406 -0.957031 0.328125 -0.96875 C 0.347656 -0.976562 0.390625 -1.039062 0.453125 -1.15625 C 0.503906 -1.269531 0.539062 -1.367188 0.5625 -1.453125 C 0.582031 -1.515625 0.609375 -1.570312 0.640625 -1.625 C 0.671875 -1.675781 0.691406 -1.695312 0.703125 -1.6875 C 0.722656 -1.675781 0.796875 -1.722656 0.921875 -1.828125 C 1.023438 -1.910156 1.109375 -1.96875 1.171875 -2 C 1.234375 -2.039062 1.316406 -2.078125 1.421875 -2.109375 C 1.515625 -2.140625 1.570312 -2.15625 1.59375 -2.15625 C 1.613281 -2.15625 1.65625 -2.128906 1.71875 -2.078125 C 1.757812 -2.046875 1.785156 -2.015625 1.796875 -1.984375 C 1.804688 -1.960938 1.8125 -1.929688 1.8125 -1.890625 C 1.8125 -1.816406 1.78125 -1.695312 1.71875 -1.53125 C 1.695312 -1.488281 1.664062 -1.410156 1.625 -1.296875 C 1.59375 -1.191406 1.554688 -1.109375 1.515625 -1.046875 C 1.484375 -0.992188 1.460938 -0.929688 1.453125 -0.859375 C 1.441406 -0.785156 1.425781 -0.734375 1.40625 -0.703125 C 1.40625 -0.691406 1.378906 -0.617188 1.328125 -0.484375 C 1.304688 -0.398438 1.289062 -0.34375 1.28125 -0.3125 C 1.28125 -0.289062 1.289062 -0.265625 1.3125 -0.234375 C 1.34375 -0.171875 1.378906 -0.140625 1.421875 -0.140625 C 1.460938 -0.140625 1.503906 -0.117188 1.546875 -0.078125 C 1.554688 -0.078125 1.5625 -0.078125 1.5625 -0.078125 C 1.5625 -0.078125 1.5625 -0.0703125 1.5625 -0.0625 C 1.582031 -0.0703125 1.609375 -0.0820312 1.640625 -0.09375 C 1.679688 -0.113281 1.707031 -0.125 1.71875 -0.125 C 1.832031 -0.1875 1.925781 -0.242188 2 -0.296875 Z M 1.171875 -0.96875 C 1.222656 -1.039062 1.257812 -1.117188 1.28125 -1.203125 C 1.320312 -1.304688 1.351562 -1.378906 1.375 -1.421875 C 1.394531 -1.453125 1.40625 -1.488281 1.40625 -1.53125 C 1.40625 -1.570312 1.414062 -1.597656 1.4375 -1.609375 C 1.445312 -1.617188 1.472656 -1.660156 1.515625 -1.734375 C 1.554688 -1.804688 1.566406 -1.847656 1.546875 -1.859375 C 1.535156 -1.878906 1.492188 -1.878906 1.421875 -1.859375 C 1.359375 -1.847656 1.300781 -1.828125 1.25 -1.796875 C 1.195312 -1.765625 1.140625 -1.710938 1.078125 -1.640625 C 1.015625 -1.566406 0.984375 -1.519531 0.984375 -1.5 C 0.984375 -1.476562 0.941406 -1.421875 0.859375 -1.328125 C 0.785156 -1.234375 0.75 -1.171875 0.75 -1.140625 C 0.75 -1.117188 0.71875 -1.066406 0.65625 -0.984375 C 0.59375 -0.890625 0.550781 -0.804688 0.53125 -0.734375 C 0.5 -0.648438 0.476562 -0.597656 0.46875 -0.578125 C 0.457031 -0.535156 0.453125 -0.503906 0.453125 -0.484375 C 0.453125 -0.460938 0.4375 -0.421875 0.40625 -0.359375 C 0.375 -0.304688 0.363281 -0.269531 0.375 -0.25 C 0.382812 -0.226562 0.414062 -0.21875 0.46875 -0.21875 C 0.507812 -0.21875 0.5625 -0.238281 0.625 -0.28125 C 0.695312 -0.332031 0.742188 -0.378906 0.765625 -0.421875 C 0.773438 -0.429688 0.785156 -0.441406 0.796875 -0.453125 C 0.804688 -0.472656 0.816406 -0.488281 0.828125 -0.5 C 0.847656 -0.519531 0.863281 -0.539062 0.875 -0.5625 C 1.019531 -0.75 1.117188 -0.882812 1.171875 -0.96875 Z M 1.171875 -0.96875 "/></g></g></g></g><g fill="#ffffff" fill-opacity="1"><g transform="translate(2.465052, 4.065267)"><g><path d="M 1.453125 -0.359375 C 1.484375 -0.390625 1.507812 -0.398438 1.53125 -0.390625 C 1.5625 -0.390625 1.578125 -0.367188 1.578125 -0.328125 C 1.578125 -0.316406 1.570312 -0.304688 1.5625 -0.296875 C 1.5625 -0.285156 1.554688 -0.273438 1.546875 -0.265625 C 1.535156 -0.253906 1.523438 -0.242188 1.515625 -0.234375 C 1.515625 -0.222656 1.507812 -0.210938 1.5 -0.203125 C 1.488281 -0.191406 1.476562 -0.179688 1.46875 -0.171875 C 1.457031 -0.171875 1.441406 -0.164062 1.421875 -0.15625 C 1.410156 -0.15625 1.40625 -0.148438 1.40625 -0.140625 C 1.363281 -0.117188 1.328125 -0.101562 1.296875 -0.09375 C 1.285156 -0.0820312 1.28125 -0.078125 1.28125 -0.078125 C 1.28125 -0.0664062 1.273438 -0.0625 1.265625 -0.0625 C 1.253906 -0.0507812 1.238281 -0.046875 1.21875 -0.046875 C 1.1875 -0.0234375 1.132812 -0.0078125 1.0625 0 C 1 0 0.9375 0 0.875 0 C 0.820312 0 0.785156 -0.00390625 0.765625 -0.015625 C 0.753906 -0.0234375 0.738281 -0.046875 0.71875 -0.078125 C 0.707031 -0.109375 0.695312 -0.132812 0.6875 -0.15625 C 0.675781 -0.1875 0.664062 -0.210938 0.65625 -0.234375 C 0.644531 -0.273438 0.644531 -0.320312 0.65625 -0.375 C 0.65625 -0.425781 0.660156 -0.503906 0.671875 -0.609375 L 0.671875 -0.640625 C 0.671875 -0.648438 0.664062 -0.65625 0.65625 -0.65625 C 0.65625 -0.65625 0.648438 -0.660156 0.640625 -0.671875 C 0.628906 -0.671875 0.617188 -0.671875 0.609375 -0.671875 C 0.585938 -0.671875 0.566406 -0.671875 0.546875 -0.671875 C 0.523438 -0.679688 0.503906 -0.6875 0.484375 -0.6875 C 0.460938 -0.695312 0.441406 -0.703125 0.421875 -0.703125 C 0.421875 -0.703125 0.414062 -0.675781 0.40625 -0.625 C 0.394531 -0.582031 0.378906 -0.535156 0.359375 -0.484375 C 0.335938 -0.429688 0.320312 -0.398438 0.3125 -0.390625 C 0.257812 -0.359375 0.203125 -0.332031 0.140625 -0.3125 C 0.0546875 -0.300781 0.09375 -0.472656 0.25 -0.828125 C 0.25 -0.835938 0.253906 -0.859375 0.265625 -0.890625 C 0.273438 -0.921875 0.28125 -0.941406 0.28125 -0.953125 C 0.289062 -0.960938 0.300781 -0.976562 0.3125 -1 C 0.320312 -1.03125 0.328125 -1.050781 0.328125 -1.0625 C 0.335938 -1.082031 0.34375 -1.101562 0.34375 -1.125 C 0.351562 -1.144531 0.359375 -1.164062 0.359375 -1.1875 C 0.359375 -1.207031 0.359375 -1.226562 0.359375 -1.25 C 0.359375 -1.269531 0.375 -1.3125 0.40625 -1.375 C 0.4375 -1.4375 0.460938 -1.472656 0.484375 -1.484375 C 0.503906 -1.503906 0.535156 -1.507812 0.578125 -1.5 C 0.617188 -1.5 0.648438 -1.492188 0.671875 -1.484375 C 0.679688 -1.453125 0.679688 -1.363281 0.671875 -1.21875 C 0.648438 -1.113281 0.640625 -1.046875 0.640625 -1.015625 C 0.648438 -0.984375 0.660156 -0.960938 0.671875 -0.953125 C 0.691406 -0.929688 0.707031 -0.921875 0.71875 -0.921875 C 0.726562 -0.921875 0.753906 -0.9375 0.796875 -0.96875 C 0.847656 -1 0.882812 -1.007812 0.90625 -1 C 0.9375 -1 0.960938 -0.984375 0.984375 -0.953125 C 1.003906 -0.929688 1.015625 -0.910156 1.015625 -0.890625 C 1.015625 -0.867188 1 -0.832031 0.96875 -0.78125 C 0.945312 -0.695312 0.921875 -0.601562 0.890625 -0.5 C 0.878906 -0.414062 0.875 -0.351562 0.875 -0.3125 C 0.882812 -0.28125 0.910156 -0.238281 0.953125 -0.1875 C 0.972656 -0.15625 0.988281 -0.140625 1 -0.140625 C 1 -0.140625 1.003906 -0.140625 1.015625 -0.140625 C 1.023438 -0.148438 1.035156 -0.15625 1.046875 -0.15625 C 1.066406 -0.164062 1.078125 -0.171875 1.078125 -0.171875 C 1.128906 -0.179688 1.160156 -0.191406 1.171875 -0.203125 C 1.285156 -0.253906 1.378906 -0.304688 1.453125 -0.359375 Z M 1.453125 -0.359375 "/></g></g></g><g fill="#ffffff" fill-opacity="1"><g transform="translate(3.717681, 4.065267)"><g><path d="M 1.15625 -0.28125 C 1.1875 -0.300781 1.210938 -0.304688 1.234375 -0.296875 C 1.253906 -0.285156 1.265625 -0.257812 1.265625 -0.21875 C 1.265625 -0.207031 1.257812 -0.195312 1.25 -0.1875 C 1.25 -0.175781 1.242188 -0.164062 1.234375 -0.15625 C 1.222656 -0.144531 1.210938 -0.132812 1.203125 -0.125 C 1.203125 -0.125 1.191406 -0.117188 1.171875 -0.109375 C 1.160156 -0.0976562 1.148438 -0.0859375 1.140625 -0.078125 C 1.128906 -0.078125 1.117188 -0.0703125 1.109375 -0.0625 C 1.097656 -0.0625 1.085938 -0.0625 1.078125 -0.0625 C 1.046875 -0.0390625 1.007812 -0.0234375 0.96875 -0.015625 C 0.957031 -0.00390625 0.9375 0.0078125 0.90625 0.03125 C 0.875 0.0507812 0.832031 0.0703125 0.78125 0.09375 C 0.738281 0.125 0.703125 0.144531 0.671875 0.15625 C 0.628906 0.164062 0.585938 0.171875 0.546875 0.171875 C 0.503906 0.179688 0.457031 0.1875 0.40625 0.1875 C 0.363281 0.195312 0.320312 0.195312 0.28125 0.1875 C 0.238281 0.175781 0.203125 0.15625 0.171875 0.125 C 0.140625 0.09375 0.113281 0.0507812 0.09375 0 C 0.0703125 -0.0507812 0.0546875 -0.109375 0.046875 -0.171875 C 0.0351562 -0.242188 0.03125 -0.304688 0.03125 -0.359375 C 0.03125 -0.410156 0.0351562 -0.460938 0.046875 -0.515625 C 0.046875 -0.523438 0.0507812 -0.585938 0.0625 -0.703125 C 0.0820312 -0.828125 0.0976562 -0.953125 0.109375 -1.078125 L 0.140625 -1.25 C 0.117188 -1.257812 0.0820312 -1.265625 0.03125 -1.265625 C 0 -1.265625 -0.03125 -1.265625 -0.0625 -1.265625 C -0.132812 -1.265625 -0.1875 -1.269531 -0.21875 -1.28125 C -0.21875 -1.28125 -0.222656 -1.28125 -0.234375 -1.28125 C -0.242188 -1.28125 -0.253906 -1.28125 -0.265625 -1.28125 C -0.285156 -1.28125 -0.300781 -1.28125 -0.3125 -1.28125 C -0.320312 -1.28125 -0.328125 -1.28125 -0.328125 -1.28125 C -0.335938 -1.28125 -0.34375 -1.285156 -0.34375 -1.296875 C -0.34375 -1.316406 -0.332031 -1.332031 -0.3125 -1.34375 C -0.3125 -1.34375 -0.300781 -1.347656 -0.28125 -1.359375 C -0.269531 -1.367188 -0.253906 -1.378906 -0.234375 -1.390625 C -0.210938 -1.398438 -0.179688 -1.410156 -0.140625 -1.421875 C -0.109375 -1.429688 -0.0703125 -1.4375 -0.03125 -1.4375 C 0.0703125 -1.425781 0.140625 -1.421875 0.171875 -1.421875 C 0.203125 -1.429688 0.226562 -1.445312 0.25 -1.46875 C 0.289062 -1.507812 0.347656 -1.609375 0.421875 -1.765625 C 0.421875 -1.773438 0.425781 -1.785156 0.4375 -1.796875 C 0.457031 -1.859375 0.472656 -1.90625 0.484375 -1.9375 C 0.503906 -1.976562 0.53125 -2.023438 0.5625 -2.078125 C 0.59375 -2.128906 0.625 -2.171875 0.65625 -2.203125 C 0.695312 -2.242188 0.738281 -2.273438 0.78125 -2.296875 C 0.90625 -2.359375 0.96875 -2.351562 0.96875 -2.28125 C 0.96875 -2.238281 0.9375 -2.148438 0.875 -2.015625 C 0.863281 -1.972656 0.851562 -1.941406 0.84375 -1.921875 C 0.832031 -1.898438 0.820312 -1.867188 0.8125 -1.828125 C 0.8125 -1.796875 0.800781 -1.757812 0.78125 -1.71875 C 0.738281 -1.65625 0.707031 -1.601562 0.6875 -1.5625 C 0.65625 -1.507812 0.644531 -1.476562 0.65625 -1.46875 C 0.664062 -1.457031 0.742188 -1.441406 0.890625 -1.421875 C 0.984375 -1.410156 1.039062 -1.398438 1.0625 -1.390625 C 1.09375 -1.390625 1.101562 -1.378906 1.09375 -1.359375 C 1.09375 -1.328125 1.078125 -1.3125 1.046875 -1.3125 C 1.035156 -1.320312 1.007812 -1.328125 0.96875 -1.328125 C 0.9375 -1.316406 0.898438 -1.3125 0.859375 -1.3125 C 0.804688 -1.3125 0.757812 -1.304688 0.71875 -1.296875 C 0.664062 -1.296875 0.625 -1.289062 0.59375 -1.28125 C 0.582031 -1.28125 0.5625 -1.234375 0.53125 -1.140625 C 0.5 -1.046875 0.46875 -0.929688 0.4375 -0.796875 C 0.40625 -0.660156 0.382812 -0.570312 0.375 -0.53125 C 0.289062 -0.300781 0.300781 -0.144531 0.40625 -0.0625 C 0.445312 -0.0195312 0.484375 0 0.515625 0 C 0.546875 0 0.570312 -0.0078125 0.59375 -0.03125 C 0.601562 -0.03125 0.617188 -0.0351562 0.640625 -0.046875 C 0.671875 -0.0546875 0.695312 -0.0664062 0.71875 -0.078125 C 0.75 -0.0859375 0.78125 -0.0976562 0.8125 -0.109375 C 0.84375 -0.117188 0.859375 -0.125 0.859375 -0.125 C 0.972656 -0.175781 1.070312 -0.226562 1.15625 -0.28125 Z M 1.15625 -0.28125 "/></g></g></g><g fill="#ffffff" fill-opacity="1"><g transform="translate(4.678371, 4.065267)"><g><path d="M 0.546875 -1.375 C 0.503906 -1.363281 0.460938 -1.378906 0.421875 -1.421875 C 0.390625 -1.453125 0.375 -1.46875 0.375 -1.46875 C 0.375 -1.476562 0.382812 -1.492188 0.40625 -1.515625 C 0.4375 -1.535156 0.472656 -1.546875 0.515625 -1.546875 C 0.566406 -1.546875 0.601562 -1.535156 0.625 -1.515625 C 0.644531 -1.492188 0.644531 -1.46875 0.625 -1.4375 C 0.613281 -1.40625 0.585938 -1.382812 0.546875 -1.375 Z M 0.9375 -0.296875 C 0.945312 -0.273438 0.945312 -0.253906 0.9375 -0.234375 C 0.9375 -0.222656 0.910156 -0.195312 0.859375 -0.15625 C 0.785156 -0.09375 0.703125 -0.0351562 0.609375 0.015625 C 0.535156 0.046875 0.457031 0.0546875 0.375 0.046875 C 0.300781 0.046875 0.226562 0.03125 0.15625 0 C 0.09375 -0.0390625 0.0351562 -0.09375 -0.015625 -0.15625 C -0.0859375 -0.238281 -0.109375 -0.351562 -0.078125 -0.5 C -0.0664062 -0.507812 -0.0546875 -0.546875 -0.046875 -0.609375 C -0.046875 -0.671875 -0.0390625 -0.722656 -0.03125 -0.765625 C -0.0195312 -0.816406 -0.0078125 -0.847656 0 -0.859375 C 0.0195312 -0.878906 0.046875 -0.890625 0.078125 -0.890625 C 0.109375 -0.898438 0.140625 -0.898438 0.171875 -0.890625 C 0.203125 -0.890625 0.234375 -0.878906 0.265625 -0.859375 C 0.296875 -0.847656 0.316406 -0.832031 0.328125 -0.8125 C 0.335938 -0.789062 0.335938 -0.765625 0.328125 -0.734375 C 0.285156 -0.660156 0.265625 -0.609375 0.265625 -0.578125 C 0.265625 -0.554688 0.25 -0.523438 0.21875 -0.484375 C 0.195312 -0.453125 0.179688 -0.410156 0.171875 -0.359375 C 0.171875 -0.316406 0.179688 -0.289062 0.203125 -0.28125 C 0.210938 -0.28125 0.21875 -0.257812 0.21875 -0.21875 C 0.21875 -0.195312 0.238281 -0.171875 0.28125 -0.140625 C 0.3125 -0.109375 0.332031 -0.09375 0.34375 -0.09375 C 0.363281 -0.09375 0.394531 -0.0976562 0.4375 -0.109375 C 0.5 -0.128906 0.578125 -0.171875 0.671875 -0.234375 C 0.753906 -0.296875 0.8125 -0.328125 0.84375 -0.328125 C 0.882812 -0.335938 0.914062 -0.328125 0.9375 -0.296875 Z M 0.9375 -0.296875 "/></g></g></g><g fill="#ffffff" fill-opacity="1"><g transform="translate(5.276964, 4.065267)"><g><path d="M 1.171875 -0.421875 C 1.203125 -0.453125 1.226562 -0.460938 1.25 -0.453125 C 1.28125 -0.453125 1.296875 -0.429688 1.296875 -0.390625 C 1.296875 -0.378906 1.289062 -0.367188 1.28125 -0.359375 C 1.28125 -0.347656 1.273438 -0.335938 1.265625 -0.328125 C 1.265625 -0.316406 1.257812 -0.304688 1.25 -0.296875 C 1.238281 -0.296875 1.226562 -0.289062 1.21875 -0.28125 C 1.21875 -0.269531 1.210938 -0.257812 1.203125 -0.25 C 1.191406 -0.25 1.179688 -0.242188 1.171875 -0.234375 C 1.160156 -0.234375 1.148438 -0.226562 1.140625 -0.21875 C 1.128906 -0.207031 1.125 -0.203125 1.125 -0.203125 C 1.082031 -0.179688 1.046875 -0.160156 1.015625 -0.140625 C 1.003906 -0.140625 0.992188 -0.140625 0.984375 -0.140625 C 0.941406 -0.0859375 0.90625 -0.0546875 0.875 -0.046875 C 0.84375 -0.0351562 0.804688 -0.03125 0.765625 -0.03125 C 0.710938 -0.0078125 0.675781 -0.0078125 0.65625 -0.03125 C 0.644531 -0.03125 0.625 -0.03125 0.59375 -0.03125 C 0.570312 -0.03125 0.550781 -0.03125 0.53125 -0.03125 C 0.519531 -0.0390625 0.503906 -0.046875 0.484375 -0.046875 C 0.460938 -0.046875 0.441406 -0.0390625 0.421875 -0.03125 C 0.410156 -0.03125 0.398438 -0.0234375 0.390625 -0.015625 C 0.367188 -0.00390625 0.34375 0 0.3125 0 C 0.28125 0 0.226562 -0.00390625 0.15625 -0.015625 C 0.101562 -0.0234375 0.0546875 -0.03125 0.015625 -0.03125 C 0.015625 -0.03125 0.0078125 -0.03125 0 -0.03125 C -0.0078125 -0.03125 -0.0195312 -0.03125 -0.03125 -0.03125 C -0.0390625 -0.03125 -0.0507812 -0.0351562 -0.0625 -0.046875 C -0.0703125 -0.0546875 -0.09375 -0.0976562 -0.125 -0.171875 C -0.132812 -0.203125 -0.140625 -0.242188 -0.140625 -0.296875 C -0.140625 -0.304688 -0.140625 -0.316406 -0.140625 -0.328125 C -0.128906 -0.367188 -0.117188 -0.394531 -0.109375 -0.40625 C -0.0976562 -0.40625 -0.0820312 -0.40625 -0.0625 -0.40625 C -0.0507812 -0.414062 -0.0390625 -0.425781 -0.03125 -0.4375 C -0.0195312 -0.445312 -0.0078125 -0.460938 0 -0.484375 C 0.0078125 -0.503906 0.015625 -0.53125 0.015625 -0.5625 C 0.015625 -0.582031 0.015625 -0.597656 0.015625 -0.609375 C 0.0234375 -0.617188 0.0351562 -0.628906 0.046875 -0.640625 C 0.0664062 -0.648438 0.078125 -0.65625 0.078125 -0.65625 C 0.0976562 -0.664062 0.113281 -0.6875 0.125 -0.71875 C 0.132812 -0.726562 0.148438 -0.769531 0.171875 -0.84375 C 0.179688 -0.894531 0.191406 -0.953125 0.203125 -1.015625 C 0.210938 -1.078125 0.222656 -1.128906 0.234375 -1.171875 C 0.242188 -1.265625 0.253906 -1.316406 0.265625 -1.328125 C 0.273438 -1.347656 0.296875 -1.359375 0.328125 -1.359375 C 0.367188 -1.359375 0.398438 -1.347656 0.421875 -1.328125 C 0.429688 -1.316406 0.441406 -1.300781 0.453125 -1.28125 C 0.460938 -1.269531 0.46875 -1.253906 0.46875 -1.234375 C 0.476562 -1.222656 0.484375 -1.203125 0.484375 -1.171875 C 0.492188 -1.148438 0.503906 -1.140625 0.515625 -1.140625 C 0.535156 -1.054688 0.554688 -0.976562 0.578125 -0.90625 C 0.578125 -0.882812 0.578125 -0.847656 0.578125 -0.796875 C 0.585938 -0.742188 0.597656 -0.691406 0.609375 -0.640625 C 0.617188 -0.597656 0.628906 -0.5625 0.640625 -0.53125 C 0.660156 -0.46875 0.664062 -0.40625 0.65625 -0.34375 C 0.65625 -0.3125 0.65625 -0.28125 0.65625 -0.25 C 0.65625 -0.226562 0.664062 -0.207031 0.6875 -0.1875 C 0.707031 -0.164062 0.734375 -0.160156 0.765625 -0.171875 C 0.785156 -0.171875 0.800781 -0.171875 0.8125 -0.171875 C 0.832031 -0.179688 0.847656 -0.1875 0.859375 -0.1875 C 0.867188 -0.195312 0.882812 -0.207031 0.90625 -0.21875 C 0.925781 -0.238281 0.9375 -0.25 0.9375 -0.25 C 0.945312 -0.257812 0.960938 -0.269531 0.984375 -0.28125 C 1.003906 -0.300781 1.035156 -0.328125 1.078125 -0.359375 C 1.128906 -0.398438 1.160156 -0.421875 1.171875 -0.421875 Z M 0.34375 -0.28125 C 0.40625 -0.289062 0.441406 -0.320312 0.453125 -0.375 C 0.472656 -0.425781 0.460938 -0.507812 0.421875 -0.625 C 0.378906 -0.738281 0.351562 -0.796875 0.34375 -0.796875 C 0.332031 -0.796875 0.328125 -0.773438 0.328125 -0.734375 C 0.316406 -0.691406 0.304688 -0.660156 0.296875 -0.640625 C 0.273438 -0.617188 0.242188 -0.566406 0.203125 -0.484375 C 0.160156 -0.398438 0.144531 -0.351562 0.15625 -0.34375 C 0.164062 -0.332031 0.179688 -0.316406 0.203125 -0.296875 C 0.222656 -0.285156 0.242188 -0.273438 0.265625 -0.265625 C 0.296875 -0.265625 0.320312 -0.269531 0.34375 -0.28125 Z M 0.34375 -0.28125 "/></g></g></g><g fill="#ffffff" fill-opacity="1"><g transform="translate(6.264811, 4.065267)"><g><path d="M 1.453125 -0.28125 C 1.484375 -0.300781 1.503906 -0.304688 1.515625 -0.296875 C 1.535156 -0.296875 1.546875 -0.28125 1.546875 -0.25 C 1.546875 -0.238281 1.546875 -0.226562 1.546875 -0.21875 C 1.546875 -0.207031 1.539062 -0.195312 1.53125 -0.1875 C 1.53125 -0.1875 1.523438 -0.179688 1.515625 -0.171875 C 1.515625 -0.171875 1.507812 -0.164062 1.5 -0.15625 C 1.5 -0.144531 1.492188 -0.132812 1.484375 -0.125 C 1.472656 -0.125 1.460938 -0.117188 1.453125 -0.109375 C 1.453125 -0.109375 1.445312 -0.101562 1.4375 -0.09375 C 1.425781 -0.09375 1.414062 -0.09375 1.40625 -0.09375 C 1.382812 -0.0703125 1.359375 -0.0546875 1.328125 -0.046875 C 1.316406 -0.046875 1.296875 -0.0351562 1.265625 -0.015625 L 1.25 0 C 1.21875 0.0390625 1.160156 0.0625 1.078125 0.0625 C 1.035156 0.0703125 1 0.0703125 0.96875 0.0625 C 0.9375 0.0625 0.898438 0.0507812 0.859375 0.03125 C 0.785156 0 0.738281 -0.0234375 0.71875 -0.046875 C 0.707031 -0.0546875 0.695312 -0.0625 0.6875 -0.0625 C 0.675781 -0.0625 0.65625 -0.0507812 0.625 -0.03125 C 0.53125 0.03125 0.421875 0.0664062 0.296875 0.078125 C 0.171875 0.0859375 0.0859375 0.0625 0.046875 0 C 0.015625 -0.03125 0 -0.0976562 0 -0.203125 C 0.0078125 -0.316406 0.0234375 -0.398438 0.046875 -0.453125 C 0.078125 -0.484375 0.0976562 -0.507812 0.109375 -0.53125 C 0.117188 -0.550781 0.128906 -0.570312 0.140625 -0.59375 C 0.148438 -0.613281 0.171875 -0.640625 0.203125 -0.671875 C 0.296875 -0.785156 0.367188 -0.863281 0.421875 -0.90625 C 0.460938 -0.945312 0.507812 -0.976562 0.5625 -1 C 0.625 -1.019531 0.6875 -1.035156 0.75 -1.046875 C 0.820312 -1.054688 0.878906 -1.046875 0.921875 -1.015625 C 0.984375 -0.984375 1.019531 -0.929688 1.03125 -0.859375 C 1.039062 -0.785156 1.035156 -0.710938 1.015625 -0.640625 C 1.003906 -0.578125 0.984375 -0.515625 0.953125 -0.453125 C 0.929688 -0.398438 0.910156 -0.335938 0.890625 -0.265625 C 0.878906 -0.203125 0.882812 -0.160156 0.90625 -0.140625 C 0.925781 -0.078125 1.019531 -0.0703125 1.1875 -0.125 C 1.1875 -0.125 1.191406 -0.125 1.203125 -0.125 C 1.210938 -0.125 1.21875 -0.128906 1.21875 -0.140625 C 1.320312 -0.179688 1.398438 -0.226562 1.453125 -0.28125 Z M 0.765625 -0.703125 C 0.785156 -0.710938 0.796875 -0.71875 0.796875 -0.71875 C 0.796875 -0.726562 0.789062 -0.738281 0.78125 -0.75 C 0.757812 -0.769531 0.734375 -0.78125 0.703125 -0.78125 C 0.671875 -0.789062 0.640625 -0.789062 0.609375 -0.78125 C 0.578125 -0.769531 0.523438 -0.738281 0.453125 -0.6875 C 0.390625 -0.632812 0.347656 -0.59375 0.328125 -0.5625 C 0.296875 -0.507812 0.269531 -0.46875 0.25 -0.4375 C 0.226562 -0.40625 0.210938 -0.351562 0.203125 -0.28125 C 0.191406 -0.207031 0.195312 -0.160156 0.21875 -0.140625 C 0.226562 -0.117188 0.257812 -0.109375 0.3125 -0.109375 C 0.363281 -0.109375 0.410156 -0.117188 0.453125 -0.140625 C 0.503906 -0.160156 0.539062 -0.191406 0.5625 -0.234375 C 0.59375 -0.304688 0.617188 -0.363281 0.640625 -0.40625 C 0.679688 -0.476562 0.703125 -0.523438 0.703125 -0.546875 C 0.703125 -0.554688 0.707031 -0.566406 0.71875 -0.578125 C 0.738281 -0.597656 0.742188 -0.617188 0.734375 -0.640625 C 0.722656 -0.660156 0.734375 -0.679688 0.765625 -0.703125 Z M 0.765625 -0.703125 "/></g></g></g><g fill="#ffffff" fill-opacity="1"><g transform="translate(7.523098, 4.065267)"><g><path d="M -0.09375 -0.3125 C -0.0703125 -0.351562 -0.0234375 -0.445312 0.046875 -0.59375 C 0.117188 -0.738281 0.175781 -0.84375 0.21875 -0.90625 C 0.226562 -0.914062 0.238281 -0.921875 0.25 -0.921875 C 0.269531 -0.941406 0.296875 -0.957031 0.328125 -0.96875 C 0.359375 -0.976562 0.382812 -0.976562 0.40625 -0.96875 C 0.414062 -0.957031 0.421875 -0.941406 0.421875 -0.921875 C 0.429688 -0.898438 0.441406 -0.882812 0.453125 -0.875 C 0.460938 -0.875 0.488281 -0.890625 0.53125 -0.921875 C 0.59375 -0.972656 0.703125 -1.015625 0.859375 -1.046875 C 0.910156 -1.054688 0.945312 -1.0625 0.96875 -1.0625 C 0.988281 -1.0625 1.015625 -1.046875 1.046875 -1.015625 C 1.078125 -0.984375 1.09375 -0.941406 1.09375 -0.890625 C 1.09375 -0.835938 1.078125 -0.789062 1.046875 -0.75 C 1.015625 -0.71875 0.976562 -0.644531 0.9375 -0.53125 C 0.90625 -0.414062 0.890625 -0.335938 0.890625 -0.296875 C 0.890625 -0.265625 0.894531 -0.226562 0.90625 -0.1875 C 0.925781 -0.15625 0.953125 -0.128906 0.984375 -0.109375 C 1.015625 -0.0859375 1.039062 -0.078125 1.0625 -0.078125 C 1.101562 -0.078125 1.179688 -0.101562 1.296875 -0.15625 C 1.410156 -0.21875 1.503906 -0.28125 1.578125 -0.34375 C 1.617188 -0.375 1.648438 -0.390625 1.671875 -0.390625 C 1.691406 -0.390625 1.703125 -0.367188 1.703125 -0.328125 C 1.703125 -0.304688 1.691406 -0.28125 1.671875 -0.25 C 1.660156 -0.226562 1.644531 -0.207031 1.625 -0.1875 C 1.59375 -0.164062 1.554688 -0.140625 1.515625 -0.109375 C 1.484375 -0.0859375 1.453125 -0.0664062 1.421875 -0.046875 C 1.316406 -0.00390625 1.242188 0.0234375 1.203125 0.046875 C 1.128906 0.078125 1.0625 0.0820312 1 0.0625 C 0.945312 0.0507812 0.878906 0.0078125 0.796875 -0.0625 C 0.734375 -0.125 0.695312 -0.164062 0.6875 -0.1875 C 0.675781 -0.21875 0.671875 -0.265625 0.671875 -0.328125 C 0.671875 -0.421875 0.6875 -0.519531 0.71875 -0.625 C 0.75 -0.726562 0.757812 -0.785156 0.75 -0.796875 C 0.75 -0.804688 0.691406 -0.757812 0.578125 -0.65625 C 0.460938 -0.550781 0.347656 -0.4375 0.234375 -0.3125 C 0.128906 -0.195312 0.078125 -0.128906 0.078125 -0.109375 C 0.078125 -0.0976562 0.0664062 -0.0820312 0.046875 -0.0625 C 0.0234375 -0.0390625 0.00390625 -0.0234375 -0.015625 -0.015625 C -0.046875 -0.00390625 -0.0703125 0 -0.09375 0 C -0.125 -0.0078125 -0.148438 -0.0390625 -0.171875 -0.09375 C -0.179688 -0.125 -0.179688 -0.148438 -0.171875 -0.171875 C -0.160156 -0.203125 -0.132812 -0.25 -0.09375 -0.3125 Z M -0.09375 -0.3125 "/></g></g></g><g clip-path="url(#a433336ca5)"><g fill="#ffffff" fill-opacity="1"><g transform="translate(8.956775, 4.065267)"><g><path d="M 1.171875 -0.421875 C 1.203125 -0.453125 1.226562 -0.460938 1.25 -0.453125 C 1.28125 -0.453125 1.296875 -0.429688 1.296875 -0.390625 C 1.296875 -0.378906 1.289062 -0.367188 1.28125 -0.359375 C 1.28125 -0.347656 1.273438 -0.335938 1.265625 -0.328125 C 1.265625 -0.316406 1.257812 -0.304688 1.25 -0.296875 C 1.238281 -0.296875 1.226562 -0.289062 1.21875 -0.28125 C 1.21875 -0.269531 1.210938 -0.257812 1.203125 -0.25 C 1.191406 -0.25 1.179688 -0.242188 1.171875 -0.234375 C 1.160156 -0.234375 1.148438 -0.226562 1.140625 -0.21875 C 1.128906 -0.207031 1.125 -0.203125 1.125 -0.203125 C 1.082031 -0.179688 1.046875 -0.160156 1.015625 -0.140625 C 1.003906 -0.140625 0.992188 -0.140625 0.984375 -0.140625 C 0.941406 -0.0859375 0.90625 -0.0546875 0.875 -0.046875 C 0.84375 -0.0351562 0.804688 -0.03125 0.765625 -0.03125 C 0.710938 -0.0078125 0.675781 -0.0078125 0.65625 -0.03125 C 0.644531 -0.03125 0.625 -0.03125 0.59375 -0.03125 C 0.570312 -0.03125 0.550781 -0.03125 0.53125 -0.03125 C 0.519531 -0.0390625 0.503906 -0.046875 0.484375 -0.046875 C 0.460938 -0.046875 0.441406 -0.0390625 0.421875 -0.03125 C 0.410156 -0.03125 0.398438 -0.0234375 0.390625 -0.015625 C 0.367188 -0.00390625 0.34375 0 0.3125 0 C 0.28125 0 0.226562 -0.00390625 0.15625 -0.015625 C 0.101562 -0.0234375 0.0546875 -0.03125 0.015625 -0.03125 C 0.015625 -0.03125 0.0078125 -0.03125 0 -0.03125 C -0.0078125 -0.03125 -0.0195312 -0.03125 -0.03125 -0.03125 C -0.0390625 -0.03125 -0.0507812 -0.0351562 -0.0625 -0.046875 C -0.0703125 -0.0546875 -0.09375 -0.0976562 -0.125 -0.171875 C -0.132812 -0.203125 -0.140625 -0.242188 -0.140625 -0.296875 C -0.140625 -0.304688 -0.140625 -0.316406 -0.140625 -0.328125 C -0.128906 -0.367188 -0.117188 -0.394531 -0.109375 -0.40625 C -0.0976562 -0.40625 -0.0820312 -0.40625 -0.0625 -0.40625 C -0.0507812 -0.414062 -0.0390625 -0.425781 -0.03125 -0.4375 C -0.0195312 -0.445312 -0.0078125 -0.460938 0 -0.484375 C 0.0078125 -0.503906 0.015625 -0.53125 0.015625 -0.5625 C 0.015625 -0.582031 0.015625 -0.597656 0.015625 -0.609375 C 0.0234375 -0.617188 0.0351562 -0.628906 0.046875 -0.640625 C 0.0664062 -0.648438 0.078125 -0.65625 0.078125 -0.65625 C 0.0976562 -0.664062 0.113281 -0.6875 0.125 -0.71875 C 0.132812 -0.726562 0.148438 -0.769531 0.171875 -0.84375 C 0.179688 -0.894531 0.191406 -0.953125 0.203125 -1.015625 C 0.210938 -1.078125 0.222656 -1.128906 0.234375 -1.171875 C 0.242188 -1.265625 0.253906 -1.316406 0.265625 -1.328125 C 0.273438 -1.347656 0.296875 -1.359375 0.328125 -1.359375 C 0.367188 -1.359375 0.398438 -1.347656 0.421875 -1.328125 C 0.429688 -1.316406 0.441406 -1.300781 0.453125 -1.28125 C 0.460938 -1.269531 0.46875 -1.253906 0.46875 -1.234375 C 0.476562 -1.222656 0.484375 -1.203125 0.484375 -1.171875 C 0.492188 -1.148438 0.503906 -1.140625 0.515625 -1.140625 C 0.535156 -1.054688 0.554688 -0.976562 0.578125 -0.90625 C 0.578125 -0.882812 0.578125 -0.847656 0.578125 -0.796875 C 0.585938 -0.742188 0.597656 -0.691406 0.609375 -0.640625 C 0.617188 -0.597656 0.628906 -0.5625 0.640625 -0.53125 C 0.660156 -0.46875 0.664062 -0.40625 0.65625 -0.34375 C 0.65625 -0.3125 0.65625 -0.28125 0.65625 -0.25 C 0.65625 -0.226562 0.664062 -0.207031 0.6875 -0.1875 C 0.707031 -0.164062 0.734375 -0.160156 0.765625 -0.171875 C 0.785156 -0.171875 0.800781 -0.171875 0.8125 -0.171875 C 0.832031 -0.179688 0.847656 -0.1875 0.859375 -0.1875 C 0.867188 -0.195312 0.882812 -0.207031 0.90625 -0.21875 C 0.925781 -0.238281 0.9375 -0.25 0.9375 -0.25 C 0.945312 -0.257812 0.960938 -0.269531 0.984375 -0.28125 C 1.003906 -0.300781 1.035156 -0.328125 1.078125 -0.359375 C 1.128906 -0.398438 1.160156 -0.421875 1.171875 -0.421875 Z M 0.34375 -0.28125 C 0.40625 -0.289062 0.441406 -0.320312 0.453125 -0.375 C 0.472656 -0.425781 0.460938 -0.507812 0.421875 -0.625 C 0.378906 -0.738281 0.351562 -0.796875 0.34375 -0.796875 C 0.332031 -0.796875 0.328125 -0.773438 0.328125 -0.734375 C 0.316406 -0.691406 0.304688 -0.660156 0.296875 -0.640625 C 0.273438 -0.617188 0.242188 -0.566406 0.203125 -0.484375 C 0.160156 -0.398438 0.144531 -0.351562 0.15625 -0.34375 C 0.164062 -0.332031 0.179688 -0.316406 0.203125 -0.296875 C 0.222656 -0.285156 0.242188 -0.273438 0.265625 -0.265625 C 0.296875 -0.265625 0.320312 -0.269531 0.34375 -0.28125 Z M 0.34375 -0.28125 "/></g></g></g></g></g></g></g></svg>