<svg xmlns="http://www.w3.org/2000/svg" xmlns:xlink="http://www.w3.org/1999/xlink" width="500" zoomAndPan="magnify" viewBox="0 0 375 374.999991" height="500" preserveAspectRatio="xMidYMid meet" version="1.0"><defs><filter x="0%" y="0%" width="100%" height="100%" id="d560acfb14"><feColorMatrix values="0 0 0 0 1 0 0 0 0 1 0 0 0 0 1 0 0 0 1 0" color-interpolation-filters="sRGB"/></filter><g/><mask id="4e3e89ba8e"><g filter="url(#d560acfb14)"><rect x="-37.5" width="450" fill="#000000" y="-37.499999" height="449.999989" fill-opacity="0.4"/></g></mask><clipPath id="07cbbdd1bd"><path d="M 0.359375 5 L 7 5 L 7 13 L 0.359375 13 Z M 0.359375 5 " clip-rule="nonzero"/></clipPath><clipPath id="d0be128dff"><path d="M 25 7 L 29.640625 7 L 29.640625 12 L 25 12 Z M 25 7 " clip-rule="nonzero"/></clipPath><clipPath id="3e69d02e1d"><rect x="0" width="30" y="0" height="17"/></clipPath></defs><path fill="#ff5a19" d="M 125.089844 240.230469 L 36.269531 241.832031 C 34.433594 241.867188 32.949219 240.382812 33.007812 238.585938 L 36.03125 136.890625 C 36.082031 135.210938 37.464844 133.855469 39.175781 133.828125 L 118.164062 132.402344 C 119.871094 132.371094 121.308594 133.667969 121.417969 135.347656 L 128.222656 236.863281 C 128.351562 238.667969 126.917969 240.195312 125.089844 240.230469 Z M 125.089844 240.230469 " fill-opacity="1" fill-rule="evenodd"/><path fill="#3a003d" d="M 125.164062 239.386719 L 38.082031 239.386719 C 36.285156 239.386719 34.855469 237.910156 34.941406 236.148438 L 39.761719 136.542969 C 39.84375 134.890625 41.226562 133.59375 42.902344 133.59375 L 120.335938 133.59375 C 122.011719 133.59375 123.394531 134.890625 123.476562 136.542969 L 128.292969 236.148438 C 128.382812 237.910156 126.953125 239.386719 125.164062 239.386719 Z M 125.164062 239.386719 " fill-opacity="1" fill-rule="evenodd"/><path fill="#ff5a19" d="M 81.617188 184.984375 C 67.019531 184.984375 54.953125 174.089844 53.382812 160.125 C 53.191406 158.472656 54.488281 157.023438 56.179688 157.023438 C 57.621094 157.023438 58.816406 158.101562 58.976562 159.511719 C 60.246094 170.707031 69.921875 179.4375 81.617188 179.4375 C 93.316406 179.4375 102.992188 170.707031 104.253906 159.511719 C 104.414062 158.101562 105.609375 157.023438 107.050781 157.023438 C 108.738281 157.023438 110.039062 158.472656 109.847656 160.125 C 108.285156 174.082031 96.222656 184.984375 81.617188 184.984375 Z M 81.617188 184.984375 " fill-opacity="1" fill-rule="nonzero"/><g fill="#3a003d" fill-opacity="1"><g transform="translate(141.83897, 181.842055)"><g><path d="M 42.40625 -6.359375 C 43.113281 -6.960938 43.734375 -7.207031 44.265625 -7.09375 C 44.796875 -6.988281 45.0625 -6.46875 45.0625 -5.53125 C 45.0625 -5.28125 44.992188 -5.007812 44.859375 -4.71875 C 44.734375 -4.425781 44.585938 -4.175781 44.421875 -3.96875 C 44.265625 -3.757812 44.023438 -3.519531 43.703125 -3.25 C 43.390625 -2.976562 43.144531 -2.773438 42.96875 -2.640625 C 42.789062 -2.515625 42.515625 -2.332031 42.140625 -2.09375 C 41.773438 -1.851562 41.5625 -1.703125 41.5 -1.640625 C 40.726562 -1.117188 39.941406 -0.6875 39.140625 -0.34375 C 39.015625 -0.300781 38.738281 -0.160156 38.3125 0.078125 C 37.894531 0.316406 37.46875 0.546875 37.03125 0.765625 C 36.601562 0.992188 36.097656 1.242188 35.515625 1.515625 C 34.941406 1.785156 34.429688 1.984375 33.984375 2.109375 C 33.535156 2.242188 33.070312 2.34375 32.59375 2.40625 C 32.113281 2.46875 31.773438 2.40625 31.578125 2.21875 C 30.359375 2.15625 28.785156 1.5625 26.859375 0.4375 C 24.234375 -1.070312 22.757812 -2.535156 22.4375 -3.953125 C 22.144531 -4.910156 21.820312 -5.390625 21.46875 -5.390625 C 21.144531 -5.390625 19.363281 -4.054688 16.125 -1.390625 C 13.394531 0.691406 11.410156 1.976562 10.171875 2.46875 C 8.941406 2.96875 7.75 2.882812 6.59375 2.21875 C 5.46875 1.664062 4.429688 0.789062 3.484375 -0.40625 C 2.535156 -1.613281 2.0625 -2.648438 2.0625 -3.515625 C 2.0625 -4.546875 2.347656 -6.101562 2.921875 -8.1875 C 3.503906 -10.269531 3.957031 -11.472656 4.28125 -11.796875 C 4.695312 -12.242188 4.90625 -12.984375 4.90625 -14.015625 C 4.90625 -14.585938 5.1875 -15.382812 5.75 -16.40625 C 6.3125 -17.4375 6.59375 -18.257812 6.59375 -18.875 C 6.59375 -19.707031 6.785156 -20.25 7.171875 -20.5 C 7.554688 -20.757812 8.328125 -22.125 9.484375 -24.59375 C 10.640625 -27.070312 11.441406 -29.128906 11.890625 -30.765625 C 12.273438 -32.109375 12.84375 -33.347656 13.59375 -34.484375 C 14.351562 -35.628906 14.890625 -36.101562 15.203125 -35.90625 C 15.523438 -35.71875 17.035156 -36.710938 19.734375 -38.890625 C 21.859375 -40.660156 23.609375 -41.9375 24.984375 -42.71875 C 26.367188 -43.507812 28.164062 -44.257812 30.375 -44.96875 C 32.300781 -45.539062 33.503906 -45.8125 33.984375 -45.78125 C 34.429688 -45.71875 35.28125 -45.171875 36.53125 -44.140625 C 37.40625 -43.429688 37.976562 -42.835938 38.25 -42.359375 C 38.519531 -41.878906 38.65625 -41.144531 38.65625 -40.15625 C 38.65625 -38.613281 37.898438 -36.046875 36.390625 -32.453125 C 36.003906 -31.648438 35.394531 -30.0625 34.5625 -27.6875 C 33.820312 -25.3125 33.066406 -23.492188 32.296875 -22.234375 C 31.660156 -21.179688 31.210938 -19.835938 30.953125 -18.203125 C 30.734375 -16.753906 30.429688 -15.613281 30.046875 -14.78125 C 29.941406 -14.582031 29.378906 -13.039062 28.359375 -10.15625 C 27.742188 -8.550781 27.425781 -7.472656 27.40625 -6.921875 C 27.394531 -6.378906 27.597656 -5.707031 28.015625 -4.90625 C 28.660156 -3.71875 29.398438 -3.125 30.234375 -3.125 C 31.191406 -3 32.125 -2.535156 33.03125 -1.734375 C 33.09375 -1.703125 33.140625 -1.675781 33.171875 -1.65625 C 33.203125 -1.644531 33.234375 -1.613281 33.265625 -1.5625 C 33.296875 -1.519531 33.328125 -1.5 33.359375 -1.5 C 33.679688 -1.65625 34.21875 -1.859375 34.96875 -2.109375 C 35.726562 -2.367188 36.25 -2.582031 36.53125 -2.75 C 39.007812 -4.03125 40.96875 -5.234375 42.40625 -6.359375 Z M 24.84375 -20.515625 C 25.9375 -22.210938 26.753906 -23.878906 27.296875 -25.515625 C 28.066406 -27.828125 28.707031 -29.382812 29.21875 -30.1875 C 29.769531 -30.957031 30.046875 -31.773438 30.046875 -32.640625 C 30.046875 -33.441406 30.238281 -33.988281 30.625 -34.28125 C 30.875 -34.4375 31.429688 -35.285156 32.296875 -36.828125 C 33.171875 -38.367188 33.421875 -39.296875 33.046875 -39.609375 C 32.679688 -39.929688 31.773438 -39.914062 30.328125 -39.5625 C 28.878906 -39.21875 27.628906 -38.722656 26.578125 -38.078125 C 25.546875 -37.398438 24.335938 -36.289062 22.953125 -34.75 C 21.578125 -33.21875 20.890625 -32.207031 20.890625 -31.71875 C 20.890625 -31.363281 20.039062 -30.179688 18.34375 -28.171875 C 16.644531 -26.171875 15.796875 -24.929688 15.796875 -24.453125 C 15.796875 -23.972656 15.132812 -22.800781 13.8125 -20.9375 C 12.46875 -18.945312 11.601562 -17.164062 11.21875 -15.59375 C 10.707031 -13.769531 10.304688 -12.613281 10.015625 -12.125 C 9.691406 -11.425781 9.53125 -10.832031 9.53125 -10.34375 C 9.53125 -9.800781 9.207031 -8.9375 8.5625 -7.75 C 8.019531 -6.65625 7.859375 -5.890625 8.078125 -5.453125 C 8.304688 -5.023438 8.984375 -4.8125 10.109375 -4.8125 C 10.816406 -4.8125 11.882812 -5.285156 13.3125 -6.234375 C 14.738281 -7.179688 15.773438 -8.132812 16.421875 -9.09375 C 16.546875 -9.15625 16.703125 -9.332031 16.890625 -9.625 C 17.148438 -9.976562 17.425781 -10.347656 17.71875 -10.734375 C 18.039062 -11.179688 18.34375 -11.582031 18.625 -11.9375 C 21.675781 -15.945312 23.75 -18.804688 24.84375 -20.515625 Z M 24.84375 -20.515625 "/></g></g></g><g fill="#3a003d" fill-opacity="1"><g transform="translate(180.17136, 181.842055)"><g><path d="M 30.8125 -7.796875 C 31.488281 -8.410156 32.085938 -8.660156 32.609375 -8.546875 C 33.140625 -8.429688 33.421875 -7.925781 33.453125 -7.03125 C 33.453125 -6.769531 33.410156 -6.519531 33.328125 -6.28125 C 33.253906 -6.039062 33.128906 -5.816406 32.953125 -5.609375 C 32.773438 -5.398438 32.597656 -5.195312 32.421875 -5 C 32.242188 -4.8125 32.023438 -4.617188 31.765625 -4.421875 C 31.515625 -4.234375 31.300781 -4.070312 31.125 -3.9375 C 30.945312 -3.8125 30.710938 -3.660156 30.421875 -3.484375 C 30.128906 -3.304688 29.9375 -3.171875 29.84375 -3.078125 C 29.070312 -2.566406 28.285156 -2.148438 27.484375 -1.828125 C 27.421875 -1.796875 27.328125 -1.75 27.203125 -1.6875 C 27.140625 -1.519531 27.007812 -1.390625 26.8125 -1.296875 C 26.625 -1.203125 26.335938 -1.109375 25.953125 -1.015625 C 25.210938 -0.597656 24.117188 -0.304688 22.671875 -0.140625 C 21.234375 0.015625 19.921875 0.0546875 18.734375 -0.015625 C 17.546875 -0.0976562 16.773438 -0.238281 16.421875 -0.4375 C 16.128906 -0.625 15.804688 -1.019531 15.453125 -1.625 C 15.097656 -2.238281 14.789062 -2.847656 14.53125 -3.453125 C 14.28125 -4.066406 14.125 -4.535156 14.0625 -4.859375 C 13.832031 -5.796875 13.75 -6.789062 13.8125 -7.84375 C 13.90625 -8.9375 14.082031 -10.640625 14.34375 -12.953125 L 14.34375 -13.625 C 14.34375 -13.78125 14.285156 -13.898438 14.171875 -13.984375 C 14.066406 -14.066406 13.914062 -14.125 13.71875 -14.15625 C 13.53125 -14.15625 13.273438 -14.15625 12.953125 -14.15625 C 12.566406 -14.15625 12.128906 -14.21875 11.640625 -14.34375 C 11.160156 -14.46875 10.6875 -14.585938 10.21875 -14.703125 C 9.757812 -14.816406 9.351562 -14.875 9 -14.875 C 9.03125 -14.875 8.914062 -14.367188 8.65625 -13.359375 C 8.40625 -12.347656 8.078125 -11.28125 7.671875 -10.15625 C 7.273438 -9.03125 6.914062 -8.375 6.59375 -8.1875 C 5.4375 -7.507812 4.21875 -7.023438 2.9375 -6.734375 C 1.269531 -6.347656 2.023438 -9.992188 5.203125 -17.671875 C 5.265625 -17.859375 5.421875 -18.253906 5.671875 -18.859375 C 5.929688 -19.472656 6.109375 -19.898438 6.203125 -20.140625 C 6.304688 -20.390625 6.460938 -20.773438 6.671875 -21.296875 C 6.878906 -21.828125 7.03125 -22.257812 7.125 -22.59375 C 7.21875 -22.9375 7.320312 -23.347656 7.4375 -23.828125 C 7.550781 -24.304688 7.628906 -24.757812 7.671875 -25.1875 C 7.722656 -25.625 7.75 -26.070312 7.75 -26.53125 C 7.75 -27.039062 8.078125 -27.953125 8.734375 -29.265625 C 9.390625 -30.585938 9.910156 -31.390625 10.296875 -31.671875 C 10.816406 -31.960938 11.515625 -32.066406 12.390625 -31.984375 C 13.273438 -31.910156 13.863281 -31.710938 14.15625 -31.390625 C 14.539062 -30.910156 14.539062 -29.046875 14.15625 -25.796875 C 13.863281 -23.679688 13.734375 -22.320312 13.765625 -21.71875 C 13.796875 -21.070312 13.972656 -20.554688 14.296875 -20.171875 C 14.679688 -19.847656 15.015625 -19.691406 15.296875 -19.703125 C 15.585938 -19.722656 16.140625 -19.972656 16.953125 -20.453125 C 18.140625 -21.128906 18.992188 -21.453125 19.515625 -21.421875 C 20.046875 -21.390625 20.535156 -21.019531 20.984375 -20.3125 C 21.335938 -19.800781 21.5 -19.335938 21.46875 -18.921875 C 21.4375 -18.503906 21.195312 -17.703125 20.75 -16.515625 C 20.101562 -14.804688 19.523438 -12.863281 19.015625 -10.6875 C 18.628906 -8.957031 18.507812 -7.671875 18.65625 -6.828125 C 18.800781 -5.992188 19.320312 -5.019531 20.21875 -3.90625 C 20.601562 -3.351562 20.910156 -3.046875 21.140625 -2.984375 C 21.234375 -2.953125 21.398438 -2.972656 21.640625 -3.046875 C 21.878906 -3.128906 22.132812 -3.226562 22.40625 -3.34375 C 22.675781 -3.457031 22.863281 -3.53125 22.96875 -3.5625 C 23.957031 -3.820312 24.613281 -4.03125 24.9375 -4.1875 C 27.40625 -5.46875 29.363281 -6.671875 30.8125 -7.796875 Z M 30.8125 -7.796875 "/></g></g></g><g fill="#3a003d" fill-opacity="1"><g transform="translate(206.808901, 181.842055)"><g><path d="M 24.40625 -5.828125 C 25.144531 -6.335938 25.769531 -6.503906 26.28125 -6.328125 C 26.800781 -6.148438 27.023438 -5.613281 26.953125 -4.71875 C 26.921875 -4.488281 26.847656 -4.253906 26.734375 -4.015625 C 26.628906 -3.773438 26.476562 -3.554688 26.28125 -3.359375 C 26.09375 -3.171875 25.910156 -2.992188 25.734375 -2.828125 C 25.554688 -2.671875 25.320312 -2.503906 25.03125 -2.328125 C 24.738281 -2.148438 24.492188 -2.015625 24.296875 -1.921875 C 24.109375 -1.828125 23.863281 -1.695312 23.5625 -1.53125 C 23.257812 -1.375 23.0625 -1.265625 22.96875 -1.203125 C 22.164062 -0.785156 21.328125 -0.445312 20.453125 -0.1875 C 20.421875 -0.15625 20.03125 0.0859375 19.28125 0.546875 C 18.53125 1.015625 17.671875 1.53125 16.703125 2.09375 C 15.742188 2.65625 14.957031 3.03125 14.34375 3.21875 C 13.507812 3.507812 12.640625 3.734375 11.734375 3.890625 C 10.835938 4.054688 9.890625 4.160156 8.890625 4.203125 C 7.898438 4.253906 6.945312 4.148438 6.03125 3.890625 C 5.125 3.640625 4.363281 3.257812 3.75 2.75 C 3.007812 2.070312 2.40625 1.148438 1.9375 -0.015625 C 1.476562 -1.191406 1.175781 -2.460938 1.03125 -3.828125 C 0.882812 -5.191406 0.8125 -6.46875 0.8125 -7.65625 C 0.8125 -8.84375 0.863281 -9.984375 0.96875 -11.078125 C 1 -11.234375 1.179688 -12.601562 1.515625 -15.1875 C 1.847656 -17.769531 2.171875 -20.304688 2.484375 -22.796875 L 2.9375 -26.53125 C 2.550781 -26.75 1.828125 -26.90625 0.765625 -27 C 0.128906 -27.039062 -0.523438 -27.039062 -1.203125 -27 C -2.773438 -27 -3.882812 -27.050781 -4.53125 -27.15625 C -4.65625 -27.1875 -4.835938 -27.203125 -5.078125 -27.203125 C -5.316406 -27.203125 -5.554688 -27.203125 -5.796875 -27.203125 C -6.035156 -27.203125 -6.273438 -27.203125 -6.515625 -27.203125 C -6.765625 -27.203125 -6.957031 -27.222656 -7.09375 -27.265625 C -7.238281 -27.316406 -7.328125 -27.390625 -7.359375 -27.484375 C -7.429688 -28.003906 -7.222656 -28.375 -6.734375 -28.59375 C -6.703125 -28.625 -6.484375 -28.757812 -6.078125 -29 C -5.679688 -29.238281 -5.265625 -29.472656 -4.828125 -29.703125 C -4.398438 -29.929688 -3.816406 -30.128906 -3.078125 -30.296875 C -2.335938 -30.472656 -1.582031 -30.546875 -0.8125 -30.515625 C 1.59375 -30.296875 3.09375 -30.222656 3.6875 -30.296875 C 4.28125 -30.378906 4.863281 -30.726562 5.4375 -31.34375 C 6.300781 -32.144531 7.457031 -34.242188 8.90625 -37.640625 C 8.96875 -37.773438 9.0625 -37.96875 9.1875 -38.21875 C 9.738281 -39.507812 10.191406 -40.519531 10.546875 -41.25 C 10.898438 -41.988281 11.394531 -42.925781 12.03125 -44.0625 C 12.675781 -45.207031 13.382812 -46.164062 14.15625 -46.9375 C 14.925781 -47.707031 15.726562 -48.300781 16.5625 -48.71875 C 19.257812 -50 20.609375 -49.921875 20.609375 -48.484375 C 20.609375 -47.640625 19.984375 -45.757812 18.734375 -42.84375 C 18.378906 -42.039062 18.117188 -41.414062 17.953125 -40.96875 C 17.765625 -40.382812 17.601562 -39.691406 17.46875 -38.890625 C 17.34375 -38.085938 17.039062 -37.285156 16.5625 -36.484375 C 15.789062 -35.140625 15.148438 -34.003906 14.640625 -33.078125 C 14.023438 -31.984375 13.796875 -31.335938 13.953125 -31.140625 C 14.117188 -30.890625 15.742188 -30.601562 18.828125 -30.28125 C 20.972656 -30.050781 22.273438 -29.859375 22.734375 -29.703125 C 23.203125 -29.546875 23.40625 -29.238281 23.34375 -28.78125 C 23.28125 -28.175781 22.929688 -27.921875 22.296875 -28.015625 C 22.035156 -28.046875 21.519531 -28.0625 20.75 -28.0625 C 19.976562 -28.03125 19.113281 -27.984375 18.15625 -27.921875 C 17.1875 -27.859375 16.191406 -27.757812 15.171875 -27.625 C 14.171875 -27.5 13.332031 -27.40625 12.65625 -27.34375 C 12.300781 -27.28125 11.832031 -26.253906 11.25 -24.265625 C 10.675781 -22.273438 10.046875 -19.859375 9.359375 -17.015625 C 8.671875 -14.171875 8.164062 -12.269531 7.84375 -11.3125 C 6.207031 -6.40625 6.414062 -3.035156 8.46875 -1.203125 C 9.40625 -0.367188 10.273438 0.03125 11.078125 0 C 11.554688 0 12.082031 -0.175781 12.65625 -0.53125 C 12.757812 -0.65625 13.085938 -0.847656 13.640625 -1.109375 C 14.203125 -1.367188 14.78125 -1.601562 15.375 -1.8125 C 15.96875 -2.019531 16.578125 -2.234375 17.203125 -2.453125 C 17.835938 -2.679688 18.171875 -2.796875 18.203125 -2.796875 C 20.765625 -3.816406 22.832031 -4.828125 24.40625 -5.828125 Z M 24.40625 -5.828125 "/></g></g></g><g fill="#3a003d" fill-opacity="1"><g transform="translate(227.238076, 181.842055)"><g><path d="M 11.5 -29.21875 C 10.601562 -29 9.722656 -29.320312 8.859375 -30.1875 C 8.242188 -30.789062 7.921875 -31.1875 7.890625 -31.375 C 7.859375 -31.570312 8.082031 -31.863281 8.5625 -32.25 C 9.238281 -32.726562 10.097656 -32.96875 11.140625 -32.96875 C 12.179688 -32.96875 12.894531 -32.726562 13.28125 -32.25 C 13.695312 -31.707031 13.722656 -31.113281 13.359375 -30.46875 C 12.992188 -29.832031 12.375 -29.414062 11.5 -29.21875 Z M 20.078125 -6.15625 C 20.296875 -5.769531 20.300781 -5.398438 20.09375 -5.046875 C 19.882812 -4.703125 19.300781 -4.128906 18.34375 -3.328125 C 16.832031 -2.035156 15.050781 -0.863281 13 0.1875 C 11.457031 0.957031 9.859375 1.269531 8.203125 1.125 C 6.554688 0.988281 5 0.519531 3.53125 -0.28125 C 2.070312 -1.09375 0.816406 -2.140625 -0.234375 -3.421875 C -1.742188 -5.210938 -2.195312 -7.601562 -1.59375 -10.59375 C -1.53125 -10.8125 -1.398438 -11.578125 -1.203125 -12.890625 C -1.015625 -14.210938 -0.8125 -15.378906 -0.59375 -16.390625 C -0.382812 -17.398438 -0.15625 -18.066406 0.09375 -18.390625 C 0.382812 -18.742188 0.859375 -18.984375 1.515625 -19.109375 C 2.171875 -19.234375 2.851562 -19.238281 3.5625 -19.125 C 4.269531 -19.019531 4.941406 -18.8125 5.578125 -18.5 C 6.222656 -18.195312 6.664062 -17.789062 6.90625 -17.28125 C 7.144531 -16.769531 7.140625 -16.191406 6.890625 -15.546875 C 6.148438 -14.003906 5.78125 -12.929688 5.78125 -12.328125 C 5.78125 -11.742188 5.457031 -11.019531 4.8125 -10.15625 C 4.269531 -9.507812 3.941406 -8.726562 3.828125 -7.8125 C 3.710938 -6.90625 3.863281 -6.304688 4.28125 -6.015625 C 4.632812 -5.890625 4.8125 -5.488281 4.8125 -4.8125 C 4.8125 -4.238281 5.226562 -3.582031 6.0625 -2.84375 C 6.644531 -2.289062 7.101562 -1.984375 7.4375 -1.921875 C 7.769531 -1.859375 8.390625 -1.941406 9.296875 -2.171875 C 10.609375 -2.648438 12.289062 -3.628906 14.34375 -5.109375 C 15.976562 -6.296875 17.222656 -6.96875 18.078125 -7.125 C 18.929688 -7.28125 19.597656 -6.957031 20.078125 -6.15625 Z M 20.078125 -6.15625 "/></g></g></g><g fill="#3a003d" fill-opacity="1"><g transform="translate(239.96696, 181.842055)"><g><path d="M 24.796875 -9.09375 C 25.492188 -9.707031 26.109375 -9.957031 26.640625 -9.84375 C 27.171875 -9.726562 27.4375 -9.207031 27.4375 -8.28125 C 27.4375 -8.082031 27.40625 -7.867188 27.34375 -7.640625 C 27.28125 -7.421875 27.191406 -7.222656 27.078125 -7.046875 C 26.960938 -6.867188 26.816406 -6.679688 26.640625 -6.484375 C 26.460938 -6.296875 26.285156 -6.128906 26.109375 -5.984375 C 25.929688 -5.847656 25.726562 -5.695312 25.5 -5.53125 C 25.28125 -5.375 25.09375 -5.238281 24.9375 -5.125 C 24.78125 -5.007812 24.585938 -4.875 24.359375 -4.71875 C 24.128906 -4.5625 23.96875 -4.445312 23.875 -4.375 C 23.101562 -3.863281 22.300781 -3.429688 21.46875 -3.078125 C 21.40625 -3.046875 21.242188 -2.96875 20.984375 -2.84375 C 20.117188 -1.945312 19.347656 -1.335938 18.671875 -1.015625 C 18.035156 -0.753906 17.1875 -0.59375 16.125 -0.53125 C 15.03125 -0.207031 14.273438 -0.238281 13.859375 -0.625 C 13.734375 -0.625 13.359375 -0.65625 12.734375 -0.71875 C 12.109375 -0.78125 11.679688 -0.816406 11.453125 -0.828125 C 11.234375 -0.847656 10.890625 -0.859375 10.421875 -0.859375 C 9.953125 -0.859375 9.550781 -0.8125 9.21875 -0.71875 C 8.882812 -0.625 8.554688 -0.5 8.234375 -0.34375 C 7.816406 -0.0820312 7.285156 0.03125 6.640625 0 C 6.003906 -0.03125 4.898438 -0.160156 3.328125 -0.390625 C 2.203125 -0.546875 1.253906 -0.65625 0.484375 -0.71875 C 0.316406 -0.71875 0.140625 -0.71875 -0.046875 -0.71875 C -0.242188 -0.71875 -0.453125 -0.722656 -0.671875 -0.734375 C -0.898438 -0.753906 -1.078125 -0.816406 -1.203125 -0.921875 C -1.554688 -1.140625 -1.988281 -2.003906 -2.5 -3.515625 C -2.789062 -4.378906 -2.96875 -5.273438 -3.03125 -6.203125 C -3.09375 -6.585938 -3.09375 -6.894531 -3.03125 -7.125 C -2.875 -7.925781 -2.617188 -8.421875 -2.265625 -8.609375 C -2.128906 -8.679688 -1.882812 -8.75 -1.53125 -8.8125 C -1.1875 -8.875 -0.929688 -8.984375 -0.765625 -9.140625 C -0.484375 -9.367188 -0.242188 -9.738281 -0.046875 -10.25 C 0.140625 -10.800781 0.25 -11.363281 0.28125 -11.9375 C 0.320312 -12.445312 0.375 -12.785156 0.4375 -12.953125 C 0.5625 -13.140625 0.804688 -13.34375 1.171875 -13.5625 C 1.546875 -13.789062 1.75 -13.921875 1.78125 -13.953125 C 2.164062 -14.273438 2.503906 -14.710938 2.796875 -15.265625 C 2.921875 -15.546875 3.175781 -16.441406 3.5625 -17.953125 C 3.914062 -19.140625 4.203125 -20.359375 4.421875 -21.609375 C 4.648438 -22.828125 4.8125 -23.875 4.90625 -24.75 C 5.070312 -26.738281 5.289062 -27.90625 5.5625 -28.25 C 5.832031 -28.601562 6.34375 -28.769531 7.09375 -28.75 C 7.851562 -28.738281 8.503906 -28.523438 9.046875 -28.109375 C 9.304688 -27.953125 9.539062 -27.6875 9.75 -27.3125 C 9.957031 -26.945312 10.109375 -26.617188 10.203125 -26.328125 C 10.296875 -26.046875 10.414062 -25.644531 10.5625 -25.125 C 10.707031 -24.613281 10.8125 -24.28125 10.875 -24.125 C 11.457031 -22.382812 11.875 -20.773438 12.125 -19.296875 C 12.226562 -18.722656 12.34375 -17.878906 12.46875 -16.765625 C 12.59375 -15.660156 12.734375 -14.660156 12.890625 -13.765625 C 13.054688 -12.867188 13.285156 -12.035156 13.578125 -11.265625 C 14.085938 -9.847656 14.265625 -8.582031 14.109375 -7.46875 C 14.003906 -6.757812 13.953125 -6.097656 13.953125 -5.484375 C 13.953125 -4.878906 14.15625 -4.382812 14.5625 -4 C 14.96875 -3.613281 15.585938 -3.453125 16.421875 -3.515625 C 16.773438 -3.546875 17.125 -3.625 17.46875 -3.75 C 17.820312 -3.882812 18.117188 -4.015625 18.359375 -4.140625 C 18.609375 -4.265625 18.914062 -4.472656 19.28125 -4.765625 C 19.644531 -5.054688 19.890625 -5.253906 20.015625 -5.359375 C 20.148438 -5.472656 20.425781 -5.722656 20.84375 -6.109375 C 21.320312 -6.554688 22.066406 -7.140625 23.078125 -7.859375 C 24.085938 -8.585938 24.660156 -9 24.796875 -9.09375 Z M 7.21875 -5.828125 C 8.664062 -6.148438 9.515625 -6.863281 9.765625 -7.96875 C 10.023438 -9.070312 9.753906 -10.859375 8.953125 -13.328125 C 8.148438 -15.671875 7.65625 -16.84375 7.46875 -16.84375 C 7.238281 -16.84375 7.046875 -16.394531 6.890625 -15.5 C 6.691406 -14.664062 6.445312 -14.054688 6.15625 -13.671875 C 5.769531 -13.128906 5.160156 -11.96875 4.328125 -10.1875 C 3.492188 -8.40625 3.144531 -7.414062 3.28125 -7.21875 C 3.4375 -7 3.753906 -6.757812 4.234375 -6.5 C 4.710938 -6.238281 5.234375 -6.046875 5.796875 -5.921875 C 6.359375 -5.796875 6.832031 -5.765625 7.21875 -5.828125 Z M 7.21875 -5.828125 "/></g></g></g><g fill="#3a003d" fill-opacity="1"><g transform="translate(260.973677, 181.842055)"><g><path d="M 30.8125 -5.875 C 31.414062 -6.351562 31.9375 -6.550781 32.375 -6.46875 C 32.8125 -6.394531 33.03125 -5.972656 33.03125 -5.203125 C 33.03125 -5.035156 32.992188 -4.863281 32.921875 -4.6875 C 32.859375 -4.507812 32.785156 -4.347656 32.703125 -4.203125 C 32.628906 -4.066406 32.507812 -3.914062 32.34375 -3.75 C 32.1875 -3.59375 32.039062 -3.445312 31.90625 -3.3125 C 31.78125 -3.1875 31.617188 -3.050781 31.421875 -2.90625 C 31.234375 -2.769531 31.078125 -2.660156 30.953125 -2.578125 C 30.828125 -2.492188 30.664062 -2.382812 30.46875 -2.25 C 30.28125 -2.125 30.140625 -2.03125 30.046875 -1.96875 C 29.429688 -1.550781 28.785156 -1.203125 28.109375 -0.921875 C 28.046875 -0.878906 27.660156 -0.6875 26.953125 -0.34375 L 26.71875 -0.046875 C 25.851562 0.785156 24.601562 1.300781 22.96875 1.5 C 21.9375 1.625 21.140625 1.628906 20.578125 1.515625 C 20.015625 1.398438 19.238281 1.117188 18.25 0.671875 C 16.769531 -0.0351562 15.789062 -0.613281 15.3125 -1.0625 C 14.988281 -1.3125 14.710938 -1.421875 14.484375 -1.390625 C 14.265625 -1.359375 13.847656 -1.101562 13.234375 -0.625 C 11.273438 0.789062 8.941406 1.582031 6.234375 1.75 C 3.523438 1.925781 1.753906 1.390625 0.921875 0.140625 C 0.398438 -0.660156 0.160156 -2.210938 0.203125 -4.515625 C 0.253906 -6.828125 0.554688 -8.484375 1.109375 -9.484375 C 1.585938 -10.347656 1.957031 -10.988281 2.21875 -11.40625 C 2.5 -11.820312 2.769531 -12.207031 3.03125 -12.5625 C 3.289062 -12.945312 3.722656 -13.507812 4.328125 -14.25 C 6.347656 -16.75 7.9375 -18.46875 9.09375 -19.40625 C 10 -20.101562 11.0625 -20.703125 12.28125 -21.203125 C 13.5 -21.703125 14.769531 -22.03125 16.09375 -22.1875 C 17.425781 -22.351562 18.609375 -22.175781 19.640625 -21.65625 C 20.890625 -21.019531 21.660156 -19.921875 21.953125 -18.359375 C 22.242188 -16.804688 22.210938 -15.300781 21.859375 -13.84375 C 21.503906 -12.382812 21.003906 -11.007812 20.359375 -9.71875 C 19.816406 -8.5 19.410156 -7.164062 19.140625 -5.71875 C 18.867188 -4.28125 18.875 -3.335938 19.15625 -2.890625 C 19.769531 -1.671875 21.773438 -1.585938 25.171875 -2.640625 C 25.304688 -2.679688 25.4375 -2.703125 25.5625 -2.703125 C 25.75 -2.765625 25.894531 -2.828125 26 -2.890625 C 28.050781 -3.953125 29.65625 -4.945312 30.8125 -5.875 Z M 16.265625 -14.921875 C 16.617188 -15.117188 16.8125 -15.28125 16.84375 -15.40625 C 16.875 -15.53125 16.796875 -15.691406 16.609375 -15.890625 C 16.222656 -16.304688 15.675781 -16.578125 14.96875 -16.703125 C 14.257812 -16.828125 13.570312 -16.796875 12.90625 -16.609375 C 12.226562 -16.453125 11.207031 -15.8125 9.84375 -14.6875 C 8.476562 -13.5625 7.554688 -12.597656 7.078125 -11.796875 C 6.429688 -10.859375 5.882812 -10.023438 5.4375 -9.296875 C 4.894531 -8.523438 4.523438 -7.398438 4.328125 -5.921875 C 4.140625 -4.441406 4.222656 -3.476562 4.578125 -3.03125 C 4.898438 -2.644531 5.601562 -2.453125 6.6875 -2.453125 C 7.78125 -2.453125 8.804688 -2.628906 9.765625 -2.984375 C 10.703125 -3.429688 11.394531 -4.101562 11.84375 -5 C 12.613281 -6.507812 13.238281 -7.734375 13.71875 -8.671875 C 14.550781 -10.109375 14.96875 -11.085938 14.96875 -11.609375 C 14.96875 -11.921875 15.101562 -12.242188 15.375 -12.578125 C 15.65625 -12.921875 15.726562 -13.285156 15.59375 -13.671875 C 15.4375 -14.179688 15.660156 -14.597656 16.265625 -14.921875 Z M 16.265625 -14.921875 "/></g></g></g><g fill="#3a003d" fill-opacity="1"><g transform="translate(287.731541, 181.842055)"><g><path d="M -1.96875 -6.640625 C -1.457031 -7.503906 -0.46875 -9.484375 1 -12.578125 C 2.476562 -15.679688 3.75 -17.859375 4.8125 -19.109375 C 4.976562 -19.335938 5.15625 -19.546875 5.34375 -19.734375 C 5.726562 -20.148438 6.253906 -20.460938 6.921875 -20.671875 C 7.597656 -20.878906 8.210938 -20.859375 8.765625 -20.609375 C 8.953125 -20.472656 9.085938 -20.132812 9.171875 -19.59375 C 9.253906 -19.050781 9.375 -18.765625 9.53125 -18.734375 C 9.757812 -18.691406 10.304688 -18.976562 11.171875 -19.59375 C 12.648438 -20.625 14.976562 -21.472656 18.15625 -22.140625 C 19.4375 -22.460938 20.269531 -22.59375 20.65625 -22.53125 C 21.039062 -22.46875 21.519531 -22.175781 22.09375 -21.65625 C 22.832031 -20.925781 23.21875 -20.03125 23.25 -18.96875 C 23.28125 -17.90625 22.925781 -16.910156 22.1875 -15.984375 C 21.644531 -15.179688 20.941406 -13.59375 20.078125 -11.21875 C 19.210938 -8.84375 18.78125 -7.207031 18.78125 -6.3125 C 18.78125 -5.664062 18.992188 -4.960938 19.421875 -4.203125 C 19.859375 -3.453125 20.390625 -2.828125 21.015625 -2.328125 C 21.640625 -1.835938 22.207031 -1.59375 22.71875 -1.59375 C 23.488281 -1.59375 25.109375 -2.234375 27.578125 -3.515625 C 30.054688 -4.796875 32 -6.015625 33.40625 -7.171875 C 34.46875 -7.972656 35.222656 -8.347656 35.671875 -8.296875 C 36.117188 -8.253906 36.34375 -7.785156 36.34375 -6.890625 C 36.34375 -6.503906 36.171875 -6.0625 35.828125 -5.5625 C 35.492188 -5.0625 35.054688 -4.539062 34.515625 -4 C 33.941406 -3.476562 33.269531 -2.953125 32.5 -2.421875 C 31.726562 -1.898438 30.941406 -1.476562 30.140625 -1.15625 C 28.015625 -0.15625 26.488281 0.566406 25.5625 1.015625 C 23.957031 1.753906 22.535156 1.960938 21.296875 1.640625 C 20.066406 1.316406 18.617188 0.320312 16.953125 -1.34375 C 15.597656 -2.695312 14.800781 -3.617188 14.5625 -4.109375 C 14.320312 -4.609375 14.203125 -5.566406 14.203125 -6.984375 C 14.203125 -9.035156 14.570312 -11.171875 15.3125 -13.390625 C 15.945312 -15.597656 16.203125 -16.800781 16.078125 -17 C 15.890625 -17.1875 14.585938 -16.148438 12.171875 -13.890625 C 9.765625 -11.628906 7.40625 -9.238281 5.09375 -6.71875 C 2.789062 -4.195312 1.640625 -2.742188 1.640625 -2.359375 C 1.640625 -2.035156 1.4375 -1.679688 1.03125 -1.296875 C 0.632812 -0.910156 0.148438 -0.597656 -0.421875 -0.359375 C -1.003906 -0.117188 -1.519531 -0.046875 -1.96875 -0.140625 C -2.707031 -0.234375 -3.222656 -0.8125 -3.515625 -1.875 C -3.734375 -2.582031 -3.765625 -3.207031 -3.609375 -3.75 C -3.453125 -4.300781 -2.90625 -5.265625 -1.96875 -6.640625 Z M -1.96875 -6.640625 "/></g></g></g><g fill="#3a003d" fill-opacity="1"><g transform="translate(318.219237, 181.842055)"><g><path d="M 24.796875 -9.09375 C 25.492188 -9.707031 26.109375 -9.957031 26.640625 -9.84375 C 27.171875 -9.726562 27.4375 -9.207031 27.4375 -8.28125 C 27.4375 -8.082031 27.40625 -7.867188 27.34375 -7.640625 C 27.28125 -7.421875 27.191406 -7.222656 27.078125 -7.046875 C 26.960938 -6.867188 26.816406 -6.679688 26.640625 -6.484375 C 26.460938 -6.296875 26.285156 -6.128906 26.109375 -5.984375 C 25.929688 -5.847656 25.726562 -5.695312 25.5 -5.53125 C 25.28125 -5.375 25.09375 -5.238281 24.9375 -5.125 C 24.78125 -5.007812 24.585938 -4.875 24.359375 -4.71875 C 24.128906 -4.5625 23.96875 -4.445312 23.875 -4.375 C 23.101562 -3.863281 22.300781 -3.429688 21.46875 -3.078125 C 21.40625 -3.046875 21.242188 -2.96875 20.984375 -2.84375 C 20.117188 -1.945312 19.347656 -1.335938 18.671875 -1.015625 C 18.035156 -0.753906 17.1875 -0.59375 16.125 -0.53125 C 15.03125 -0.207031 14.273438 -0.238281 13.859375 -0.625 C 13.734375 -0.625 13.359375 -0.65625 12.734375 -0.71875 C 12.109375 -0.78125 11.679688 -0.816406 11.453125 -0.828125 C 11.234375 -0.847656 10.890625 -0.859375 10.421875 -0.859375 C 9.953125 -0.859375 9.550781 -0.8125 9.21875 -0.71875 C 8.882812 -0.625 8.554688 -0.5 8.234375 -0.34375 C 7.816406 -0.0820312 7.285156 0.03125 6.640625 0 C 6.003906 -0.03125 4.898438 -0.160156 3.328125 -0.390625 C 2.203125 -0.546875 1.253906 -0.65625 0.484375 -0.71875 C 0.316406 -0.71875 0.140625 -0.71875 -0.046875 -0.71875 C -0.242188 -0.71875 -0.453125 -0.722656 -0.671875 -0.734375 C -0.898438 -0.753906 -1.078125 -0.816406 -1.203125 -0.921875 C -1.554688 -1.140625 -1.988281 -2.003906 -2.5 -3.515625 C -2.789062 -4.378906 -2.96875 -5.273438 -3.03125 -6.203125 C -3.09375 -6.585938 -3.09375 -6.894531 -3.03125 -7.125 C -2.875 -7.925781 -2.617188 -8.421875 -2.265625 -8.609375 C -2.128906 -8.679688 -1.882812 -8.75 -1.53125 -8.8125 C -1.1875 -8.875 -0.929688 -8.984375 -0.765625 -9.140625 C -0.484375 -9.367188 -0.242188 -9.738281 -0.046875 -10.25 C 0.140625 -10.800781 0.25 -11.363281 0.28125 -11.9375 C 0.320312 -12.445312 0.375 -12.785156 0.4375 -12.953125 C 0.5625 -13.140625 0.804688 -13.34375 1.171875 -13.5625 C 1.546875 -13.789062 1.75 -13.921875 1.78125 -13.953125 C 2.164062 -14.273438 2.503906 -14.710938 2.796875 -15.265625 C 2.921875 -15.546875 3.175781 -16.441406 3.5625 -17.953125 C 3.914062 -19.140625 4.203125 -20.359375 4.421875 -21.609375 C 4.648438 -22.828125 4.8125 -23.875 4.90625 -24.75 C 5.070312 -26.738281 5.289062 -27.90625 5.5625 -28.25 C 5.832031 -28.601562 6.34375 -28.769531 7.09375 -28.75 C 7.851562 -28.738281 8.503906 -28.523438 9.046875 -28.109375 C 9.304688 -27.953125 9.539062 -27.6875 9.75 -27.3125 C 9.957031 -26.945312 10.109375 -26.617188 10.203125 -26.328125 C 10.296875 -26.046875 10.414062 -25.644531 10.5625 -25.125 C 10.707031 -24.613281 10.8125 -24.28125 10.875 -24.125 C 11.457031 -22.382812 11.875 -20.773438 12.125 -19.296875 C 12.226562 -18.722656 12.34375 -17.878906 12.46875 -16.765625 C 12.59375 -15.660156 12.734375 -14.660156 12.890625 -13.765625 C 13.054688 -12.867188 13.285156 -12.035156 13.578125 -11.265625 C 14.085938 -9.847656 14.265625 -8.582031 14.109375 -7.46875 C 14.003906 -6.757812 13.953125 -6.097656 13.953125 -5.484375 C 13.953125 -4.878906 14.15625 -4.382812 14.5625 -4 C 14.96875 -3.613281 15.585938 -3.453125 16.421875 -3.515625 C 16.773438 -3.546875 17.125 -3.625 17.46875 -3.75 C 17.820312 -3.882812 18.117188 -4.015625 18.359375 -4.140625 C 18.609375 -4.265625 18.914062 -4.472656 19.28125 -4.765625 C 19.644531 -5.054688 19.890625 -5.253906 20.015625 -5.359375 C 20.148438 -5.472656 20.425781 -5.722656 20.84375 -6.109375 C 21.320312 -6.554688 22.066406 -7.140625 23.078125 -7.859375 C 24.085938 -8.585938 24.660156 -9 24.796875 -9.09375 Z M 7.21875 -5.828125 C 8.664062 -6.148438 9.515625 -6.863281 9.765625 -7.96875 C 10.023438 -9.070312 9.753906 -10.859375 8.953125 -13.328125 C 8.148438 -15.671875 7.65625 -16.84375 7.46875 -16.84375 C 7.238281 -16.84375 7.046875 -16.394531 6.890625 -15.5 C 6.691406 -14.664062 6.445312 -14.054688 6.15625 -13.671875 C 5.769531 -13.128906 5.160156 -11.96875 4.328125 -10.1875 C 3.492188 -8.40625 3.144531 -7.414062 3.28125 -7.21875 C 3.4375 -7 3.753906 -6.757812 4.234375 -6.5 C 4.710938 -6.238281 5.234375 -6.046875 5.796875 -5.921875 C 6.359375 -5.796875 6.832031 -5.765625 7.21875 -5.828125 Z M 7.21875 -5.828125 "/></g></g></g><g fill="#ff5a19" fill-opacity="1"><g transform="translate(144.287412, 232.441493)"><g><path d="M 33.53125 -15.15625 C 33.53125 -14.65625 33.488281 -13.945312 33.40625 -13.03125 L 9.359375 -13.03125 C 9.773438 -10.769531 10.875 -8.976562 12.65625 -7.65625 C 14.4375 -6.34375 16.644531 -5.6875 19.28125 -5.6875 C 22.65625 -5.6875 25.429688 -6.796875 27.609375 -9.015625 L 31.453125 -4.59375 C 30.078125 -2.945312 28.335938 -1.703125 26.234375 -0.859375 C 24.128906 -0.015625 21.753906 0.40625 19.109375 0.40625 C 15.742188 0.40625 12.78125 -0.257812 10.21875 -1.59375 C 7.65625 -2.9375 5.675781 -4.804688 4.28125 -7.203125 C 2.882812 -9.597656 2.1875 -12.304688 2.1875 -15.328125 C 2.1875 -18.316406 2.863281 -21.003906 4.21875 -23.390625 C 5.570312 -25.785156 7.453125 -27.648438 9.859375 -28.984375 C 12.273438 -30.328125 15 -31 18.03125 -31 C 21.007812 -31 23.675781 -30.335938 26.03125 -29.015625 C 28.382812 -27.691406 30.222656 -25.832031 31.546875 -23.4375 C 32.867188 -21.050781 33.53125 -18.289062 33.53125 -15.15625 Z M 18.03125 -25.265625 C 15.726562 -25.265625 13.78125 -24.582031 12.1875 -23.21875 C 10.601562 -21.863281 9.640625 -20.054688 9.296875 -17.796875 L 26.6875 -17.796875 C 26.382812 -20.015625 25.445312 -21.8125 23.875 -23.1875 C 22.3125 -24.570312 20.363281 -25.265625 18.03125 -25.265625 Z M 18.03125 -25.265625 "/></g></g></g><g fill="#ff5a19" fill-opacity="1"><g transform="translate(176.022508, 232.441493)"><g><path d="M 3.15625 -18.9375 L 18.9375 -18.9375 L 18.9375 -12.96875 L 3.15625 -12.96875 Z M 3.15625 -18.9375 "/></g></g></g><g fill="#ff5a19" fill-opacity="1"><g transform="translate(194.156503, 232.441493)"><g><path d="M 17.859375 0.578125 C 14.753906 0.578125 11.753906 0.140625 8.859375 -0.734375 C 5.972656 -1.617188 3.691406 -2.789062 2.015625 -4.25 L 4.59375 -10.046875 C 6.238281 -8.742188 8.253906 -7.679688 10.640625 -6.859375 C 13.035156 -6.035156 15.441406 -5.625 17.859375 -5.625 C 20.835938 -5.625 23.0625 -6.101562 24.53125 -7.0625 C 26.007812 -8.019531 26.75 -9.28125 26.75 -10.84375 C 26.75 -12 26.335938 -12.945312 25.515625 -13.6875 C 24.691406 -14.4375 23.648438 -15.019531 22.390625 -15.4375 C 21.128906 -15.863281 19.40625 -16.34375 17.21875 -16.875 C 14.15625 -17.601562 11.675781 -18.332031 9.78125 -19.0625 C 7.894531 -19.789062 6.269531 -20.925781 4.90625 -22.46875 C 3.550781 -24.019531 2.875 -26.117188 2.875 -28.765625 C 2.875 -30.984375 3.472656 -33 4.671875 -34.8125 C 5.878906 -36.632812 7.695312 -38.082031 10.125 -39.15625 C 12.5625 -40.226562 15.539062 -40.765625 19.0625 -40.765625 C 21.507812 -40.765625 23.914062 -40.457031 26.28125 -39.84375 C 28.65625 -39.226562 30.707031 -38.347656 32.4375 -37.203125 L 30.078125 -31.40625 C 28.316406 -32.4375 26.476562 -33.21875 24.5625 -33.75 C 22.65625 -34.289062 20.800781 -34.5625 19 -34.5625 C 16.050781 -34.5625 13.859375 -34.0625 12.421875 -33.0625 C 10.992188 -32.070312 10.28125 -30.753906 10.28125 -29.109375 C 10.28125 -27.953125 10.691406 -27.007812 11.515625 -26.28125 C 12.335938 -25.5625 13.378906 -24.988281 14.640625 -24.5625 C 15.898438 -24.144531 17.625 -23.671875 19.8125 -23.140625 C 22.789062 -22.441406 25.234375 -21.71875 27.140625 -20.96875 C 29.054688 -20.226562 30.691406 -19.09375 32.046875 -17.5625 C 33.410156 -16.03125 34.09375 -13.960938 34.09375 -11.359375 C 34.09375 -9.140625 33.488281 -7.128906 32.28125 -5.328125 C 31.082031 -3.535156 29.257812 -2.101562 26.8125 -1.03125 C 24.363281 0.0390625 21.378906 0.578125 17.859375 0.578125 Z M 17.859375 0.578125 "/></g></g></g><g fill="#ff5a19" fill-opacity="1"><g transform="translate(226.293327, 232.441493)"><g><path d="M 22.09375 -31 C 25.96875 -31 29.070312 -29.867188 31.40625 -27.609375 C 33.738281 -25.347656 34.90625 -22 34.90625 -17.5625 L 34.90625 0 L 27.734375 0 L 27.734375 -16.640625 C 27.734375 -19.328125 27.097656 -21.347656 25.828125 -22.703125 C 24.566406 -24.054688 22.769531 -24.734375 20.4375 -24.734375 C 17.789062 -24.734375 15.703125 -23.941406 14.171875 -22.359375 C 12.648438 -20.773438 11.890625 -18.488281 11.890625 -15.5 L 11.890625 0 L 4.703125 0 L 4.703125 -42.59375 L 11.890625 -42.59375 L 11.890625 -27.09375 C 13.066406 -28.351562 14.523438 -29.316406 16.265625 -29.984375 C 18.015625 -30.660156 19.957031 -31 22.09375 -31 Z M 22.09375 -31 "/></g></g></g><g fill="#ff5a19" fill-opacity="1"><g transform="translate(261.643912, 232.441493)"><g><path d="M 18.484375 0.40625 C 15.378906 0.40625 12.582031 -0.257812 10.09375 -1.59375 C 7.613281 -2.9375 5.675781 -4.804688 4.28125 -7.203125 C 2.882812 -9.597656 2.1875 -12.304688 2.1875 -15.328125 C 2.1875 -18.347656 2.882812 -21.046875 4.28125 -23.421875 C 5.675781 -25.796875 7.613281 -27.648438 10.09375 -28.984375 C 12.582031 -30.328125 15.378906 -31 18.484375 -31 C 21.617188 -31 24.429688 -30.328125 26.921875 -28.984375 C 29.410156 -27.648438 31.351562 -25.796875 32.75 -23.421875 C 34.144531 -21.046875 34.84375 -18.347656 34.84375 -15.328125 C 34.84375 -12.304688 34.144531 -9.597656 32.75 -7.203125 C 31.351562 -4.804688 29.410156 -2.9375 26.921875 -1.59375 C 24.429688 -0.257812 21.617188 0.40625 18.484375 0.40625 Z M 18.484375 -5.734375 C 21.128906 -5.734375 23.3125 -6.613281 25.03125 -8.375 C 26.75 -10.132812 27.609375 -12.453125 27.609375 -15.328125 C 27.609375 -18.203125 26.75 -20.519531 25.03125 -22.28125 C 23.3125 -24.039062 21.128906 -24.921875 18.484375 -24.921875 C 15.847656 -24.921875 13.675781 -24.039062 11.96875 -22.28125 C 10.269531 -20.519531 9.421875 -18.203125 9.421875 -15.328125 C 9.421875 -12.453125 10.269531 -10.132812 11.96875 -8.375 C 13.675781 -6.613281 15.847656 -5.734375 18.484375 -5.734375 Z M 18.484375 -5.734375 "/></g></g></g><g fill="#ff5a19" fill-opacity="1"><g transform="translate(294.698952, 232.441493)"><g><path d="M 21.703125 -31 C 24.679688 -31 27.347656 -30.347656 29.703125 -29.046875 C 32.054688 -27.742188 33.898438 -25.90625 35.234375 -23.53125 C 36.578125 -21.164062 37.25 -18.429688 37.25 -15.328125 C 37.25 -12.222656 36.578125 -9.472656 35.234375 -7.078125 C 33.898438 -4.691406 32.054688 -2.847656 29.703125 -1.546875 C 27.347656 -0.242188 24.679688 0.40625 21.703125 0.40625 C 17.566406 0.40625 14.296875 -0.972656 11.890625 -3.734375 L 11.890625 11.140625 L 4.703125 11.140625 L 4.703125 -30.65625 L 11.53125 -30.65625 L 11.53125 -26.640625 C 12.71875 -28.085938 14.179688 -29.175781 15.921875 -29.90625 C 17.671875 -30.632812 19.597656 -31 21.703125 -31 Z M 20.890625 -5.734375 C 23.535156 -5.734375 25.707031 -6.613281 27.40625 -8.375 C 29.113281 -10.132812 29.96875 -12.453125 29.96875 -15.328125 C 29.96875 -18.203125 29.113281 -20.519531 27.40625 -22.28125 C 25.707031 -24.039062 23.535156 -24.921875 20.890625 -24.921875 C 19.171875 -24.921875 17.617188 -24.523438 16.234375 -23.734375 C 14.859375 -22.953125 13.769531 -21.832031 12.96875 -20.375 C 12.164062 -18.925781 11.765625 -17.242188 11.765625 -15.328125 C 11.765625 -13.410156 12.164062 -11.722656 12.96875 -10.265625 C 13.769531 -8.816406 14.859375 -7.695312 16.234375 -6.90625 C 17.617188 -6.125 19.171875 -5.734375 20.890625 -5.734375 Z M 20.890625 -5.734375 "/></g></g></g><g mask="url(#4e3e89ba8e)"><g transform="matrix(1, 0, 0, 1, 63, 220)"><g clip-path="url(#3e69d02e1d)"><g clip-path="url(#07cbbdd1bd)"><g fill="#ffffff" fill-opacity="1"><g transform="translate(0.386089, 11.630602)"><g><path d="M 6.046875 -0.90625 C 6.140625 -0.988281 6.222656 -1.019531 6.296875 -1 C 6.378906 -0.988281 6.421875 -0.914062 6.421875 -0.78125 C 6.421875 -0.75 6.410156 -0.710938 6.390625 -0.671875 C 6.367188 -0.628906 6.347656 -0.59375 6.328125 -0.5625 C 6.304688 -0.53125 6.269531 -0.492188 6.21875 -0.453125 C 6.175781 -0.421875 6.140625 -0.394531 6.109375 -0.375 C 6.085938 -0.351562 6.050781 -0.328125 6 -0.296875 C 5.945312 -0.265625 5.914062 -0.242188 5.90625 -0.234375 C 5.800781 -0.160156 5.691406 -0.0976562 5.578125 -0.046875 C 5.554688 -0.046875 5.515625 -0.03125 5.453125 0 C 5.398438 0.0390625 5.34375 0.078125 5.28125 0.109375 C 5.21875 0.140625 5.144531 0.175781 5.0625 0.21875 C 4.976562 0.257812 4.90625 0.285156 4.84375 0.296875 C 4.78125 0.316406 4.710938 0.332031 4.640625 0.34375 C 4.578125 0.351562 4.53125 0.34375 4.5 0.3125 C 4.320312 0.300781 4.097656 0.21875 3.828125 0.0625 C 3.453125 -0.15625 3.242188 -0.363281 3.203125 -0.5625 C 3.160156 -0.695312 3.113281 -0.765625 3.0625 -0.765625 C 3.007812 -0.765625 2.753906 -0.578125 2.296875 -0.203125 C 1.910156 0.0976562 1.628906 0.28125 1.453125 0.34375 C 1.273438 0.414062 1.101562 0.40625 0.9375 0.3125 C 0.78125 0.238281 0.632812 0.117188 0.5 -0.046875 C 0.363281 -0.222656 0.296875 -0.375 0.296875 -0.5 C 0.296875 -0.644531 0.335938 -0.863281 0.421875 -1.15625 C 0.503906 -1.457031 0.566406 -1.632812 0.609375 -1.6875 C 0.671875 -1.75 0.703125 -1.851562 0.703125 -2 C 0.703125 -2.082031 0.738281 -2.195312 0.8125 -2.34375 C 0.894531 -2.488281 0.9375 -2.601562 0.9375 -2.6875 C 0.9375 -2.8125 0.960938 -2.890625 1.015625 -2.921875 C 1.078125 -2.960938 1.1875 -3.15625 1.34375 -3.5 C 1.507812 -3.851562 1.625 -4.148438 1.6875 -4.390625 C 1.75 -4.578125 1.832031 -4.75 1.9375 -4.90625 C 2.039062 -5.070312 2.113281 -5.140625 2.15625 -5.109375 C 2.207031 -5.085938 2.425781 -5.234375 2.8125 -5.546875 C 3.113281 -5.796875 3.363281 -5.972656 3.5625 -6.078125 C 3.757812 -6.191406 4.015625 -6.300781 4.328125 -6.40625 C 4.597656 -6.488281 4.769531 -6.523438 4.84375 -6.515625 C 4.90625 -6.515625 5.023438 -6.441406 5.203125 -6.296875 C 5.328125 -6.191406 5.410156 -6.101562 5.453125 -6.03125 C 5.492188 -5.96875 5.515625 -5.863281 5.515625 -5.71875 C 5.515625 -5.5 5.40625 -5.132812 5.1875 -4.625 C 5.132812 -4.507812 5.046875 -4.28125 4.921875 -3.9375 C 4.816406 -3.601562 4.710938 -3.347656 4.609375 -3.171875 C 4.515625 -3.015625 4.445312 -2.820312 4.40625 -2.59375 C 4.375 -2.382812 4.332031 -2.222656 4.28125 -2.109375 C 4.269531 -2.078125 4.191406 -1.859375 4.046875 -1.453125 C 3.953125 -1.222656 3.90625 -1.066406 3.90625 -0.984375 C 3.90625 -0.910156 3.929688 -0.816406 3.984375 -0.703125 C 4.078125 -0.535156 4.1875 -0.453125 4.3125 -0.453125 C 4.445312 -0.429688 4.578125 -0.363281 4.703125 -0.25 C 4.710938 -0.238281 4.71875 -0.234375 4.71875 -0.234375 C 4.726562 -0.234375 4.734375 -0.226562 4.734375 -0.21875 C 4.742188 -0.21875 4.75 -0.21875 4.75 -0.21875 C 4.800781 -0.238281 4.878906 -0.265625 4.984375 -0.296875 C 5.085938 -0.335938 5.160156 -0.367188 5.203125 -0.390625 C 5.554688 -0.578125 5.835938 -0.75 6.046875 -0.90625 Z M 3.546875 -2.921875 C 3.691406 -3.160156 3.804688 -3.398438 3.890625 -3.640625 C 3.992188 -3.960938 4.082031 -4.179688 4.15625 -4.296875 C 4.238281 -4.410156 4.28125 -4.53125 4.28125 -4.65625 C 4.28125 -4.769531 4.304688 -4.847656 4.359375 -4.890625 C 4.398438 -4.910156 4.476562 -5.03125 4.59375 -5.25 C 4.71875 -5.46875 4.753906 -5.597656 4.703125 -5.640625 C 4.648438 -5.691406 4.519531 -5.691406 4.3125 -5.640625 C 4.113281 -5.585938 3.9375 -5.515625 3.78125 -5.421875 C 3.632812 -5.328125 3.460938 -5.171875 3.265625 -4.953125 C 3.078125 -4.734375 2.984375 -4.585938 2.984375 -4.515625 C 2.984375 -4.460938 2.859375 -4.296875 2.609375 -4.015625 C 2.367188 -3.734375 2.25 -3.554688 2.25 -3.484375 C 2.25 -3.410156 2.15625 -3.242188 1.96875 -2.984375 C 1.78125 -2.703125 1.65625 -2.445312 1.59375 -2.21875 C 1.519531 -1.957031 1.460938 -1.796875 1.421875 -1.734375 C 1.378906 -1.628906 1.359375 -1.539062 1.359375 -1.46875 C 1.359375 -1.394531 1.3125 -1.273438 1.21875 -1.109375 C 1.144531 -0.953125 1.125 -0.84375 1.15625 -0.78125 C 1.1875 -0.71875 1.28125 -0.6875 1.4375 -0.6875 C 1.539062 -0.6875 1.691406 -0.753906 1.890625 -0.890625 C 2.097656 -1.023438 2.25 -1.160156 2.34375 -1.296875 C 2.351562 -1.304688 2.375 -1.332031 2.40625 -1.375 C 2.445312 -1.425781 2.488281 -1.476562 2.53125 -1.53125 C 2.570312 -1.59375 2.613281 -1.648438 2.65625 -1.703125 C 3.09375 -2.273438 3.390625 -2.679688 3.546875 -2.921875 Z M 3.546875 -2.921875 "/></g></g></g></g><g fill="#ffffff" fill-opacity="1"><g transform="translate(5.851009, 11.630602)"><g><path d="M 4.390625 -1.109375 C 4.484375 -1.191406 4.566406 -1.222656 4.640625 -1.203125 C 4.722656 -1.191406 4.765625 -1.125 4.765625 -1 C 4.765625 -0.96875 4.757812 -0.929688 4.75 -0.890625 C 4.738281 -0.859375 4.71875 -0.828125 4.6875 -0.796875 C 4.664062 -0.765625 4.640625 -0.734375 4.609375 -0.703125 C 4.585938 -0.679688 4.554688 -0.65625 4.515625 -0.625 C 4.484375 -0.601562 4.453125 -0.582031 4.421875 -0.5625 C 4.398438 -0.539062 4.367188 -0.515625 4.328125 -0.484375 C 4.285156 -0.460938 4.257812 -0.445312 4.25 -0.4375 C 4.144531 -0.363281 4.035156 -0.304688 3.921875 -0.265625 C 3.910156 -0.253906 3.894531 -0.242188 3.875 -0.234375 C 3.863281 -0.210938 3.847656 -0.195312 3.828125 -0.1875 C 3.796875 -0.175781 3.753906 -0.160156 3.703125 -0.140625 C 3.597656 -0.0859375 3.441406 -0.046875 3.234375 -0.015625 C 3.023438 0.00390625 2.835938 0.0078125 2.671875 0 C 2.503906 -0.0078125 2.394531 -0.03125 2.34375 -0.0625 C 2.300781 -0.09375 2.253906 -0.148438 2.203125 -0.234375 C 2.148438 -0.316406 2.101562 -0.398438 2.0625 -0.484375 C 2.03125 -0.578125 2.007812 -0.644531 2 -0.6875 C 1.96875 -0.820312 1.957031 -0.96875 1.96875 -1.125 C 1.976562 -1.269531 2.003906 -1.507812 2.046875 -1.84375 L 2.046875 -1.9375 C 2.046875 -1.957031 2.035156 -1.972656 2.015625 -1.984375 C 2.003906 -2.003906 1.984375 -2.015625 1.953125 -2.015625 C 1.921875 -2.015625 1.882812 -2.015625 1.84375 -2.015625 C 1.789062 -2.015625 1.726562 -2.023438 1.65625 -2.046875 C 1.59375 -2.066406 1.523438 -2.082031 1.453125 -2.09375 C 1.390625 -2.113281 1.332031 -2.125 1.28125 -2.125 C 1.289062 -2.125 1.273438 -2.050781 1.234375 -1.90625 C 1.203125 -1.757812 1.15625 -1.601562 1.09375 -1.4375 C 1.039062 -1.28125 0.988281 -1.191406 0.9375 -1.171875 C 0.769531 -1.066406 0.597656 -0.992188 0.421875 -0.953125 C 0.179688 -0.898438 0.285156 -1.421875 0.734375 -2.515625 C 0.742188 -2.546875 0.765625 -2.601562 0.796875 -2.6875 C 0.835938 -2.769531 0.863281 -2.828125 0.875 -2.859375 C 0.894531 -2.898438 0.921875 -2.957031 0.953125 -3.03125 C 0.984375 -3.101562 1.003906 -3.164062 1.015625 -3.21875 C 1.023438 -3.269531 1.035156 -3.328125 1.046875 -3.390625 C 1.066406 -3.460938 1.082031 -3.53125 1.09375 -3.59375 C 1.101562 -3.65625 1.109375 -3.71875 1.109375 -3.78125 C 1.109375 -3.851562 1.15625 -3.984375 1.25 -4.171875 C 1.34375 -4.359375 1.414062 -4.472656 1.46875 -4.515625 C 1.539062 -4.554688 1.640625 -4.570312 1.765625 -4.5625 C 1.890625 -4.550781 1.972656 -4.519531 2.015625 -4.46875 C 2.066406 -4.40625 2.066406 -4.140625 2.015625 -3.671875 C 1.972656 -3.367188 1.957031 -3.175781 1.96875 -3.09375 C 1.96875 -3 1.988281 -2.925781 2.03125 -2.875 C 2.09375 -2.832031 2.144531 -2.8125 2.1875 -2.8125 C 2.226562 -2.8125 2.304688 -2.847656 2.421875 -2.921875 C 2.585938 -3.015625 2.707031 -3.054688 2.78125 -3.046875 C 2.851562 -3.046875 2.921875 -2.992188 2.984375 -2.890625 C 3.035156 -2.816406 3.054688 -2.75 3.046875 -2.6875 C 3.046875 -2.632812 3.015625 -2.523438 2.953125 -2.359375 C 2.859375 -2.109375 2.773438 -1.828125 2.703125 -1.515625 C 2.648438 -1.273438 2.632812 -1.09375 2.65625 -0.96875 C 2.675781 -0.851562 2.75 -0.71875 2.875 -0.5625 C 2.9375 -0.476562 2.984375 -0.429688 3.015625 -0.421875 C 3.023438 -0.421875 3.046875 -0.425781 3.078125 -0.4375 C 3.117188 -0.445312 3.15625 -0.457031 3.1875 -0.46875 C 3.226562 -0.488281 3.253906 -0.5 3.265625 -0.5 C 3.410156 -0.539062 3.503906 -0.570312 3.546875 -0.59375 C 3.898438 -0.78125 4.179688 -0.953125 4.390625 -1.109375 Z M 4.390625 -1.109375 "/></g></g></g><g fill="#ffffff" fill-opacity="1"><g transform="translate(9.648662, 11.630602)"><g><path d="M 3.484375 -0.828125 C 3.585938 -0.898438 3.675781 -0.921875 3.75 -0.890625 C 3.820312 -0.867188 3.851562 -0.796875 3.84375 -0.671875 C 3.832031 -0.640625 3.816406 -0.601562 3.796875 -0.5625 C 3.785156 -0.53125 3.765625 -0.5 3.734375 -0.46875 C 3.710938 -0.445312 3.6875 -0.425781 3.65625 -0.40625 C 3.632812 -0.382812 3.601562 -0.359375 3.5625 -0.328125 C 3.519531 -0.304688 3.484375 -0.285156 3.453125 -0.265625 C 3.429688 -0.253906 3.398438 -0.238281 3.359375 -0.21875 C 3.316406 -0.195312 3.285156 -0.179688 3.265625 -0.171875 C 3.148438 -0.109375 3.035156 -0.0625 2.921875 -0.03125 C 2.910156 -0.0195312 2.851562 0.015625 2.75 0.078125 C 2.644531 0.140625 2.519531 0.210938 2.375 0.296875 C 2.238281 0.378906 2.128906 0.429688 2.046875 0.453125 C 1.921875 0.492188 1.796875 0.523438 1.671875 0.546875 C 1.546875 0.578125 1.410156 0.59375 1.265625 0.59375 C 1.128906 0.601562 0.992188 0.585938 0.859375 0.546875 C 0.734375 0.515625 0.625 0.460938 0.53125 0.390625 C 0.425781 0.296875 0.335938 0.164062 0.265625 0 C 0.203125 -0.164062 0.160156 -0.347656 0.140625 -0.546875 C 0.117188 -0.742188 0.109375 -0.925781 0.109375 -1.09375 C 0.109375 -1.257812 0.117188 -1.421875 0.140625 -1.578125 C 0.140625 -1.597656 0.160156 -1.789062 0.203125 -2.15625 C 0.253906 -2.53125 0.304688 -2.894531 0.359375 -3.25 L 0.421875 -3.78125 C 0.367188 -3.8125 0.265625 -3.832031 0.109375 -3.84375 C 0.015625 -3.851562 -0.078125 -3.851562 -0.171875 -3.84375 C -0.390625 -3.84375 -0.546875 -3.851562 -0.640625 -3.875 C -0.660156 -3.875 -0.6875 -3.875 -0.71875 -3.875 C -0.757812 -3.875 -0.796875 -3.875 -0.828125 -3.875 C -0.859375 -3.875 -0.890625 -3.875 -0.921875 -3.875 C -0.960938 -3.875 -0.992188 -3.875 -1.015625 -3.875 C -1.035156 -3.882812 -1.046875 -3.898438 -1.046875 -3.921875 C -1.054688 -3.992188 -1.023438 -4.046875 -0.953125 -4.078125 C -0.953125 -4.078125 -0.921875 -4.09375 -0.859375 -4.125 C -0.804688 -4.164062 -0.75 -4.203125 -0.6875 -4.234375 C -0.625 -4.265625 -0.539062 -4.289062 -0.4375 -4.3125 C -0.332031 -4.34375 -0.222656 -4.351562 -0.109375 -4.34375 C 0.222656 -4.3125 0.429688 -4.300781 0.515625 -4.3125 C 0.609375 -4.320312 0.695312 -4.375 0.78125 -4.46875 C 0.894531 -4.582031 1.054688 -4.878906 1.265625 -5.359375 C 1.273438 -5.378906 1.289062 -5.410156 1.3125 -5.453125 C 1.382812 -5.628906 1.445312 -5.769531 1.5 -5.875 C 1.550781 -5.976562 1.625 -6.109375 1.71875 -6.265625 C 1.8125 -6.429688 1.910156 -6.570312 2.015625 -6.6875 C 2.128906 -6.800781 2.242188 -6.882812 2.359375 -6.9375 C 2.742188 -7.125 2.9375 -7.113281 2.9375 -6.90625 C 2.9375 -6.789062 2.847656 -6.523438 2.671875 -6.109375 C 2.617188 -5.992188 2.582031 -5.90625 2.5625 -5.84375 C 2.53125 -5.757812 2.503906 -5.660156 2.484375 -5.546875 C 2.472656 -5.429688 2.429688 -5.316406 2.359375 -5.203125 C 2.242188 -5.003906 2.148438 -4.84375 2.078125 -4.71875 C 1.992188 -4.5625 1.960938 -4.46875 1.984375 -4.4375 C 2.015625 -4.40625 2.25 -4.363281 2.6875 -4.3125 C 2.988281 -4.28125 3.171875 -4.253906 3.234375 -4.234375 C 3.304688 -4.210938 3.335938 -4.171875 3.328125 -4.109375 C 3.316406 -4.015625 3.265625 -3.972656 3.171875 -3.984375 C 3.140625 -3.992188 3.066406 -4 2.953125 -4 C 2.847656 -3.988281 2.726562 -3.984375 2.59375 -3.984375 C 2.445312 -3.972656 2.300781 -3.957031 2.15625 -3.9375 C 2.019531 -3.914062 1.898438 -3.898438 1.796875 -3.890625 C 1.753906 -3.878906 1.691406 -3.734375 1.609375 -3.453125 C 1.523438 -3.171875 1.429688 -2.828125 1.328125 -2.421875 C 1.234375 -2.015625 1.164062 -1.742188 1.125 -1.609375 C 0.882812 -0.910156 0.910156 -0.429688 1.203125 -0.171875 C 1.335938 -0.0546875 1.460938 0 1.578125 0 C 1.648438 0 1.722656 -0.0234375 1.796875 -0.078125 C 1.816406 -0.0976562 1.863281 -0.125 1.9375 -0.15625 C 2.019531 -0.195312 2.101562 -0.226562 2.1875 -0.25 C 2.269531 -0.28125 2.359375 -0.3125 2.453125 -0.34375 C 2.546875 -0.375 2.59375 -0.390625 2.59375 -0.390625 C 2.957031 -0.546875 3.253906 -0.691406 3.484375 -0.828125 Z M 3.484375 -0.828125 "/></g></g></g><g fill="#ffffff" fill-opacity="1"><g transform="translate(12.561228, 11.630602)"><g><path d="M 1.640625 -4.15625 C 1.515625 -4.125 1.390625 -4.171875 1.265625 -4.296875 C 1.171875 -4.390625 1.125 -4.445312 1.125 -4.46875 C 1.125 -4.5 1.15625 -4.539062 1.21875 -4.59375 C 1.3125 -4.664062 1.429688 -4.703125 1.578125 -4.703125 C 1.734375 -4.703125 1.835938 -4.664062 1.890625 -4.59375 C 1.953125 -4.519531 1.957031 -4.4375 1.90625 -4.34375 C 1.851562 -4.25 1.765625 -4.1875 1.640625 -4.15625 Z M 2.859375 -0.875 C 2.890625 -0.820312 2.890625 -0.769531 2.859375 -0.71875 C 2.828125 -0.664062 2.742188 -0.582031 2.609375 -0.46875 C 2.398438 -0.289062 2.148438 -0.125 1.859375 0.03125 C 1.628906 0.132812 1.394531 0.175781 1.15625 0.15625 C 0.925781 0.132812 0.707031 0.0664062 0.5 -0.046875 C 0.289062 -0.160156 0.113281 -0.304688 -0.03125 -0.484375 C -0.25 -0.742188 -0.3125 -1.085938 -0.21875 -1.515625 C -0.21875 -1.546875 -0.203125 -1.65625 -0.171875 -1.84375 C -0.140625 -2.03125 -0.109375 -2.191406 -0.078125 -2.328125 C -0.0546875 -2.472656 -0.0234375 -2.570312 0.015625 -2.625 C 0.0546875 -2.675781 0.125 -2.707031 0.21875 -2.71875 C 0.3125 -2.738281 0.40625 -2.738281 0.5 -2.71875 C 0.601562 -2.707031 0.703125 -2.679688 0.796875 -2.640625 C 0.890625 -2.597656 0.953125 -2.539062 0.984375 -2.46875 C 1.015625 -2.394531 1.015625 -2.3125 0.984375 -2.21875 C 0.878906 -2 0.828125 -1.84375 0.828125 -1.75 C 0.828125 -1.664062 0.78125 -1.566406 0.6875 -1.453125 C 0.601562 -1.359375 0.550781 -1.242188 0.53125 -1.109375 C 0.519531 -0.984375 0.546875 -0.898438 0.609375 -0.859375 C 0.660156 -0.835938 0.6875 -0.78125 0.6875 -0.6875 C 0.6875 -0.601562 0.742188 -0.507812 0.859375 -0.40625 C 0.941406 -0.320312 1.003906 -0.273438 1.046875 -0.265625 C 1.097656 -0.265625 1.191406 -0.28125 1.328125 -0.3125 C 1.515625 -0.375 1.753906 -0.515625 2.046875 -0.734375 C 2.273438 -0.898438 2.445312 -0.992188 2.5625 -1.015625 C 2.6875 -1.035156 2.785156 -0.988281 2.859375 -0.875 Z M 2.859375 -0.875 "/></g></g></g><g fill="#ffffff" fill-opacity="1"><g transform="translate(14.376009, 11.630602)"><g><path d="M 3.53125 -1.296875 C 3.632812 -1.378906 3.722656 -1.410156 3.796875 -1.390625 C 3.867188 -1.378906 3.90625 -1.3125 3.90625 -1.1875 C 3.90625 -1.15625 3.898438 -1.125 3.890625 -1.09375 C 3.878906 -1.0625 3.863281 -1.03125 3.84375 -1 C 3.832031 -0.976562 3.816406 -0.953125 3.796875 -0.921875 C 3.773438 -0.898438 3.75 -0.878906 3.71875 -0.859375 C 3.695312 -0.835938 3.671875 -0.8125 3.640625 -0.78125 C 3.609375 -0.757812 3.578125 -0.738281 3.546875 -0.71875 C 3.523438 -0.707031 3.5 -0.691406 3.46875 -0.671875 C 3.4375 -0.648438 3.414062 -0.632812 3.40625 -0.625 C 3.289062 -0.550781 3.175781 -0.488281 3.0625 -0.4375 C 3.050781 -0.4375 3.023438 -0.425781 2.984375 -0.40625 C 2.867188 -0.28125 2.757812 -0.191406 2.65625 -0.140625 C 2.570312 -0.109375 2.453125 -0.0859375 2.296875 -0.078125 C 2.140625 -0.0234375 2.03125 -0.03125 1.96875 -0.09375 C 1.957031 -0.09375 1.90625 -0.09375 1.8125 -0.09375 C 1.726562 -0.101562 1.664062 -0.109375 1.625 -0.109375 C 1.59375 -0.117188 1.546875 -0.125 1.484375 -0.125 C 1.421875 -0.125 1.363281 -0.113281 1.3125 -0.09375 C 1.257812 -0.0820312 1.210938 -0.0664062 1.171875 -0.046875 C 1.109375 -0.015625 1.03125 0 0.9375 0 C 0.851562 0 0.695312 -0.0195312 0.46875 -0.0625 C 0.3125 -0.0820312 0.175781 -0.0976562 0.0625 -0.109375 C 0.0390625 -0.109375 0.0195312 -0.109375 0 -0.109375 C -0.03125 -0.109375 -0.0625 -0.109375 -0.09375 -0.109375 C -0.125 -0.109375 -0.148438 -0.113281 -0.171875 -0.125 C -0.222656 -0.15625 -0.285156 -0.28125 -0.359375 -0.5 C -0.398438 -0.625 -0.425781 -0.753906 -0.4375 -0.890625 C -0.445312 -0.941406 -0.445312 -0.984375 -0.4375 -1.015625 C -0.40625 -1.128906 -0.367188 -1.203125 -0.328125 -1.234375 C -0.304688 -1.234375 -0.269531 -1.238281 -0.21875 -1.25 C -0.164062 -1.257812 -0.128906 -1.273438 -0.109375 -1.296875 C -0.0664062 -1.328125 -0.03125 -1.382812 0 -1.46875 C 0.0195312 -1.539062 0.0351562 -1.617188 0.046875 -1.703125 C 0.046875 -1.773438 0.0507812 -1.820312 0.0625 -1.84375 C 0.0820312 -1.875 0.117188 -1.90625 0.171875 -1.9375 C 0.222656 -1.96875 0.25 -1.984375 0.25 -1.984375 C 0.3125 -2.035156 0.359375 -2.097656 0.390625 -2.171875 C 0.410156 -2.210938 0.445312 -2.34375 0.5 -2.5625 C 0.550781 -2.726562 0.59375 -2.898438 0.625 -3.078125 C 0.65625 -3.253906 0.679688 -3.40625 0.703125 -3.53125 C 0.722656 -3.8125 0.75 -3.976562 0.78125 -4.03125 C 0.820312 -4.082031 0.894531 -4.101562 1 -4.09375 C 1.113281 -4.09375 1.210938 -4.0625 1.296875 -4 C 1.328125 -3.976562 1.359375 -3.941406 1.390625 -3.890625 C 1.421875 -3.835938 1.441406 -3.789062 1.453125 -3.75 C 1.460938 -3.707031 1.476562 -3.648438 1.5 -3.578125 C 1.519531 -3.503906 1.535156 -3.457031 1.546875 -3.4375 C 1.628906 -3.1875 1.691406 -2.957031 1.734375 -2.75 C 1.742188 -2.664062 1.753906 -2.546875 1.765625 -2.390625 C 1.785156 -2.234375 1.804688 -2.085938 1.828125 -1.953125 C 1.859375 -1.828125 1.894531 -1.710938 1.9375 -1.609375 C 2.007812 -1.398438 2.035156 -1.21875 2.015625 -1.0625 C 1.992188 -0.957031 1.984375 -0.863281 1.984375 -0.78125 C 1.984375 -0.695312 2.007812 -0.625 2.0625 -0.5625 C 2.125 -0.507812 2.21875 -0.488281 2.34375 -0.5 C 2.394531 -0.5 2.441406 -0.507812 2.484375 -0.53125 C 2.535156 -0.550781 2.578125 -0.570312 2.609375 -0.59375 C 2.648438 -0.613281 2.695312 -0.640625 2.75 -0.671875 C 2.800781 -0.710938 2.832031 -0.738281 2.84375 -0.75 C 2.863281 -0.769531 2.90625 -0.8125 2.96875 -0.875 C 3.039062 -0.9375 3.144531 -1.019531 3.28125 -1.125 C 3.425781 -1.226562 3.507812 -1.285156 3.53125 -1.296875 Z M 1.03125 -0.828125 C 1.238281 -0.878906 1.359375 -0.984375 1.390625 -1.140625 C 1.429688 -1.296875 1.394531 -1.550781 1.28125 -1.90625 C 1.164062 -2.238281 1.09375 -2.40625 1.0625 -2.40625 C 1.03125 -2.40625 1.003906 -2.335938 0.984375 -2.203125 C 0.953125 -2.085938 0.914062 -2.003906 0.875 -1.953125 C 0.820312 -1.867188 0.734375 -1.695312 0.609375 -1.4375 C 0.492188 -1.1875 0.445312 -1.050781 0.46875 -1.03125 C 0.488281 -1 0.53125 -0.960938 0.59375 -0.921875 C 0.664062 -0.890625 0.742188 -0.863281 0.828125 -0.84375 C 0.910156 -0.820312 0.976562 -0.816406 1.03125 -0.828125 Z M 1.03125 -0.828125 "/></g></g></g><g fill="#ffffff" fill-opacity="1"><g transform="translate(17.370908, 11.630602)"><g><path d="M 4.390625 -0.84375 C 4.472656 -0.90625 4.546875 -0.929688 4.609375 -0.921875 C 4.671875 -0.910156 4.703125 -0.847656 4.703125 -0.734375 C 4.703125 -0.710938 4.695312 -0.6875 4.6875 -0.65625 C 4.675781 -0.632812 4.664062 -0.613281 4.65625 -0.59375 C 4.644531 -0.570312 4.628906 -0.550781 4.609375 -0.53125 C 4.585938 -0.507812 4.566406 -0.488281 4.546875 -0.46875 C 4.523438 -0.457031 4.5 -0.441406 4.46875 -0.421875 C 4.445312 -0.398438 4.425781 -0.378906 4.40625 -0.359375 C 4.394531 -0.347656 4.375 -0.332031 4.34375 -0.3125 C 4.3125 -0.300781 4.289062 -0.289062 4.28125 -0.28125 C 4.195312 -0.21875 4.101562 -0.164062 4 -0.125 C 3.988281 -0.125 3.9375 -0.0976562 3.84375 -0.046875 L 3.8125 0 C 3.6875 0.113281 3.503906 0.1875 3.265625 0.21875 C 3.117188 0.226562 3.003906 0.222656 2.921875 0.203125 C 2.847656 0.191406 2.738281 0.15625 2.59375 0.09375 C 2.382812 -0.0078125 2.25 -0.09375 2.1875 -0.15625 C 2.132812 -0.1875 2.09375 -0.195312 2.0625 -0.1875 C 2.03125 -0.1875 1.972656 -0.15625 1.890625 -0.09375 C 1.609375 0.113281 1.273438 0.226562 0.890625 0.25 C 0.503906 0.269531 0.25 0.191406 0.125 0.015625 C 0.0507812 -0.0976562 0.0195312 -0.316406 0.03125 -0.640625 C 0.0390625 -0.972656 0.0820312 -1.207031 0.15625 -1.34375 C 0.226562 -1.46875 0.28125 -1.5625 0.3125 -1.625 C 0.351562 -1.6875 0.394531 -1.742188 0.4375 -1.796875 C 0.46875 -1.847656 0.53125 -1.925781 0.625 -2.03125 C 0.90625 -2.382812 1.128906 -2.628906 1.296875 -2.765625 C 1.421875 -2.867188 1.570312 -2.953125 1.75 -3.015625 C 1.925781 -3.085938 2.109375 -3.132812 2.296875 -3.15625 C 2.484375 -3.1875 2.648438 -3.164062 2.796875 -3.09375 C 2.972656 -3 3.082031 -2.835938 3.125 -2.609375 C 3.164062 -2.390625 3.160156 -2.175781 3.109375 -1.96875 C 3.054688 -1.757812 2.988281 -1.566406 2.90625 -1.390625 C 2.820312 -1.210938 2.757812 -1.019531 2.71875 -0.8125 C 2.6875 -0.601562 2.691406 -0.46875 2.734375 -0.40625 C 2.816406 -0.238281 3.101562 -0.226562 3.59375 -0.375 C 3.601562 -0.382812 3.617188 -0.390625 3.640625 -0.390625 C 3.671875 -0.390625 3.691406 -0.394531 3.703125 -0.40625 C 3.992188 -0.5625 4.222656 -0.707031 4.390625 -0.84375 Z M 2.3125 -2.125 C 2.363281 -2.15625 2.390625 -2.175781 2.390625 -2.1875 C 2.398438 -2.207031 2.390625 -2.234375 2.359375 -2.265625 C 2.304688 -2.328125 2.226562 -2.363281 2.125 -2.375 C 2.03125 -2.394531 1.9375 -2.390625 1.84375 -2.359375 C 1.738281 -2.335938 1.585938 -2.25 1.390625 -2.09375 C 1.203125 -1.9375 1.078125 -1.800781 1.015625 -1.6875 C 0.921875 -1.550781 0.84375 -1.429688 0.78125 -1.328125 C 0.695312 -1.210938 0.640625 -1.050781 0.609375 -0.84375 C 0.585938 -0.632812 0.601562 -0.5 0.65625 -0.4375 C 0.695312 -0.375 0.796875 -0.34375 0.953125 -0.34375 C 1.109375 -0.34375 1.253906 -0.367188 1.390625 -0.421875 C 1.523438 -0.484375 1.625 -0.582031 1.6875 -0.71875 C 1.800781 -0.925781 1.890625 -1.097656 1.953125 -1.234375 C 2.078125 -1.441406 2.140625 -1.582031 2.140625 -1.65625 C 2.140625 -1.695312 2.15625 -1.738281 2.1875 -1.78125 C 2.226562 -1.832031 2.238281 -1.890625 2.21875 -1.953125 C 2.195312 -2.023438 2.226562 -2.082031 2.3125 -2.125 Z M 2.3125 -2.125 "/></g></g></g><g fill="#ffffff" fill-opacity="1"><g transform="translate(21.185713, 11.630602)"><g><path d="M -0.28125 -0.953125 C -0.207031 -1.066406 -0.0664062 -1.34375 0.140625 -1.78125 C 0.347656 -2.226562 0.53125 -2.539062 0.6875 -2.71875 C 0.707031 -2.75 0.734375 -2.78125 0.765625 -2.8125 C 0.816406 -2.875 0.890625 -2.914062 0.984375 -2.9375 C 1.078125 -2.96875 1.164062 -2.96875 1.25 -2.9375 C 1.28125 -2.914062 1.300781 -2.863281 1.3125 -2.78125 C 1.320312 -2.707031 1.335938 -2.671875 1.359375 -2.671875 C 1.390625 -2.660156 1.46875 -2.703125 1.59375 -2.796875 C 1.800781 -2.941406 2.132812 -3.0625 2.59375 -3.15625 C 2.769531 -3.195312 2.882812 -3.210938 2.9375 -3.203125 C 3 -3.203125 3.066406 -3.164062 3.140625 -3.09375 C 3.253906 -2.976562 3.3125 -2.84375 3.3125 -2.6875 C 3.3125 -2.539062 3.257812 -2.40625 3.15625 -2.28125 C 3.082031 -2.164062 2.984375 -1.9375 2.859375 -1.59375 C 2.734375 -1.257812 2.671875 -1.03125 2.671875 -0.90625 C 2.671875 -0.8125 2.703125 -0.707031 2.765625 -0.59375 C 2.828125 -0.488281 2.898438 -0.398438 2.984375 -0.328125 C 3.078125 -0.253906 3.160156 -0.21875 3.234375 -0.21875 C 3.347656 -0.21875 3.578125 -0.3125 3.921875 -0.5 C 4.273438 -0.6875 4.554688 -0.859375 4.765625 -1.015625 C 4.910156 -1.128906 5.015625 -1.179688 5.078125 -1.171875 C 5.140625 -1.171875 5.171875 -1.109375 5.171875 -0.984375 C 5.171875 -0.929688 5.144531 -0.867188 5.09375 -0.796875 C 5.050781 -0.722656 4.992188 -0.644531 4.921875 -0.5625 C 4.835938 -0.488281 4.738281 -0.414062 4.625 -0.34375 C 4.519531 -0.269531 4.410156 -0.210938 4.296875 -0.171875 C 3.992188 -0.0234375 3.773438 0.078125 3.640625 0.140625 C 3.410156 0.242188 3.207031 0.273438 3.03125 0.234375 C 2.851562 0.191406 2.648438 0.0507812 2.421875 -0.1875 C 2.222656 -0.382812 2.109375 -0.515625 2.078125 -0.578125 C 2.046875 -0.648438 2.03125 -0.789062 2.03125 -1 C 2.03125 -1.289062 2.082031 -1.59375 2.1875 -1.90625 C 2.269531 -2.21875 2.304688 -2.390625 2.296875 -2.421875 C 2.265625 -2.453125 2.078125 -2.304688 1.734375 -1.984375 C 1.390625 -1.660156 1.050781 -1.316406 0.71875 -0.953125 C 0.394531 -0.597656 0.234375 -0.394531 0.234375 -0.34375 C 0.234375 -0.289062 0.203125 -0.238281 0.140625 -0.1875 C 0.0859375 -0.132812 0.0195312 -0.0859375 -0.0625 -0.046875 C -0.144531 -0.015625 -0.21875 -0.00390625 -0.28125 -0.015625 C -0.382812 -0.0351562 -0.457031 -0.117188 -0.5 -0.265625 C -0.53125 -0.367188 -0.535156 -0.457031 -0.515625 -0.53125 C -0.492188 -0.613281 -0.414062 -0.753906 -0.28125 -0.953125 Z M -0.28125 -0.953125 "/></g></g></g><g clip-path="url(#d0be128dff)"><g fill="#ffffff" fill-opacity="1"><g transform="translate(25.532258, 11.630602)"><g><path d="M 3.53125 -1.296875 C 3.632812 -1.378906 3.722656 -1.410156 3.796875 -1.390625 C 3.867188 -1.378906 3.90625 -1.3125 3.90625 -1.1875 C 3.90625 -1.15625 3.898438 -1.125 3.890625 -1.09375 C 3.878906 -1.0625 3.863281 -1.03125 3.84375 -1 C 3.832031 -0.976562 3.816406 -0.953125 3.796875 -0.921875 C 3.773438 -0.898438 3.75 -0.878906 3.71875 -0.859375 C 3.695312 -0.835938 3.671875 -0.8125 3.640625 -0.78125 C 3.609375 -0.757812 3.578125 -0.738281 3.546875 -0.71875 C 3.523438 -0.707031 3.5 -0.691406 3.46875 -0.671875 C 3.4375 -0.648438 3.414062 -0.632812 3.40625 -0.625 C 3.289062 -0.550781 3.175781 -0.488281 3.0625 -0.4375 C 3.050781 -0.4375 3.023438 -0.425781 2.984375 -0.40625 C 2.867188 -0.28125 2.757812 -0.191406 2.65625 -0.140625 C 2.570312 -0.109375 2.453125 -0.0859375 2.296875 -0.078125 C 2.140625 -0.0234375 2.03125 -0.03125 1.96875 -0.09375 C 1.957031 -0.09375 1.90625 -0.09375 1.8125 -0.09375 C 1.726562 -0.101562 1.664062 -0.109375 1.625 -0.109375 C 1.59375 -0.117188 1.546875 -0.125 1.484375 -0.125 C 1.421875 -0.125 1.363281 -0.113281 1.3125 -0.09375 C 1.257812 -0.0820312 1.210938 -0.0664062 1.171875 -0.046875 C 1.109375 -0.015625 1.03125 0 0.9375 0 C 0.851562 0 0.695312 -0.0195312 0.46875 -0.0625 C 0.3125 -0.0820312 0.175781 -0.0976562 0.0625 -0.109375 C 0.0390625 -0.109375 0.0195312 -0.109375 0 -0.109375 C -0.03125 -0.109375 -0.0625 -0.109375 -0.09375 -0.109375 C -0.125 -0.109375 -0.148438 -0.113281 -0.171875 -0.125 C -0.222656 -0.15625 -0.285156 -0.28125 -0.359375 -0.5 C -0.398438 -0.625 -0.425781 -0.753906 -0.4375 -0.890625 C -0.445312 -0.941406 -0.445312 -0.984375 -0.4375 -1.015625 C -0.40625 -1.128906 -0.367188 -1.203125 -0.328125 -1.234375 C -0.304688 -1.234375 -0.269531 -1.238281 -0.21875 -1.25 C -0.164062 -1.257812 -0.128906 -1.273438 -0.109375 -1.296875 C -0.0664062 -1.328125 -0.03125 -1.382812 0 -1.46875 C 0.0195312 -1.539062 0.0351562 -1.617188 0.046875 -1.703125 C 0.046875 -1.773438 0.0507812 -1.820312 0.0625 -1.84375 C 0.0820312 -1.875 0.117188 -1.90625 0.171875 -1.9375 C 0.222656 -1.96875 0.25 -1.984375 0.25 -1.984375 C 0.3125 -2.035156 0.359375 -2.097656 0.390625 -2.171875 C 0.410156 -2.210938 0.445312 -2.34375 0.5 -2.5625 C 0.550781 -2.726562 0.59375 -2.898438 0.625 -3.078125 C 0.65625 -3.253906 0.679688 -3.40625 0.703125 -3.53125 C 0.722656 -3.8125 0.75 -3.976562 0.78125 -4.03125 C 0.820312 -4.082031 0.894531 -4.101562 1 -4.09375 C 1.113281 -4.09375 1.210938 -4.0625 1.296875 -4 C 1.328125 -3.976562 1.359375 -3.941406 1.390625 -3.890625 C 1.421875 -3.835938 1.441406 -3.789062 1.453125 -3.75 C 1.460938 -3.707031 1.476562 -3.648438 1.5 -3.578125 C 1.519531 -3.503906 1.535156 -3.457031 1.546875 -3.4375 C 1.628906 -3.1875 1.691406 -2.957031 1.734375 -2.75 C 1.742188 -2.664062 1.753906 -2.546875 1.765625 -2.390625 C 1.785156 -2.234375 1.804688 -2.085938 1.828125 -1.953125 C 1.859375 -1.828125 1.894531 -1.710938 1.9375 -1.609375 C 2.007812 -1.398438 2.035156 -1.21875 2.015625 -1.0625 C 1.992188 -0.957031 1.984375 -0.863281 1.984375 -0.78125 C 1.984375 -0.695312 2.007812 -0.625 2.0625 -0.5625 C 2.125 -0.507812 2.21875 -0.488281 2.34375 -0.5 C 2.394531 -0.5 2.441406 -0.507812 2.484375 -0.53125 C 2.535156 -0.550781 2.578125 -0.570312 2.609375 -0.59375 C 2.648438 -0.613281 2.695312 -0.640625 2.75 -0.671875 C 2.800781 -0.710938 2.832031 -0.738281 2.84375 -0.75 C 2.863281 -0.769531 2.90625 -0.8125 2.96875 -0.875 C 3.039062 -0.9375 3.144531 -1.019531 3.28125 -1.125 C 3.425781 -1.226562 3.507812 -1.285156 3.53125 -1.296875 Z M 1.03125 -0.828125 C 1.238281 -0.878906 1.359375 -0.984375 1.390625 -1.140625 C 1.429688 -1.296875 1.394531 -1.550781 1.28125 -1.90625 C 1.164062 -2.238281 1.09375 -2.40625 1.0625 -2.40625 C 1.03125 -2.40625 1.003906 -2.335938 0.984375 -2.203125 C 0.953125 -2.085938 0.914062 -2.003906 0.875 -1.953125 C 0.820312 -1.867188 0.734375 -1.695312 0.609375 -1.4375 C 0.492188 -1.1875 0.445312 -1.050781 0.46875 -1.03125 C 0.488281 -1 0.53125 -0.960938 0.59375 -0.921875 C 0.664062 -0.890625 0.742188 -0.863281 0.828125 -0.84375 C 0.910156 -0.820312 0.976562 -0.816406 1.03125 -0.828125 Z M 1.03125 -0.828125 "/></g></g></g></g></g></g></g></svg>